<svg width="440" height="380" viewBox="0 0 440 380" fill="none" xmlns="http://www.w3.org/2000/svg">
<path d="M151.263 26.192C149.983 26.192 148.863 25.992 147.903 25.592C146.943 25.176 146.199 24.592 145.671 23.84C145.159 23.072 144.903 22.184 144.903 21.176V20.648C144.903 20.568 144.927 20.504 144.975 20.456C145.039 20.392 145.111 20.36 145.191 20.36H147.927C148.007 20.36 148.071 20.392 148.119 20.456C148.183 20.504 148.215 20.568 148.215 20.648V21.008C148.215 21.648 148.511 22.192 149.103 22.64C149.695 23.072 150.495 23.288 151.503 23.288C152.351 23.288 152.983 23.112 153.399 22.76C153.815 22.392 154.023 21.944 154.023 21.416C154.023 21.032 153.895 20.712 153.639 20.456C153.383 20.184 153.031 19.952 152.583 19.76C152.151 19.552 151.455 19.272 150.495 18.92C149.423 18.552 148.511 18.176 147.759 17.792C147.023 17.408 146.399 16.888 145.887 16.232C145.391 15.56 145.143 14.736 145.143 13.76C145.143 12.8 145.391 11.96 145.887 11.24C146.383 10.52 147.071 9.968 147.951 9.584C148.831 9.2 149.847 9.008 150.999 9.008C152.215 9.008 153.295 9.224 154.239 9.656C155.199 10.088 155.943 10.696 156.471 11.48C157.015 12.248 157.287 13.144 157.287 14.168V14.528C157.287 14.608 157.255 14.68 157.191 14.744C157.143 14.792 157.079 14.816 156.999 14.816H154.239C154.159 14.816 154.087 14.792 154.023 14.744C153.975 14.68 153.951 14.608 153.951 14.528V14.336C153.951 13.664 153.671 13.096 153.111 12.632C152.567 12.152 151.815 11.912 150.855 11.912C150.103 11.912 149.511 12.072 149.079 12.392C148.663 12.712 148.455 13.152 148.455 13.712C148.455 14.112 148.575 14.448 148.815 14.72C149.071 14.992 149.439 15.24 149.919 15.464C150.415 15.672 151.175 15.96 152.199 16.328C153.335 16.744 154.223 17.112 154.863 17.432C155.519 17.752 156.103 18.232 156.615 18.872C157.143 19.496 157.407 20.312 157.407 21.32C157.407 22.824 156.855 24.016 155.751 24.896C154.647 25.76 153.151 26.192 151.263 26.192ZM161.385 12.272C160.841 12.272 160.385 12.096 160.017 11.744C159.665 11.376 159.489 10.92 159.489 10.376C159.489 9.816 159.665 9.36 160.017 9.008C160.369 8.656 160.825 8.48 161.385 8.48C161.945 8.48 162.401 8.656 162.753 9.008C163.105 9.36 163.281 9.816 163.281 10.376C163.281 10.92 163.097 11.376 162.729 11.744C162.377 12.096 161.929 12.272 161.385 12.272ZM159.945 26C159.865 26 159.793 25.976 159.729 25.928C159.681 25.864 159.657 25.792 159.657 25.712V13.928C159.657 13.848 159.681 13.784 159.729 13.736C159.793 13.672 159.865 13.64 159.945 13.64H162.753C162.833 13.64 162.897 13.672 162.945 13.736C163.009 13.784 163.041 13.848 163.041 13.928V25.712C163.041 25.792 163.009 25.864 162.945 25.928C162.897 25.976 162.833 26 162.753 26H159.945ZM172.11 13.472C173.39 13.472 174.422 13.864 175.206 14.648C175.99 15.432 176.382 16.496 176.382 17.84V25.712C176.382 25.792 176.35 25.864 176.286 25.928C176.238 25.976 176.174 26 176.094 26H173.286C173.206 26 173.134 25.976 173.07 25.928C173.022 25.864 172.998 25.792 172.998 25.712V18.536C172.998 17.896 172.814 17.376 172.446 16.976C172.094 16.576 171.622 16.376 171.03 16.376C170.438 16.376 169.958 16.576 169.59 16.976C169.238 17.376 169.062 17.896 169.062 18.536V25.712C169.062 25.792 169.03 25.864 168.966 25.928C168.918 25.976 168.854 26 168.774 26H165.966C165.886 26 165.814 25.976 165.75 25.928C165.702 25.864 165.678 25.792 165.678 25.712V13.952C165.678 13.872 165.702 13.808 165.75 13.76C165.814 13.696 165.886 13.664 165.966 13.664H168.774C168.854 13.664 168.918 13.696 168.966 13.76C169.03 13.808 169.062 13.872 169.062 13.952V14.792C169.062 14.84 169.078 14.872 169.11 14.888C169.142 14.904 169.166 14.896 169.182 14.864C169.838 13.936 170.814 13.472 172.11 13.472ZM189.751 13.496C190.327 13.496 190.783 13.608 191.119 13.832C191.247 13.896 191.295 14.016 191.263 14.192L190.759 16.928C190.743 17.12 190.631 17.176 190.423 17.096C190.183 17.016 189.903 16.976 189.583 16.976C189.455 16.976 189.279 16.992 189.055 17.024C188.479 17.072 187.991 17.288 187.591 17.672C187.191 18.04 186.991 18.536 186.991 19.16V25.712C186.991 25.792 186.959 25.864 186.895 25.928C186.847 25.976 186.783 26 186.703 26H183.895C183.815 26 183.743 25.976 183.679 25.928C183.631 25.864 183.607 25.792 183.607 25.712V13.952C183.607 13.872 183.631 13.808 183.679 13.76C183.743 13.696 183.815 13.664 183.895 13.664H186.703C186.783 13.664 186.847 13.696 186.895 13.76C186.959 13.808 186.991 13.872 186.991 13.952V14.864C186.991 14.912 187.007 14.944 187.039 14.96C187.071 14.976 187.095 14.968 187.111 14.936C187.767 13.976 188.647 13.496 189.751 13.496ZM203.41 18.56C203.506 19.168 203.538 19.848 203.506 20.6C203.49 20.792 203.386 20.888 203.194 20.888H195.778C195.682 20.888 195.65 20.928 195.682 21.008C195.73 21.328 195.818 21.648 195.946 21.968C196.362 22.864 197.21 23.312 198.49 23.312C199.514 23.296 200.322 22.88 200.914 22.064C200.978 21.968 201.05 21.92 201.13 21.92C201.178 21.92 201.234 21.952 201.298 22.016L203.026 23.72C203.106 23.8 203.146 23.872 203.146 23.936C203.146 23.968 203.114 24.032 203.05 24.128C202.522 24.784 201.842 25.296 201.01 25.664C200.178 26.016 199.266 26.192 198.274 26.192C196.898 26.192 195.73 25.88 194.77 25.256C193.826 24.632 193.146 23.76 192.73 22.64C192.394 21.84 192.226 20.792 192.226 19.496C192.226 18.616 192.346 17.84 192.586 17.168C192.954 16.032 193.594 15.128 194.506 14.456C195.434 13.784 196.53 13.448 197.794 13.448C199.394 13.448 200.674 13.912 201.634 14.84C202.61 15.768 203.202 17.008 203.41 18.56ZM197.818 16.376C196.81 16.376 196.146 16.848 195.826 17.792C195.762 18 195.706 18.256 195.658 18.56C195.658 18.64 195.698 18.68 195.778 18.68H199.93C200.026 18.68 200.058 18.64 200.026 18.56C199.946 18.096 199.906 17.872 199.906 17.888C199.762 17.408 199.506 17.04 199.138 16.784C198.786 16.512 198.346 16.376 197.818 16.376ZM210.348 26.168C209.276 26.168 208.34 26.016 207.54 25.712C206.74 25.408 206.116 24.984 205.668 24.44C205.236 23.896 205.02 23.28 205.02 22.592V22.352C205.02 22.272 205.044 22.208 205.092 22.16C205.156 22.096 205.228 22.064 205.308 22.064H207.972C208.052 22.064 208.116 22.096 208.164 22.16C208.228 22.208 208.26 22.272 208.26 22.352V22.376C208.26 22.728 208.452 23.032 208.836 23.288C209.236 23.528 209.732 23.648 210.324 23.648C210.868 23.648 211.308 23.544 211.644 23.336C211.98 23.112 212.148 22.84 212.148 22.52C212.148 22.232 212.004 22.016 211.716 21.872C211.428 21.728 210.956 21.576 210.3 21.416C209.548 21.224 208.956 21.04 208.524 20.864C207.5 20.512 206.684 20.08 206.076 19.568C205.468 19.056 205.164 18.32 205.164 17.36C205.164 16.176 205.62 15.24 206.532 14.552C207.46 13.848 208.684 13.496 210.204 13.496C211.228 13.496 212.124 13.664 212.892 14C213.66 14.32 214.252 14.776 214.668 15.368C215.1 15.96 215.316 16.632 215.316 17.384C215.316 17.464 215.284 17.536 215.22 17.6C215.172 17.648 215.108 17.672 215.028 17.672H212.46C212.38 17.672 212.308 17.648 212.244 17.6C212.196 17.536 212.172 17.464 212.172 17.384C212.172 17.032 211.988 16.736 211.62 16.496C211.268 16.256 210.796 16.136 210.204 16.136C209.676 16.136 209.244 16.232 208.908 16.424C208.572 16.616 208.404 16.88 208.404 17.216C208.404 17.536 208.564 17.776 208.884 17.936C209.22 18.096 209.772 18.264 210.54 18.44C210.716 18.488 210.916 18.544 211.14 18.608C211.364 18.656 211.604 18.72 211.86 18.8C212.996 19.136 213.892 19.568 214.548 20.096C215.204 20.624 215.532 21.392 215.532 22.4C215.532 23.584 215.06 24.512 214.116 25.184C213.188 25.84 211.932 26.168 210.348 26.168ZM224.675 13.952C224.675 13.872 224.699 13.808 224.747 13.76C224.811 13.696 224.883 13.664 224.963 13.664H227.771C227.851 13.664 227.915 13.696 227.963 13.76C228.027 13.808 228.059 13.872 228.059 13.952V25.712C228.059 25.792 228.027 25.864 227.963 25.928C227.915 25.976 227.851 26 227.771 26H224.963C224.883 26 224.811 25.976 224.747 25.928C224.699 25.864 224.675 25.792 224.675 25.712V24.896C224.675 24.848 224.659 24.824 224.627 24.824C224.595 24.808 224.563 24.824 224.531 24.872C223.891 25.736 222.899 26.168 221.555 26.168C220.339 26.168 219.339 25.8 218.555 25.064C217.771 24.328 217.379 23.296 217.379 21.968V13.952C217.379 13.872 217.403 13.808 217.451 13.76C217.515 13.696 217.587 13.664 217.667 13.664H220.451C220.531 13.664 220.595 13.696 220.643 13.76C220.707 13.808 220.739 13.872 220.739 13.952V21.128C220.739 21.768 220.907 22.288 221.243 22.688C221.595 23.088 222.075 23.288 222.683 23.288C223.227 23.288 223.675 23.128 224.027 22.808C224.379 22.472 224.595 22.04 224.675 21.512V13.952ZM230.841 26C230.761 26 230.689 25.976 230.625 25.928C230.577 25.864 230.553 25.792 230.553 25.712V9.488C230.553 9.408 230.577 9.344 230.625 9.296C230.689 9.232 230.761 9.2 230.841 9.2H233.649C233.729 9.2 233.793 9.232 233.841 9.296C233.905 9.344 233.937 9.408 233.937 9.488V25.712C233.937 25.792 233.905 25.864 233.841 25.928C233.793 25.976 233.729 26 233.649 26H230.841ZM243.492 16.088C243.492 16.168 243.46 16.24 243.396 16.304C243.348 16.352 243.284 16.376 243.204 16.376H240.9C240.82 16.376 240.78 16.416 240.78 16.496V21.584C240.78 22.112 240.884 22.504 241.092 22.76C241.316 23.016 241.668 23.144 242.148 23.144H242.94C243.02 23.144 243.084 23.176 243.132 23.24C243.196 23.288 243.228 23.352 243.228 23.432V25.712C243.228 25.888 243.132 25.992 242.94 26.024C242.268 26.056 241.788 26.072 241.5 26.072C240.172 26.072 239.18 25.856 238.524 25.424C237.868 24.976 237.532 24.144 237.516 22.928V16.496C237.516 16.416 237.476 16.376 237.396 16.376H236.028C235.948 16.376 235.876 16.352 235.812 16.304C235.764 16.24 235.74 16.168 235.74 16.088V13.952C235.74 13.872 235.764 13.808 235.812 13.76C235.876 13.696 235.948 13.664 236.028 13.664H237.396C237.476 13.664 237.516 13.624 237.516 13.544V10.688C237.516 10.608 237.54 10.544 237.588 10.496C237.652 10.432 237.724 10.4 237.804 10.4H240.492C240.572 10.4 240.636 10.432 240.684 10.496C240.748 10.544 240.78 10.608 240.78 10.688V13.544C240.78 13.624 240.82 13.664 240.9 13.664H243.204C243.284 13.664 243.348 13.696 243.396 13.76C243.46 13.808 243.492 13.872 243.492 13.952V16.088ZM250.449 13.472C251.489 13.472 252.417 13.656 253.233 14.024C254.049 14.376 254.681 14.864 255.129 15.488C255.593 16.112 255.825 16.808 255.825 17.576V25.712C255.825 25.792 255.793 25.864 255.729 25.928C255.681 25.976 255.617 26 255.537 26H252.729C252.649 26 252.577 25.976 252.513 25.928C252.465 25.864 252.441 25.792 252.441 25.712V24.92C252.441 24.872 252.425 24.84 252.393 24.824C252.361 24.808 252.329 24.824 252.297 24.872C251.625 25.752 250.545 26.192 249.057 26.192C247.809 26.192 246.801 25.888 246.033 25.28C245.265 24.672 244.881 23.776 244.881 22.592C244.881 21.36 245.313 20.408 246.177 19.736C247.041 19.048 248.273 18.704 249.873 18.704H252.321C252.401 18.704 252.441 18.664 252.441 18.584V18.056C252.441 17.528 252.281 17.12 251.961 16.832C251.641 16.528 251.161 16.376 250.521 16.376C250.025 16.376 249.609 16.464 249.273 16.64C248.953 16.816 248.745 17.064 248.649 17.384C248.601 17.56 248.497 17.64 248.337 17.624L245.433 17.24C245.241 17.208 245.153 17.136 245.169 17.024C245.233 16.352 245.497 15.744 245.961 15.2C246.441 14.656 247.065 14.232 247.833 13.928C248.617 13.624 249.489 13.472 250.449 13.472ZM249.969 23.672C250.657 23.672 251.241 23.488 251.721 23.12C252.201 22.752 252.441 22.28 252.441 21.704V20.84C252.441 20.76 252.401 20.72 252.321 20.72H250.593C249.873 20.72 249.305 20.856 248.889 21.128C248.489 21.4 248.289 21.784 248.289 22.28C248.289 22.712 248.441 23.056 248.745 23.312C249.049 23.552 249.457 23.672 249.969 23.672ZM265.865 9.488C265.865 9.408 265.889 9.344 265.937 9.296C266.001 9.232 266.073 9.2 266.153 9.2H268.961C269.041 9.2 269.105 9.232 269.153 9.296C269.217 9.344 269.249 9.408 269.249 9.488V25.712C269.249 25.792 269.217 25.864 269.153 25.928C269.105 25.976 269.041 26 268.961 26H266.153C266.073 26 266.001 25.976 265.937 25.928C265.889 25.864 265.865 25.792 265.865 25.712V24.92C265.865 24.872 265.849 24.848 265.817 24.848C265.785 24.832 265.753 24.84 265.721 24.872C265.049 25.752 264.129 26.192 262.961 26.192C261.841 26.192 260.873 25.88 260.057 25.256C259.257 24.632 258.681 23.776 258.329 22.688C258.057 21.856 257.921 20.888 257.921 19.784C257.921 18.648 258.065 17.656 258.353 16.808C258.721 15.784 259.297 14.976 260.081 14.384C260.881 13.776 261.865 13.472 263.033 13.472C264.185 13.472 265.081 13.872 265.721 14.672C265.753 14.72 265.785 14.736 265.817 14.72C265.849 14.704 265.865 14.672 265.865 14.624V9.488ZM265.361 22.256C265.681 21.664 265.841 20.856 265.841 19.832C265.841 18.76 265.665 17.92 265.313 17.312C264.945 16.688 264.409 16.376 263.705 16.376C262.953 16.376 262.385 16.688 262.001 17.312C261.601 17.936 261.401 18.784 261.401 19.856C261.401 20.816 261.569 21.616 261.905 22.256C262.305 22.944 262.897 23.288 263.681 23.288C264.401 23.288 264.961 22.944 265.361 22.256ZM277.251 26.192C275.907 26.192 274.755 25.84 273.795 25.136C272.835 24.432 272.179 23.472 271.827 22.256C271.603 21.504 271.491 20.688 271.491 19.808C271.491 18.864 271.603 18.016 271.827 17.264C272.195 16.08 272.859 15.152 273.819 14.48C274.779 13.808 275.931 13.472 277.275 13.472C278.587 13.472 279.707 13.808 280.635 14.48C281.563 15.136 282.219 16.056 282.603 17.24C282.859 18.04 282.987 18.88 282.987 19.76C282.987 20.624 282.875 21.432 282.651 22.184C282.299 23.432 281.643 24.416 280.683 25.136C279.739 25.84 278.595 26.192 277.251 26.192ZM277.251 23.288C277.779 23.288 278.227 23.128 278.595 22.808C278.963 22.488 279.227 22.048 279.387 21.488C279.515 20.976 279.579 20.416 279.579 19.808C279.579 19.136 279.515 18.568 279.387 18.104C279.211 17.56 278.939 17.136 278.571 16.832C278.203 16.528 277.755 16.376 277.227 16.376C276.683 16.376 276.227 16.528 275.859 16.832C275.507 17.136 275.251 17.56 275.091 18.104C274.963 18.488 274.899 19.056 274.899 19.808C274.899 20.528 274.955 21.088 275.067 21.488C275.227 22.048 275.491 22.488 275.859 22.808C276.243 23.128 276.707 23.288 277.251 23.288ZM290.082 26.168C289.01 26.168 288.074 26.016 287.274 25.712C286.474 25.408 285.85 24.984 285.402 24.44C284.97 23.896 284.754 23.28 284.754 22.592V22.352C284.754 22.272 284.778 22.208 284.826 22.16C284.89 22.096 284.962 22.064 285.042 22.064H287.706C287.786 22.064 287.85 22.096 287.898 22.16C287.962 22.208 287.994 22.272 287.994 22.352V22.376C287.994 22.728 288.186 23.032 288.57 23.288C288.97 23.528 289.466 23.648 290.058 23.648C290.602 23.648 291.042 23.544 291.378 23.336C291.714 23.112 291.882 22.84 291.882 22.52C291.882 22.232 291.738 22.016 291.45 21.872C291.162 21.728 290.69 21.576 290.034 21.416C289.282 21.224 288.69 21.04 288.258 20.864C287.234 20.512 286.418 20.08 285.81 19.568C285.202 19.056 284.898 18.32 284.898 17.36C284.898 16.176 285.354 15.24 286.266 14.552C287.194 13.848 288.418 13.496 289.938 13.496C290.962 13.496 291.858 13.664 292.626 14C293.394 14.32 293.986 14.776 294.402 15.368C294.834 15.96 295.05 16.632 295.05 17.384C295.05 17.464 295.018 17.536 294.954 17.6C294.906 17.648 294.842 17.672 294.762 17.672H292.194C292.114 17.672 292.042 17.648 291.978 17.6C291.93 17.536 291.906 17.464 291.906 17.384C291.906 17.032 291.722 16.736 291.354 16.496C291.002 16.256 290.53 16.136 289.938 16.136C289.41 16.136 288.978 16.232 288.642 16.424C288.306 16.616 288.138 16.88 288.138 17.216C288.138 17.536 288.298 17.776 288.618 17.936C288.954 18.096 289.506 18.264 290.274 18.44C290.45 18.488 290.65 18.544 290.874 18.608C291.098 18.656 291.338 18.72 291.594 18.8C292.73 19.136 293.626 19.568 294.282 20.096C294.938 20.624 295.266 21.392 295.266 22.4C295.266 23.584 294.794 24.512 293.85 25.184C292.922 25.84 291.666 26.168 290.082 26.168Z" fill="#2C3447"/>
<path d="M8.94944 55.96C8.94944 55.8533 9.00277 55.8 9.10944 55.8H9.92544C10.0321 55.8 10.0854 55.8533 10.0854 55.96V66.84C10.0854 66.9467 10.0321 67 9.92544 67H9.12544C9.05077 67 8.98677 66.9627 8.93344 66.888L3.47744 58.008C3.46677 57.976 3.45077 57.9653 3.42944 57.976C3.4081 57.976 3.39744 57.992 3.39744 58.024L3.41344 66.84C3.41344 66.9467 3.3601 67 3.25344 67H2.43744C2.33077 67 2.27744 66.9467 2.27744 66.84V55.96C2.27744 55.8533 2.33077 55.8 2.43744 55.8H3.23744C3.3121 55.8 3.3761 55.8373 3.42944 55.912L8.88544 64.792C8.8961 64.824 8.9121 64.84 8.93344 64.84C8.95477 64.8293 8.96544 64.808 8.96544 64.776L8.94944 55.96ZM15.9539 67.128C15.1859 67.128 14.5246 66.9307 13.9699 66.536C13.4153 66.1413 13.0313 65.5973 12.8179 64.904C12.6686 64.4133 12.5939 63.7573 12.5939 62.936C12.5939 62.1147 12.6686 61.464 12.8179 60.984C13.0206 60.3013 13.3993 59.7627 13.9539 59.368C14.5086 58.9733 15.1806 58.776 15.9699 58.776C16.7273 58.776 17.3779 58.9733 17.9219 59.368C18.4766 59.7627 18.8553 60.296 19.0579 60.968C19.2073 61.4267 19.2819 62.0827 19.2819 62.936C19.2819 63.8 19.2073 64.456 19.0579 64.904C18.8553 65.5973 18.4766 66.1413 17.9219 66.536C17.3779 66.9307 16.7219 67.128 15.9539 67.128ZM15.9539 66.136C16.4659 66.136 16.9033 65.9973 17.2659 65.72C17.6286 65.432 17.8739 65.048 18.0019 64.568C18.0979 64.184 18.1459 63.6453 18.1459 62.952C18.1459 62.248 18.1033 61.7093 18.0179 61.336C17.8899 60.856 17.6393 60.4773 17.2659 60.2C16.9033 59.912 16.4606 59.768 15.9379 59.768C15.4153 59.768 14.9726 59.912 14.6099 60.2C14.2473 60.4773 14.0019 60.856 13.8739 61.336C13.7886 61.7093 13.7459 62.248 13.7459 62.952C13.7459 63.656 13.7886 64.1947 13.8739 64.568C13.9913 65.048 14.2313 65.432 14.5939 65.72C14.9673 65.9973 15.4206 66.136 15.9539 66.136ZM27.4438 67.08C26.8465 67.08 26.3131 66.984 25.8438 66.792C25.3851 66.6 25.0278 66.344 24.7718 66.024C24.5265 65.704 24.4038 65.3467 24.4038 64.952V64.76C24.4038 64.6533 24.4571 64.6 24.5638 64.6H25.3318C25.4385 64.6 25.4918 64.6533 25.4918 64.76V64.888C25.4918 65.24 25.6731 65.5493 26.0358 65.816C26.4091 66.072 26.8731 66.2 27.4278 66.2C27.9825 66.2 28.4305 66.0773 28.7718 65.832C29.1131 65.576 29.2838 65.256 29.2838 64.872C29.2838 64.6053 29.1931 64.3867 29.0118 64.216C28.8411 64.0453 28.6331 63.912 28.3878 63.816C28.1531 63.72 27.7851 63.5973 27.2838 63.448C26.6865 63.2773 26.1958 63.1067 25.8118 62.936C25.4278 62.7653 25.1025 62.5307 24.8358 62.232C24.5798 61.9227 24.4518 61.5333 24.4518 61.064C24.4518 60.3813 24.7185 59.8373 25.2518 59.432C25.7851 59.0267 26.4891 58.824 27.3638 58.824C27.9505 58.824 28.4678 58.92 28.9158 59.112C29.3745 59.304 29.7265 59.5707 29.9718 59.912C30.2171 60.2427 30.3398 60.616 30.3398 61.032V61.08C30.3398 61.1867 30.2865 61.24 30.1798 61.24H29.4278C29.3211 61.24 29.2678 61.1867 29.2678 61.08V61.032C29.2678 60.6693 29.0918 60.3653 28.7398 60.12C28.3985 59.8747 27.9345 59.752 27.3478 59.752C26.8038 59.752 26.3665 59.864 26.0358 60.088C25.7051 60.3013 25.5398 60.6 25.5398 60.984C25.5398 61.3467 25.6998 61.624 26.0198 61.816C26.3398 62.008 26.8358 62.2 27.5078 62.392C28.1265 62.5733 28.6278 62.744 29.0118 62.904C29.3958 63.064 29.7265 63.2987 30.0038 63.608C30.2811 63.9067 30.4198 64.3013 30.4198 64.792C30.4198 65.4853 30.1478 66.04 29.6038 66.456C29.0598 66.872 28.3398 67.08 27.4438 67.08ZM38.6989 61.592C38.7416 61.8907 38.7629 62.264 38.7629 62.712V63.224C38.7629 63.3307 38.7096 63.384 38.6029 63.384H33.4349C33.3923 63.384 33.3709 63.4053 33.3709 63.448C33.3923 64.0347 33.4243 64.4133 33.4669 64.584C33.5843 65.064 33.8349 65.4427 34.2189 65.72C34.6029 65.9973 35.0936 66.136 35.6909 66.136C36.1389 66.136 36.5336 66.0347 36.8749 65.832C37.2163 65.6293 37.4829 65.3413 37.6749 64.968C37.7389 64.872 37.8136 64.8507 37.8989 64.904L38.5229 65.272C38.6083 65.3253 38.6296 65.4 38.5869 65.496C38.3203 66.008 37.9203 66.4133 37.3869 66.712C36.8536 67 36.2403 67.144 35.5469 67.144C34.7896 67.1333 34.1549 66.952 33.6429 66.6C33.1309 66.248 32.7629 65.7573 32.5389 65.128C32.3469 64.616 32.2509 63.88 32.2509 62.92C32.2509 62.472 32.2563 62.1093 32.2669 61.832C32.2883 61.544 32.3309 61.288 32.3949 61.064C32.5763 60.3707 32.9389 59.816 33.4829 59.4C34.0376 58.984 34.7043 58.776 35.4829 58.776C36.4536 58.776 37.2003 59.0213 37.7229 59.512C38.2456 60.0027 38.5709 60.696 38.6989 61.592ZM35.4829 59.768C34.9603 59.768 34.5229 59.9067 34.1709 60.184C33.8296 60.4507 33.6056 60.8133 33.4989 61.272C33.4349 61.496 33.3923 61.8587 33.3709 62.36C33.3709 62.4027 33.3923 62.424 33.4349 62.424H37.5789C37.6216 62.424 37.6429 62.4027 37.6429 62.36C37.6216 61.88 37.5896 61.5387 37.5469 61.336C37.4296 60.856 37.1896 60.4773 36.8269 60.2C36.4749 59.912 36.0269 59.768 35.4829 59.768ZM47.5853 58.792C48.4386 58.792 49.116 59.0427 49.6173 59.544C50.1293 60.0453 50.3853 60.7173 50.3853 61.56V66.84C50.3853 66.9467 50.332 67 50.2253 67H49.4093C49.3026 67 49.2493 66.9467 49.2493 66.84V61.784C49.2493 61.1973 49.068 60.7173 48.7053 60.344C48.3533 59.9707 47.8946 59.784 47.3293 59.784C46.7426 59.784 46.268 59.9653 45.9053 60.328C45.5426 60.6907 45.3613 61.1653 45.3613 61.752V66.84C45.3613 66.9467 45.308 67 45.2013 67H44.3853C44.2786 67 44.2253 66.9467 44.2253 66.84V55.96C44.2253 55.8533 44.2786 55.8 44.3853 55.8H45.2013C45.308 55.8 45.3613 55.8533 45.3613 55.96V59.752C45.3613 59.7733 45.3666 59.7893 45.3773 59.8C45.3986 59.8107 45.4146 59.8053 45.4253 59.784C45.8946 59.1227 46.6146 58.792 47.5853 58.792ZM55.6503 58.776C56.6103 58.776 57.3516 59.0213 57.8743 59.512C58.397 60.0027 58.6583 60.6533 58.6583 61.464V66.84C58.6583 66.9467 58.605 67 58.4983 67H57.6823C57.5756 67 57.5223 66.9467 57.5223 66.84V66.184C57.5223 66.1627 57.5116 66.1467 57.4903 66.136C57.4796 66.1253 57.4636 66.1307 57.4423 66.152C57.1756 66.472 56.829 66.7173 56.4023 66.888C55.9756 67.048 55.501 67.128 54.9783 67.128C54.221 67.128 53.5863 66.936 53.0743 66.552C52.5623 66.168 52.3063 65.5813 52.3063 64.792C52.3063 63.992 52.5943 63.3627 53.1703 62.904C53.757 62.4347 54.5676 62.2 55.6023 62.2H57.4583C57.501 62.2 57.5223 62.1787 57.5223 62.136V61.528C57.5223 60.984 57.3676 60.5573 57.0583 60.248C56.7596 59.928 56.2903 59.768 55.6503 59.768C55.1383 59.768 54.7223 59.8693 54.4023 60.072C54.0823 60.264 53.885 60.536 53.8103 60.888C53.7783 60.9947 53.7143 61.0427 53.6183 61.032L52.7543 60.92C52.637 60.8987 52.589 60.856 52.6103 60.792C52.6956 60.1947 53.0156 59.7093 53.5703 59.336C54.125 58.9627 54.8183 58.776 55.6503 58.776ZM55.2023 66.152C55.8316 66.152 56.3756 65.9973 56.8343 65.688C57.293 65.368 57.5223 64.9413 57.5223 64.408V63.16C57.5223 63.1173 57.501 63.096 57.4583 63.096H55.7783C55.0743 63.096 54.509 63.24 54.0823 63.528C53.6556 63.816 53.4423 64.216 53.4423 64.728C53.4423 65.1973 53.6023 65.5547 53.9223 65.8C54.253 66.0347 54.6796 66.152 55.2023 66.152ZM70.5133 60.92C70.6733 61.432 70.7533 62.1093 70.7533 62.952C70.7533 63.8053 70.684 64.4667 70.5453 64.936C70.3533 65.6187 70.0013 66.1573 69.4893 66.552C68.988 66.936 68.3533 67.128 67.5853 67.128C67.1693 67.128 66.7853 67.048 66.4333 66.888C66.0813 66.7173 65.788 66.4773 65.5533 66.168C65.532 66.1467 65.5106 66.1413 65.4893 66.152C65.4786 66.152 65.4733 66.1627 65.4733 66.184V69.944C65.4733 70.0507 65.42 70.104 65.3133 70.104H64.4973C64.3906 70.104 64.3373 70.0507 64.3373 69.944V59.064C64.3373 58.9573 64.3906 58.904 64.4973 58.904H65.3133C65.42 58.904 65.4733 58.9573 65.4733 59.064V59.736C65.4733 59.7573 65.4786 59.7733 65.4893 59.784C65.5106 59.784 65.532 59.7733 65.5533 59.752C65.788 59.4427 66.076 59.2027 66.4173 59.032C66.7693 58.8613 67.1586 58.776 67.5853 58.776C68.332 58.776 68.956 58.968 69.4573 59.352C69.9693 59.736 70.3213 60.2587 70.5133 60.92ZM69.2493 64.968C69.3666 64.7333 69.452 64.472 69.5053 64.184C69.5693 63.8853 69.6013 63.4747 69.6013 62.952C69.6013 62.4507 69.58 62.0613 69.5373 61.784C69.4946 61.496 69.42 61.24 69.3133 61.016C69.1853 60.632 68.956 60.328 68.6253 60.104C68.3053 59.88 67.9213 59.768 67.4733 59.768C67.0466 59.768 66.6893 59.88 66.4013 60.104C66.1133 60.328 65.9 60.6267 65.7613 61C65.6653 61.2133 65.596 61.464 65.5533 61.752C65.5106 62.04 65.4893 62.44 65.4893 62.952C65.4893 63.464 65.5106 63.8693 65.5533 64.168C65.596 64.456 65.6706 64.712 65.7773 64.936C65.9053 65.2987 66.1133 65.592 66.4013 65.816C66.7 66.0293 67.052 66.136 67.4573 66.136C67.884 66.136 68.252 66.0293 68.5613 65.816C68.8813 65.6027 69.1106 65.32 69.2493 64.968ZM76.0321 67.128C75.2641 67.128 74.6027 66.9307 74.0481 66.536C73.4934 66.1413 73.1094 65.5973 72.8961 64.904C72.7467 64.4133 72.6721 63.7573 72.6721 62.936C72.6721 62.1147 72.7467 61.464 72.8961 60.984C73.0987 60.3013 73.4774 59.7627 74.0321 59.368C74.5867 58.9733 75.2587 58.776 76.0481 58.776C76.8054 58.776 77.4561 58.9733 78.0001 59.368C78.5547 59.7627 78.9334 60.296 79.1361 60.968C79.2854 61.4267 79.3601 62.0827 79.3601 62.936C79.3601 63.8 79.2854 64.456 79.1361 64.904C78.9334 65.5973 78.5547 66.1413 78.0001 66.536C77.4561 66.9307 76.8001 67.128 76.0321 67.128ZM76.0321 66.136C76.5441 66.136 76.9814 65.9973 77.3441 65.72C77.7067 65.432 77.9521 65.048 78.0801 64.568C78.1761 64.184 78.2241 63.6453 78.2241 62.952C78.2241 62.248 78.1814 61.7093 78.0961 61.336C77.9681 60.856 77.7174 60.4773 77.3441 60.2C76.9814 59.912 76.5387 59.768 76.0161 59.768C75.4934 59.768 75.0507 59.912 74.6881 60.2C74.3254 60.4773 74.0801 60.856 73.9521 61.336C73.8667 61.7093 73.8241 62.248 73.8241 62.952C73.8241 63.656 73.8667 64.1947 73.9521 64.568C74.0694 65.048 74.3094 65.432 74.6721 65.72C75.0454 65.9973 75.4987 66.136 76.0321 66.136ZM86.6868 55.96C86.6868 55.8533 86.7401 55.8 86.8468 55.8H87.6628C87.7695 55.8 87.8228 55.8533 87.8228 55.96V66.84C87.8228 66.9467 87.7695 67 87.6628 67H86.8468C86.7401 67 86.6868 66.9467 86.6868 66.84V66.168C86.6868 66.1467 86.6761 66.136 86.6548 66.136C86.6441 66.1253 86.6281 66.1307 86.6068 66.152C86.3721 66.4613 86.0788 66.7013 85.7268 66.872C85.3855 67.0427 85.0015 67.128 84.5748 67.128C83.8281 67.128 83.1988 66.936 82.6868 66.552C82.1855 66.168 81.8388 65.6453 81.6468 64.984C81.4975 64.504 81.4228 63.8267 81.4228 62.952C81.4228 62.0667 81.4868 61.4053 81.6148 60.968C81.8068 60.2853 82.1588 59.752 82.6708 59.368C83.1828 58.9733 83.8175 58.776 84.5748 58.776C84.9908 58.776 85.3748 58.8613 85.7268 59.032C86.0788 59.192 86.3721 59.4267 86.6068 59.736C86.6281 59.7573 86.6441 59.768 86.6548 59.768C86.6761 59.7573 86.6868 59.7413 86.6868 59.72V55.96ZM86.3988 64.904C86.4948 64.6907 86.5641 64.44 86.6068 64.152C86.6495 63.864 86.6708 63.464 86.6708 62.952C86.6708 62.44 86.6495 62.04 86.6068 61.752C86.5641 61.4533 86.4895 61.192 86.3828 60.968C86.2548 60.6053 86.0415 60.3173 85.7428 60.104C85.4548 59.88 85.1081 59.768 84.7028 59.768C84.2761 59.768 83.9081 59.8747 83.5988 60.088C83.2895 60.3013 83.0655 60.584 82.9268 60.936C82.7988 61.1707 82.7028 61.4373 82.6388 61.736C82.5855 62.024 82.5588 62.4293 82.5588 62.952C82.5588 63.4533 82.5801 63.848 82.6228 64.136C82.6655 64.4133 82.7401 64.664 82.8468 64.888C82.9748 65.272 83.1988 65.576 83.5188 65.8C83.8495 66.024 84.2388 66.136 84.6868 66.136C85.1135 66.136 85.4708 66.024 85.7588 65.8C86.0468 65.576 86.2601 65.2773 86.3988 64.904ZM91.1652 57.432C90.9092 57.432 90.6959 57.3467 90.5252 57.176C90.3545 57.0053 90.2692 56.792 90.2692 56.536C90.2692 56.2693 90.3545 56.056 90.5252 55.896C90.6959 55.7253 90.9092 55.64 91.1652 55.64C91.4212 55.64 91.6345 55.7253 91.8052 55.896C91.9759 56.056 92.0612 56.2693 92.0612 56.536C92.0612 56.792 91.9759 57.0053 91.8052 57.176C91.6345 57.3467 91.4212 57.432 91.1652 57.432ZM90.7172 66.984C90.6105 66.984 90.5572 66.9307 90.5572 66.824V59.048C90.5572 58.9413 90.6105 58.888 90.7172 58.888H91.5332C91.6399 58.888 91.6932 58.9413 91.6932 59.048V66.824C91.6932 66.9307 91.6399 66.984 91.5332 66.984H90.7172ZM99.4993 55.96C99.4993 55.8533 99.5526 55.8 99.6593 55.8H100.475C100.582 55.8 100.635 55.8533 100.635 55.96V66.84C100.635 66.9467 100.582 67 100.475 67H99.6593C99.5526 67 99.4993 66.9467 99.4993 66.84V66.168C99.4993 66.1467 99.4886 66.136 99.4673 66.136C99.4566 66.1253 99.4406 66.1307 99.4193 66.152C99.1846 66.4613 98.8913 66.7013 98.5393 66.872C98.198 67.0427 97.814 67.128 97.3873 67.128C96.6406 67.128 96.0113 66.936 95.4993 66.552C94.998 66.168 94.6513 65.6453 94.4593 64.984C94.31 64.504 94.2353 63.8267 94.2353 62.952C94.2353 62.0667 94.2993 61.4053 94.4273 60.968C94.6193 60.2853 94.9713 59.752 95.4833 59.368C95.9953 58.9733 96.63 58.776 97.3873 58.776C97.8033 58.776 98.1873 58.8613 98.5393 59.032C98.8913 59.192 99.1846 59.4267 99.4193 59.736C99.4406 59.7573 99.4566 59.768 99.4673 59.768C99.4886 59.7573 99.4993 59.7413 99.4993 59.72V55.96ZM99.2113 64.904C99.3073 64.6907 99.3766 64.44 99.4193 64.152C99.462 63.864 99.4833 63.464 99.4833 62.952C99.4833 62.44 99.462 62.04 99.4193 61.752C99.3766 61.4533 99.302 61.192 99.1953 60.968C99.0673 60.6053 98.854 60.3173 98.5553 60.104C98.2673 59.88 97.9206 59.768 97.5153 59.768C97.0886 59.768 96.7206 59.8747 96.4113 60.088C96.102 60.3013 95.878 60.584 95.7393 60.936C95.6113 61.1707 95.5153 61.4373 95.4513 61.736C95.398 62.024 95.3713 62.4293 95.3713 62.952C95.3713 63.4533 95.3926 63.848 95.4353 64.136C95.478 64.4133 95.5526 64.664 95.6593 64.888C95.7873 65.272 96.0113 65.576 96.3313 65.8C96.662 66.024 97.0513 66.136 97.4993 66.136C97.926 66.136 98.2833 66.024 98.5713 65.8C98.8593 65.576 99.0726 65.2773 99.2113 64.904ZM106.298 67.128C105.53 67.128 104.868 66.9307 104.314 66.536C103.759 66.1413 103.375 65.5973 103.162 64.904C103.012 64.4133 102.938 63.7573 102.938 62.936C102.938 62.1147 103.012 61.464 103.162 60.984C103.364 60.3013 103.743 59.7627 104.298 59.368C104.852 58.9733 105.524 58.776 106.314 58.776C107.071 58.776 107.722 58.9733 108.266 59.368C108.82 59.7627 109.199 60.296 109.402 60.968C109.551 61.4267 109.626 62.0827 109.626 62.936C109.626 63.8 109.551 64.456 109.402 64.904C109.199 65.5973 108.82 66.1413 108.266 66.536C107.722 66.9307 107.066 67.128 106.298 67.128ZM106.298 66.136C106.81 66.136 107.247 65.9973 107.61 65.72C107.972 65.432 108.218 65.048 108.346 64.568C108.442 64.184 108.49 63.6453 108.49 62.952C108.49 62.248 108.447 61.7093 108.362 61.336C108.234 60.856 107.983 60.4773 107.61 60.2C107.247 59.912 106.804 59.768 106.282 59.768C105.759 59.768 105.316 59.912 104.954 60.2C104.591 60.4773 104.346 60.856 104.218 61.336C104.132 61.7093 104.09 62.248 104.09 62.952C104.09 63.656 104.132 64.1947 104.218 64.568C104.335 65.048 104.575 65.432 104.938 65.72C105.311 65.9973 105.764 66.136 106.298 66.136ZM121.34 61.592C121.382 61.8907 121.404 62.264 121.404 62.712V63.224C121.404 63.3307 121.35 63.384 121.244 63.384H116.076C116.033 63.384 116.012 63.4053 116.012 63.448C116.033 64.0347 116.065 64.4133 116.108 64.584C116.225 65.064 116.476 65.4427 116.86 65.72C117.244 65.9973 117.734 66.136 118.332 66.136C118.78 66.136 119.174 66.0347 119.516 65.832C119.857 65.6293 120.124 65.3413 120.316 64.968C120.38 64.872 120.454 64.8507 120.54 64.904L121.164 65.272C121.249 65.3253 121.27 65.4 121.228 65.496C120.961 66.008 120.561 66.4133 120.028 66.712C119.494 67 118.881 67.144 118.188 67.144C117.43 67.1333 116.796 66.952 116.284 66.6C115.772 66.248 115.404 65.7573 115.18 65.128C114.988 64.616 114.892 63.88 114.892 62.92C114.892 62.472 114.897 62.1093 114.908 61.832C114.929 61.544 114.972 61.288 115.036 61.064C115.217 60.3707 115.58 59.816 116.124 59.4C116.678 58.984 117.345 58.776 118.124 58.776C119.094 58.776 119.841 59.0213 120.364 59.512C120.886 60.0027 121.212 60.696 121.34 61.592ZM118.124 59.768C117.601 59.768 117.164 59.9067 116.812 60.184C116.47 60.4507 116.246 60.8133 116.14 61.272C116.076 61.496 116.033 61.8587 116.012 62.36C116.012 62.4027 116.033 62.424 116.076 62.424H120.22C120.262 62.424 120.284 62.4027 120.284 62.36C120.262 61.88 120.23 61.5387 120.188 61.336C120.07 60.856 119.83 60.4773 119.468 60.2C119.116 59.912 118.668 59.768 118.124 59.768ZM127.023 58.792C127.876 58.792 128.553 59.0427 129.055 59.544C129.567 60.0453 129.823 60.7173 129.823 61.56V66.84C129.823 66.9467 129.769 67 129.663 67H128.847C128.74 67 128.687 66.9467 128.687 66.84V61.784C128.687 61.1973 128.505 60.7173 128.143 60.344C127.791 59.9707 127.332 59.784 126.767 59.784C126.18 59.784 125.705 59.9653 125.343 60.328C124.98 60.6907 124.799 61.1653 124.799 61.752V66.84C124.799 66.9467 124.745 67 124.639 67H123.823C123.716 67 123.663 66.9467 123.663 66.84V59.064C123.663 58.9573 123.716 58.904 123.823 58.904H124.639C124.745 58.904 124.799 58.9573 124.799 59.064V59.752C124.799 59.7733 124.804 59.7893 124.815 59.8C124.836 59.8107 124.852 59.8053 124.863 59.784C125.332 59.1227 126.052 58.792 127.023 58.792ZM135.234 67.128C134.466 67.128 133.805 66.9307 133.25 66.536C132.706 66.1307 132.333 65.5867 132.13 64.904C131.992 64.4347 131.922 63.7733 131.922 62.92C131.922 62.152 131.992 61.5013 132.13 60.968C132.322 60.3067 132.696 59.7787 133.25 59.384C133.805 58.9787 134.466 58.776 135.234 58.776C136.013 58.776 136.685 58.9733 137.25 59.368C137.826 59.7627 138.2 60.2533 138.37 60.84C138.424 61.032 138.456 61.192 138.466 61.32V61.352C138.466 61.4267 138.418 61.4747 138.322 61.496L137.522 61.608H137.49C137.416 61.608 137.368 61.56 137.346 61.464L137.298 61.224C137.202 60.8187 136.968 60.4773 136.594 60.2C136.221 59.912 135.768 59.768 135.234 59.768C134.701 59.768 134.253 59.912 133.89 60.2C133.538 60.4773 133.309 60.8507 133.202 61.32C133.106 61.7253 133.058 62.264 133.058 62.936C133.058 63.64 133.106 64.184 133.202 64.568C133.309 65.048 133.538 65.432 133.89 65.72C134.253 65.9973 134.701 66.136 135.234 66.136C135.757 66.136 136.205 66.0027 136.578 65.736C136.962 65.4587 137.202 65.1067 137.298 64.68V64.616L137.314 64.552C137.325 64.4453 137.389 64.4027 137.506 64.424L138.29 64.552C138.397 64.5733 138.445 64.632 138.434 64.728L138.37 65.048C138.21 65.6667 137.842 66.168 137.266 66.552C136.69 66.936 136.013 67.128 135.234 67.128ZM143.532 67.128C142.764 67.128 142.103 66.9307 141.548 66.536C140.993 66.1413 140.609 65.5973 140.396 64.904C140.247 64.4133 140.172 63.7573 140.172 62.936C140.172 62.1147 140.247 61.464 140.396 60.984C140.599 60.3013 140.977 59.7627 141.532 59.368C142.087 58.9733 142.759 58.776 143.548 58.776C144.305 58.776 144.956 58.9733 145.5 59.368C146.055 59.7627 146.433 60.296 146.636 60.968C146.785 61.4267 146.86 62.0827 146.86 62.936C146.86 63.8 146.785 64.456 146.636 64.904C146.433 65.5973 146.055 66.1413 145.5 66.536C144.956 66.9307 144.3 67.128 143.532 67.128ZM143.532 66.136C144.044 66.136 144.481 65.9973 144.844 65.72C145.207 65.432 145.452 65.048 145.58 64.568C145.676 64.184 145.724 63.6453 145.724 62.952C145.724 62.248 145.681 61.7093 145.596 61.336C145.468 60.856 145.217 60.4773 144.844 60.2C144.481 59.912 144.039 59.768 143.516 59.768C142.993 59.768 142.551 59.912 142.188 60.2C141.825 60.4773 141.58 60.856 141.452 61.336C141.367 61.7093 141.324 62.248 141.324 62.952C141.324 63.656 141.367 64.1947 141.452 64.568C141.569 65.048 141.809 65.432 142.172 65.72C142.545 65.9973 142.999 66.136 143.532 66.136ZM152.523 58.792C153.376 58.792 154.053 59.0427 154.555 59.544C155.067 60.0453 155.323 60.7173 155.323 61.56V66.84C155.323 66.9467 155.269 67 155.163 67H154.347C154.24 67 154.187 66.9467 154.187 66.84V61.784C154.187 61.1973 154.005 60.7173 153.643 60.344C153.291 59.9707 152.832 59.784 152.267 59.784C151.68 59.784 151.205 59.9653 150.843 60.328C150.48 60.6907 150.299 61.1653 150.299 61.752V66.84C150.299 66.9467 150.245 67 150.139 67H149.323C149.216 67 149.163 66.9467 149.163 66.84V59.064C149.163 58.9573 149.216 58.904 149.323 58.904H150.139C150.245 58.904 150.299 58.9573 150.299 59.064V59.752C150.299 59.7733 150.304 59.7893 150.315 59.8C150.336 59.8107 150.352 59.8053 150.363 59.784C150.832 59.1227 151.552 58.792 152.523 58.792ZM161.42 59.688C161.42 59.7947 161.366 59.848 161.26 59.848H159.452C159.409 59.848 159.388 59.8693 159.388 59.912V64.632C159.388 65.144 159.5 65.5067 159.724 65.72C159.958 65.9227 160.321 66.024 160.812 66.024H161.212C161.318 66.024 161.372 66.0773 161.372 66.184V66.84C161.372 66.9467 161.318 67 161.212 67C161.084 67.0107 160.886 67.016 160.62 67.016C159.852 67.016 159.27 66.872 158.876 66.584C158.481 66.296 158.284 65.7627 158.284 64.984V59.912C158.284 59.8693 158.262 59.848 158.22 59.848H157.244C157.137 59.848 157.084 59.7947 157.084 59.688V59.064C157.084 58.9573 157.137 58.904 157.244 58.904H158.22C158.262 58.904 158.284 58.8827 158.284 58.84V56.984C158.284 56.8773 158.337 56.824 158.444 56.824H159.228C159.334 56.824 159.388 56.8773 159.388 56.984V58.84C159.388 58.8827 159.409 58.904 159.452 58.904H161.26C161.366 58.904 161.42 58.9573 161.42 59.064V59.688ZM166.88 58.824C167.232 58.824 167.536 58.8933 167.792 59.032C167.877 59.0747 167.909 59.144 167.888 59.24L167.712 60.024C167.68 60.1307 167.611 60.1627 167.504 60.12C167.323 60.0453 167.115 60.008 166.88 60.008L166.672 60.024C166.117 60.0453 165.659 60.2533 165.296 60.648C164.933 61.032 164.752 61.5227 164.752 62.12V66.84C164.752 66.9467 164.699 67 164.592 67H163.776C163.669 67 163.616 66.9467 163.616 66.84V59.064C163.616 58.9573 163.669 58.904 163.776 58.904H164.592C164.699 58.904 164.752 58.9573 164.752 59.064V60.04C164.752 60.072 164.757 60.0933 164.768 60.104C164.789 60.104 164.805 60.0933 164.816 60.072C165.04 59.6773 165.323 59.3733 165.664 59.16C166.016 58.936 166.421 58.824 166.88 58.824ZM172.213 58.776C173.173 58.776 173.914 59.0213 174.437 59.512C174.959 60.0027 175.221 60.6533 175.221 61.464V66.84C175.221 66.9467 175.167 67 175.061 67H174.245C174.138 67 174.085 66.9467 174.085 66.84V66.184C174.085 66.1627 174.074 66.1467 174.053 66.136C174.042 66.1253 174.026 66.1307 174.005 66.152C173.738 66.472 173.391 66.7173 172.965 66.888C172.538 67.048 172.063 67.128 171.541 67.128C170.783 67.128 170.149 66.936 169.637 66.552C169.125 66.168 168.869 65.5813 168.869 64.792C168.869 63.992 169.157 63.3627 169.733 62.904C170.319 62.4347 171.13 62.2 172.165 62.2H174.021C174.063 62.2 174.085 62.1787 174.085 62.136V61.528C174.085 60.984 173.93 60.5573 173.621 60.248C173.322 59.928 172.853 59.768 172.213 59.768C171.701 59.768 171.285 59.8693 170.965 60.072C170.645 60.264 170.447 60.536 170.373 60.888C170.341 60.9947 170.277 61.0427 170.181 61.032L169.317 60.92C169.199 60.8987 169.151 60.856 169.173 60.792C169.258 60.1947 169.578 59.7093 170.133 59.336C170.687 58.9627 171.381 58.776 172.213 58.776ZM171.765 66.152C172.394 66.152 172.938 65.9973 173.397 65.688C173.855 65.368 174.085 64.9413 174.085 64.408V63.16C174.085 63.1173 174.063 63.096 174.021 63.096H172.341C171.637 63.096 171.071 63.24 170.645 63.528C170.218 63.816 170.005 64.216 170.005 64.728C170.005 65.1973 170.165 65.5547 170.485 65.8C170.815 66.0347 171.242 66.152 171.765 66.152ZM180.849 58.824C181.201 58.824 181.505 58.8933 181.761 59.032C181.846 59.0747 181.878 59.144 181.857 59.24L181.681 60.024C181.649 60.1307 181.579 60.1627 181.473 60.12C181.291 60.0453 181.083 60.008 180.849 60.008L180.641 60.024C180.086 60.0453 179.627 60.2533 179.265 60.648C178.902 61.032 178.721 61.5227 178.721 62.12V66.84C178.721 66.9467 178.667 67 178.561 67H177.745C177.638 67 177.585 66.9467 177.585 66.84V59.064C177.585 58.9573 177.638 58.904 177.745 58.904H178.561C178.667 58.904 178.721 58.9573 178.721 59.064V60.04C178.721 60.072 178.726 60.0933 178.737 60.104C178.758 60.104 178.774 60.0933 178.785 60.072C179.009 59.6773 179.291 59.3733 179.633 59.16C179.985 58.936 180.39 58.824 180.849 58.824ZM189.976 58.792C190.829 58.792 191.507 59.0427 192.008 59.544C192.52 60.0453 192.776 60.7173 192.776 61.56V66.84C192.776 66.9467 192.723 67 192.616 67H191.8C191.693 67 191.64 66.9467 191.64 66.84V61.784C191.64 61.1973 191.459 60.7173 191.096 60.344C190.744 59.9707 190.285 59.784 189.72 59.784C189.133 59.784 188.659 59.9653 188.296 60.328C187.933 60.6907 187.752 61.1653 187.752 61.752V66.84C187.752 66.9467 187.699 67 187.592 67H186.776C186.669 67 186.616 66.9467 186.616 66.84V59.064C186.616 58.9573 186.669 58.904 186.776 58.904H187.592C187.699 58.904 187.752 58.9573 187.752 59.064V59.752C187.752 59.7733 187.757 59.7893 187.768 59.8C187.789 59.8107 187.805 59.8053 187.816 59.784C188.285 59.1227 189.005 58.792 189.976 58.792ZM196.009 57.432C195.753 57.432 195.54 57.3467 195.369 57.176C195.198 57.0053 195.113 56.792 195.113 56.536C195.113 56.2693 195.198 56.056 195.369 55.896C195.54 55.7253 195.753 55.64 196.009 55.64C196.265 55.64 196.478 55.7253 196.649 55.896C196.82 56.056 196.905 56.2693 196.905 56.536C196.905 56.792 196.82 57.0053 196.649 57.176C196.478 57.3467 196.265 57.432 196.009 57.432ZM195.561 66.984C195.454 66.984 195.401 66.9307 195.401 66.824V59.048C195.401 58.9413 195.454 58.888 195.561 58.888H196.377C196.484 58.888 196.537 58.9413 196.537 59.048V66.824C196.537 66.9307 196.484 66.984 196.377 66.984H195.561ZM202.679 58.792C203.532 58.792 204.21 59.0427 204.711 59.544C205.223 60.0453 205.479 60.7173 205.479 61.56V66.84C205.479 66.9467 205.426 67 205.319 67H204.503C204.396 67 204.343 66.9467 204.343 66.84V61.784C204.343 61.1973 204.162 60.7173 203.799 60.344C203.447 59.9707 202.988 59.784 202.423 59.784C201.836 59.784 201.362 59.9653 200.999 60.328C200.636 60.6907 200.455 61.1653 200.455 61.752V66.84C200.455 66.9467 200.402 67 200.295 67H199.479C199.372 67 199.319 66.9467 199.319 66.84V59.064C199.319 58.9573 199.372 58.904 199.479 58.904H200.295C200.402 58.904 200.455 58.9573 200.455 59.064V59.752C200.455 59.7733 200.46 59.7893 200.471 59.8C200.492 59.8107 200.508 59.8053 200.519 59.784C200.988 59.1227 201.708 58.792 202.679 58.792ZM212.936 59.064C212.936 58.9573 212.989 58.904 213.096 58.904H213.912C214.019 58.904 214.072 58.9573 214.072 59.064V66.728C214.072 67.9227 213.725 68.7973 213.032 69.352C212.349 69.9067 211.405 70.184 210.2 70.184C209.955 70.184 209.768 70.1787 209.64 70.168C209.533 70.1573 209.48 70.0987 209.48 69.992L209.512 69.256C209.512 69.2027 209.528 69.16 209.56 69.128C209.592 69.1067 209.629 69.1013 209.672 69.112L210.104 69.128C211.096 69.128 211.816 68.9307 212.264 68.536C212.712 68.152 212.936 67.5387 212.936 66.696V66.104C212.936 66.0827 212.925 66.072 212.904 66.072C212.893 66.0613 212.877 66.0667 212.856 66.088C212.365 66.728 211.667 67.048 210.76 67.048C210.067 67.048 209.448 66.8613 208.904 66.488C208.371 66.1147 208.013 65.5867 207.832 64.904C207.704 64.4667 207.64 63.816 207.64 62.952C207.64 62.4827 207.651 62.088 207.672 61.768C207.704 61.448 207.763 61.16 207.848 60.904C208.04 60.264 208.387 59.752 208.888 59.368C209.389 58.9733 209.992 58.776 210.696 58.776C211.645 58.776 212.365 59.0907 212.856 59.72C212.877 59.7413 212.893 59.7467 212.904 59.736C212.925 59.7253 212.936 59.7093 212.936 59.688V59.064ZM212.856 64.552C212.888 64.392 212.909 64.1947 212.92 63.96C212.931 63.7253 212.936 63.384 212.936 62.936C212.936 62.392 212.931 62.0293 212.92 61.848C212.909 61.656 212.883 61.48 212.84 61.32C212.755 60.872 212.541 60.504 212.2 60.216C211.869 59.9173 211.448 59.768 210.936 59.768C210.435 59.768 210.008 59.912 209.656 60.2C209.315 60.488 209.075 60.8613 208.936 61.32C208.829 61.6613 208.776 62.1947 208.776 62.92C208.776 63.6987 208.829 64.2373 208.936 64.536C209.043 64.984 209.272 65.3573 209.624 65.656C209.987 65.944 210.424 66.088 210.936 66.088C211.459 66.088 211.885 65.944 212.216 65.656C212.557 65.368 212.771 65 212.856 64.552ZM221.403 59.064C221.403 58.9573 221.456 58.904 221.563 58.904H222.379C222.485 58.904 222.539 58.9573 222.539 59.064V66.84C222.539 66.9467 222.485 67 222.379 67H221.563C221.456 67 221.403 66.9467 221.403 66.84V66.152C221.403 66.1307 221.392 66.1147 221.371 66.104C221.349 66.0933 221.333 66.0987 221.323 66.12C220.875 66.7813 220.165 67.112 219.195 67.112C218.683 67.112 218.208 67.0107 217.771 66.808C217.344 66.5947 217.003 66.2907 216.747 65.896C216.501 65.5013 216.379 65.0267 216.379 64.472V59.064C216.379 58.9573 216.432 58.904 216.539 58.904H217.355C217.461 58.904 217.515 58.9573 217.515 59.064V64.136C217.515 64.744 217.685 65.2293 218.027 65.592C218.368 65.944 218.832 66.12 219.419 66.12C220.027 66.12 220.507 65.9387 220.859 65.576C221.221 65.2133 221.403 64.7333 221.403 64.136V59.064ZM219.003 57.848C218.939 57.848 218.896 57.832 218.875 57.8C218.853 57.7573 218.859 57.7093 218.891 57.656L219.851 55.912C219.883 55.8373 219.947 55.8 220.043 55.8H220.763C220.827 55.8 220.864 55.8213 220.875 55.864C220.896 55.896 220.891 55.9387 220.859 55.992L219.771 57.736C219.717 57.8107 219.653 57.848 219.579 57.848H219.003ZM228.492 58.792C229.345 58.792 230.022 59.0427 230.524 59.544C231.036 60.0453 231.292 60.7173 231.292 61.56V66.84C231.292 66.9467 231.238 67 231.132 67H230.316C230.209 67 230.156 66.9467 230.156 66.84V61.784C230.156 61.1973 229.974 60.7173 229.612 60.344C229.26 59.9707 228.801 59.784 228.236 59.784C227.649 59.784 227.174 59.9653 226.812 60.328C226.449 60.6907 226.268 61.1653 226.268 61.752V66.84C226.268 66.9467 226.214 67 226.108 67H225.292C225.185 67 225.132 66.9467 225.132 66.84V59.064C225.132 58.9573 225.185 58.904 225.292 58.904H226.108C226.214 58.904 226.268 58.9573 226.268 59.064V59.752C226.268 59.7733 226.273 59.7893 226.284 59.8C226.305 59.8107 226.321 59.8053 226.332 59.784C226.801 59.1227 227.521 58.792 228.492 58.792ZM243.184 60.968C243.312 61.448 243.376 62.1093 243.376 62.952C243.376 63.8267 243.301 64.504 243.152 64.984C242.949 65.6453 242.597 66.168 242.096 66.552C241.594 66.936 240.97 67.128 240.224 67.128C239.797 67.128 239.408 67.0427 239.056 66.872C238.704 66.7013 238.41 66.456 238.176 66.136C238.165 66.1147 238.149 66.1093 238.128 66.12C238.106 66.12 238.096 66.1307 238.096 66.152V66.84C238.096 66.9467 238.042 67 237.936 67H237.12C237.013 67 236.96 66.9467 236.96 66.84V55.96C236.96 55.8533 237.013 55.8 237.12 55.8H237.936C238.042 55.8 238.096 55.8533 238.096 55.96V59.736C238.096 59.7573 238.101 59.7733 238.112 59.784C238.133 59.784 238.154 59.7733 238.176 59.752C238.41 59.4427 238.704 59.2027 239.056 59.032C239.408 58.8613 239.797 58.776 240.224 58.776C240.981 58.776 241.616 58.9733 242.128 59.368C242.64 59.752 242.992 60.2853 243.184 60.968ZM241.952 64.888C242.058 64.664 242.133 64.4133 242.176 64.136C242.218 63.848 242.24 63.4533 242.24 62.952C242.24 62.4293 242.208 62.024 242.144 61.736C242.09 61.4373 242 61.1707 241.872 60.936C241.733 60.584 241.509 60.3013 241.2 60.088C240.89 59.8747 240.522 59.768 240.096 59.768C239.69 59.768 239.338 59.88 239.04 60.104C238.752 60.3173 238.544 60.6053 238.416 60.968C238.309 61.192 238.229 61.448 238.176 61.736C238.133 62.024 238.112 62.4293 238.112 62.952C238.112 63.464 238.133 63.864 238.176 64.152C238.229 64.4293 238.304 64.68 238.4 64.904C238.538 65.2773 238.752 65.576 239.04 65.8C239.328 66.024 239.685 66.136 240.112 66.136C240.56 66.136 240.944 66.024 241.264 65.8C241.594 65.576 241.824 65.272 241.952 64.888ZM251.793 61.592C251.835 61.8907 251.857 62.264 251.857 62.712V63.224C251.857 63.3307 251.803 63.384 251.697 63.384H246.529C246.486 63.384 246.465 63.4053 246.465 63.448C246.486 64.0347 246.518 64.4133 246.561 64.584C246.678 65.064 246.929 65.4427 247.313 65.72C247.697 65.9973 248.187 66.136 248.785 66.136C249.233 66.136 249.627 66.0347 249.969 65.832C250.31 65.6293 250.577 65.3413 250.769 64.968C250.833 64.872 250.907 64.8507 250.993 64.904L251.617 65.272C251.702 65.3253 251.723 65.4 251.681 65.496C251.414 66.008 251.014 66.4133 250.481 66.712C249.947 67 249.334 67.144 248.641 67.144C247.883 67.1333 247.249 66.952 246.737 66.6C246.225 66.248 245.857 65.7573 245.633 65.128C245.441 64.616 245.345 63.88 245.345 62.92C245.345 62.472 245.35 62.1093 245.361 61.832C245.382 61.544 245.425 61.288 245.489 61.064C245.67 60.3707 246.033 59.816 246.577 59.4C247.131 58.984 247.798 58.776 248.577 58.776C249.547 58.776 250.294 59.0213 250.817 59.512C251.339 60.0027 251.665 60.696 251.793 61.592ZM248.577 59.768C248.054 59.768 247.617 59.9067 247.265 60.184C246.923 60.4507 246.699 60.8133 246.593 61.272C246.529 61.496 246.486 61.8587 246.465 62.36C246.465 62.4027 246.486 62.424 246.529 62.424H250.673C250.715 62.424 250.737 62.4027 250.737 62.36C250.715 61.88 250.683 61.5387 250.641 61.336C250.523 60.856 250.283 60.4773 249.921 60.2C249.569 59.912 249.121 59.768 248.577 59.768ZM257.476 58.792C258.329 58.792 259.007 59.0427 259.508 59.544C260.02 60.0453 260.276 60.7173 260.276 61.56V66.84C260.276 66.9467 260.223 67 260.116 67H259.3C259.193 67 259.14 66.9467 259.14 66.84V61.784C259.14 61.1973 258.959 60.7173 258.596 60.344C258.244 59.9707 257.785 59.784 257.22 59.784C256.633 59.784 256.159 59.9653 255.796 60.328C255.433 60.6907 255.252 61.1653 255.252 61.752V66.84C255.252 66.9467 255.199 67 255.092 67H254.276C254.169 67 254.116 66.9467 254.116 66.84V59.064C254.116 58.9573 254.169 58.904 254.276 58.904H255.092C255.199 58.904 255.252 58.9573 255.252 59.064V59.752C255.252 59.7733 255.257 59.7893 255.268 59.8C255.289 59.8107 255.305 59.8053 255.316 59.784C255.785 59.1227 256.505 58.792 257.476 58.792ZM268.84 61.592C268.882 61.8907 268.904 62.264 268.904 62.712V63.224C268.904 63.3307 268.85 63.384 268.744 63.384H263.576C263.533 63.384 263.512 63.4053 263.512 63.448C263.533 64.0347 263.565 64.4133 263.608 64.584C263.725 65.064 263.976 65.4427 264.36 65.72C264.744 65.9973 265.234 66.136 265.832 66.136C266.28 66.136 266.674 66.0347 267.016 65.832C267.357 65.6293 267.624 65.3413 267.816 64.968C267.88 64.872 267.954 64.8507 268.04 64.904L268.664 65.272C268.749 65.3253 268.77 65.4 268.728 65.496C268.461 66.008 268.061 66.4133 267.528 66.712C266.994 67 266.381 67.144 265.688 67.144C264.93 67.1333 264.296 66.952 263.784 66.6C263.272 66.248 262.904 65.7573 262.68 65.128C262.488 64.616 262.392 63.88 262.392 62.92C262.392 62.472 262.397 62.1093 262.408 61.832C262.429 61.544 262.472 61.288 262.536 61.064C262.717 60.3707 263.08 59.816 263.624 59.4C264.178 58.984 264.845 58.776 265.624 58.776C266.594 58.776 267.341 59.0213 267.864 59.512C268.386 60.0027 268.712 60.696 268.84 61.592ZM265.624 59.768C265.101 59.768 264.664 59.9067 264.312 60.184C263.97 60.4507 263.746 60.8133 263.64 61.272C263.576 61.496 263.533 61.8587 263.512 62.36C263.512 62.4027 263.533 62.424 263.576 62.424H267.72C267.762 62.424 267.784 62.4027 267.784 62.36C267.762 61.88 267.73 61.5387 267.688 61.336C267.57 60.856 267.33 60.4773 266.968 60.2C266.616 59.912 266.168 59.768 265.624 59.768ZM274.253 56.792C273.667 56.792 273.267 56.9253 273.053 57.192C272.84 57.448 272.733 57.8907 272.733 58.52V58.84C272.733 58.8827 272.755 58.904 272.797 58.904H274.589C274.696 58.904 274.749 58.9573 274.749 59.064V59.784C274.749 59.8907 274.696 59.944 274.589 59.944H272.797C272.755 59.944 272.733 59.9653 272.733 60.008V66.84C272.733 66.9467 272.68 67 272.573 67H271.773C271.667 67 271.613 66.9467 271.613 66.84V60.008C271.613 59.9653 271.592 59.944 271.549 59.944H270.477C270.371 59.944 270.317 59.8907 270.317 59.784V59.064C270.317 58.9573 270.371 58.904 270.477 58.904H271.549C271.592 58.904 271.613 58.8827 271.613 58.84V58.456C271.613 57.7947 271.688 57.2773 271.837 56.904C271.987 56.52 272.243 56.2427 272.605 56.072C272.979 55.8907 273.496 55.8 274.157 55.8H274.621C274.728 55.8 274.781 55.8533 274.781 55.96V56.632C274.781 56.7387 274.728 56.792 274.621 56.792H274.253ZM277.525 57.432C277.269 57.432 277.055 57.3467 276.885 57.176C276.714 57.0053 276.629 56.792 276.629 56.536C276.629 56.2693 276.714 56.056 276.885 55.896C277.055 55.7253 277.269 55.64 277.525 55.64C277.781 55.64 277.994 55.7253 278.165 55.896C278.335 56.056 278.421 56.2693 278.421 56.536C278.421 56.792 278.335 57.0053 278.165 57.176C277.994 57.3467 277.781 57.432 277.525 57.432ZM277.077 66.984C276.97 66.984 276.917 66.9307 276.917 66.824V59.048C276.917 58.9413 276.97 58.888 277.077 58.888H277.893C277.999 58.888 278.053 58.9413 278.053 59.048V66.824C278.053 66.9307 277.999 66.984 277.893 66.984H277.077ZM283.891 67.128C283.123 67.128 282.461 66.9307 281.907 66.536C281.363 66.1307 280.989 65.5867 280.787 64.904C280.648 64.4347 280.579 63.7733 280.579 62.92C280.579 62.152 280.648 61.5013 280.787 60.968C280.979 60.3067 281.352 59.7787 281.907 59.384C282.461 58.9787 283.123 58.776 283.891 58.776C284.669 58.776 285.341 58.9733 285.907 59.368C286.483 59.7627 286.856 60.2533 287.027 60.84C287.08 61.032 287.112 61.192 287.123 61.32V61.352C287.123 61.4267 287.075 61.4747 286.979 61.496L286.179 61.608H286.147C286.072 61.608 286.024 61.56 286.003 61.464L285.955 61.224C285.859 60.8187 285.624 60.4773 285.251 60.2C284.877 59.912 284.424 59.768 283.891 59.768C283.357 59.768 282.909 59.912 282.547 60.2C282.195 60.4773 281.965 60.8507 281.859 61.32C281.763 61.7253 281.715 62.264 281.715 62.936C281.715 63.64 281.763 64.184 281.859 64.568C281.965 65.048 282.195 65.432 282.547 65.72C282.909 65.9973 283.357 66.136 283.891 66.136C284.413 66.136 284.861 66.0027 285.235 65.736C285.619 65.4587 285.859 65.1067 285.955 64.68V64.616L285.971 64.552C285.981 64.4453 286.045 64.4027 286.163 64.424L286.947 64.552C287.053 64.5733 287.101 64.632 287.091 64.728L287.027 65.048C286.867 65.6667 286.499 66.168 285.923 66.552C285.347 66.936 284.669 67.128 283.891 67.128ZM289.915 57.432C289.659 57.432 289.446 57.3467 289.275 57.176C289.105 57.0053 289.019 56.792 289.019 56.536C289.019 56.2693 289.105 56.056 289.275 55.896C289.446 55.7253 289.659 55.64 289.915 55.64C290.171 55.64 290.385 55.7253 290.555 55.896C290.726 56.056 290.811 56.2693 290.811 56.536C290.811 56.792 290.726 57.0053 290.555 57.176C290.385 57.3467 290.171 57.432 289.915 57.432ZM289.467 66.984C289.361 66.984 289.307 66.9307 289.307 66.824V59.048C289.307 58.9413 289.361 58.888 289.467 58.888H290.283C290.39 58.888 290.443 58.9413 290.443 59.048V66.824C290.443 66.9307 290.39 66.984 290.283 66.984H289.467ZM296.313 67.128C295.545 67.128 294.884 66.9307 294.329 66.536C293.775 66.1413 293.391 65.5973 293.177 64.904C293.028 64.4133 292.953 63.7573 292.953 62.936C292.953 62.1147 293.028 61.464 293.177 60.984C293.38 60.3013 293.759 59.7627 294.313 59.368C294.868 58.9733 295.54 58.776 296.329 58.776C297.087 58.776 297.737 58.9733 298.281 59.368C298.836 59.7627 299.215 60.296 299.417 60.968C299.567 61.4267 299.641 62.0827 299.641 62.936C299.641 63.8 299.567 64.456 299.417 64.904C299.215 65.5973 298.836 66.1413 298.281 66.536C297.737 66.9307 297.081 67.128 296.313 67.128ZM296.313 66.136C296.825 66.136 297.263 65.9973 297.625 65.72C297.988 65.432 298.233 65.048 298.361 64.568C298.457 64.184 298.505 63.6453 298.505 62.952C298.505 62.248 298.463 61.7093 298.377 61.336C298.249 60.856 297.999 60.4773 297.625 60.2C297.263 59.912 296.82 59.768 296.297 59.768C295.775 59.768 295.332 59.912 294.969 60.2C294.607 60.4773 294.361 60.856 294.233 61.336C294.148 61.7093 294.105 62.248 294.105 62.952C294.105 63.656 294.148 64.1947 294.233 64.568C294.351 65.048 294.591 65.432 294.953 65.72C295.327 65.9973 295.78 66.136 296.313 66.136ZM311.435 60.92C311.595 61.432 311.675 62.1093 311.675 62.952C311.675 63.8053 311.606 64.4667 311.467 64.936C311.275 65.6187 310.923 66.1573 310.411 66.552C309.91 66.936 309.275 67.128 308.507 67.128C308.091 67.128 307.707 67.048 307.355 66.888C307.003 66.7173 306.71 66.4773 306.475 66.168C306.454 66.1467 306.433 66.1413 306.411 66.152C306.401 66.152 306.395 66.1627 306.395 66.184V69.944C306.395 70.0507 306.342 70.104 306.235 70.104H305.419C305.313 70.104 305.259 70.0507 305.259 69.944V59.064C305.259 58.9573 305.313 58.904 305.419 58.904H306.235C306.342 58.904 306.395 58.9573 306.395 59.064V59.736C306.395 59.7573 306.401 59.7733 306.411 59.784C306.433 59.784 306.454 59.7733 306.475 59.752C306.71 59.4427 306.998 59.2027 307.339 59.032C307.691 58.8613 308.081 58.776 308.507 58.776C309.254 58.776 309.878 58.968 310.379 59.352C310.891 59.736 311.243 60.2587 311.435 60.92ZM310.171 64.968C310.289 64.7333 310.374 64.472 310.427 64.184C310.491 63.8853 310.523 63.4747 310.523 62.952C310.523 62.4507 310.502 62.0613 310.459 61.784C310.417 61.496 310.342 61.24 310.235 61.016C310.107 60.632 309.878 60.328 309.547 60.104C309.227 59.88 308.843 59.768 308.395 59.768C307.969 59.768 307.611 59.88 307.323 60.104C307.035 60.328 306.822 60.6267 306.683 61C306.587 61.2133 306.518 61.464 306.475 61.752C306.433 62.04 306.411 62.44 306.411 62.952C306.411 63.464 306.433 63.8693 306.475 64.168C306.518 64.456 306.593 64.712 306.699 64.936C306.827 65.2987 307.035 65.592 307.323 65.816C307.622 66.0293 307.974 66.136 308.379 66.136C308.806 66.136 309.174 66.0293 309.483 65.816C309.803 65.6027 310.033 65.32 310.171 64.968ZM316.775 58.776C317.735 58.776 318.477 59.0213 318.999 59.512C319.522 60.0027 319.783 60.6533 319.783 61.464V66.84C319.783 66.9467 319.73 67 319.623 67H318.807C318.701 67 318.647 66.9467 318.647 66.84V66.184C318.647 66.1627 318.637 66.1467 318.615 66.136C318.605 66.1253 318.589 66.1307 318.567 66.152C318.301 66.472 317.954 66.7173 317.527 66.888C317.101 67.048 316.626 67.128 316.103 67.128C315.346 67.128 314.711 66.936 314.199 66.552C313.687 66.168 313.431 65.5813 313.431 64.792C313.431 63.992 313.719 63.3627 314.295 62.904C314.882 62.4347 315.693 62.2 316.727 62.2H318.583C318.626 62.2 318.647 62.1787 318.647 62.136V61.528C318.647 60.984 318.493 60.5573 318.183 60.248C317.885 59.928 317.415 59.768 316.775 59.768C316.263 59.768 315.847 59.8693 315.527 60.072C315.207 60.264 315.01 60.536 314.935 60.888C314.903 60.9947 314.839 61.0427 314.743 61.032L313.879 60.92C313.762 60.8987 313.714 60.856 313.735 60.792C313.821 60.1947 314.141 59.7093 314.695 59.336C315.25 58.9627 315.943 58.776 316.775 58.776ZM316.327 66.152C316.957 66.152 317.501 65.9973 317.959 65.688C318.418 65.368 318.647 64.9413 318.647 64.408V63.16C318.647 63.1173 318.626 63.096 318.583 63.096H316.903C316.199 63.096 315.634 63.24 315.207 63.528C314.781 63.816 314.567 64.216 314.567 64.728C314.567 65.1973 314.727 65.5547 315.047 65.8C315.378 66.0347 315.805 66.152 316.327 66.152ZM325.411 58.824C325.763 58.824 326.067 58.8933 326.323 59.032C326.409 59.0747 326.441 59.144 326.419 59.24L326.243 60.024C326.211 60.1307 326.142 60.1627 326.035 60.12C325.854 60.0453 325.646 60.008 325.411 60.008L325.203 60.024C324.649 60.0453 324.19 60.2533 323.827 60.648C323.465 61.032 323.283 61.5227 323.283 62.12V66.84C323.283 66.9467 323.23 67 323.123 67H322.307C322.201 67 322.147 66.9467 322.147 66.84V59.064C322.147 58.9573 322.201 58.904 322.307 58.904H323.123C323.23 58.904 323.283 58.9573 323.283 59.064V60.04C323.283 60.072 323.289 60.0933 323.299 60.104C323.321 60.104 323.337 60.0933 323.347 60.072C323.571 59.6773 323.854 59.3733 324.195 59.16C324.547 58.936 324.953 58.824 325.411 58.824ZM330.744 58.776C331.704 58.776 332.445 59.0213 332.968 59.512C333.491 60.0027 333.752 60.6533 333.752 61.464V66.84C333.752 66.9467 333.699 67 333.592 67H332.776C332.669 67 332.616 66.9467 332.616 66.84V66.184C332.616 66.1627 332.605 66.1467 332.584 66.136C332.573 66.1253 332.557 66.1307 332.536 66.152C332.269 66.472 331.923 66.7173 331.496 66.888C331.069 67.048 330.595 67.128 330.072 67.128C329.315 67.128 328.68 66.936 328.168 66.552C327.656 66.168 327.4 65.5813 327.4 64.792C327.4 63.992 327.688 63.3627 328.264 62.904C328.851 62.4347 329.661 62.2 330.696 62.2H332.552C332.595 62.2 332.616 62.1787 332.616 62.136V61.528C332.616 60.984 332.461 60.5573 332.152 60.248C331.853 59.928 331.384 59.768 330.744 59.768C330.232 59.768 329.816 59.8693 329.496 60.072C329.176 60.264 328.979 60.536 328.904 60.888C328.872 60.9947 328.808 61.0427 328.712 61.032L327.848 60.92C327.731 60.8987 327.683 60.856 327.704 60.792C327.789 60.1947 328.109 59.7093 328.664 59.336C329.219 58.9627 329.912 58.776 330.744 58.776ZM330.296 66.152C330.925 66.152 331.469 65.9973 331.928 65.688C332.387 65.368 332.616 64.9413 332.616 64.408V63.16C332.616 63.1173 332.595 63.096 332.552 63.096H330.872C330.168 63.096 329.603 63.24 329.176 63.528C328.749 63.816 328.536 64.216 328.536 64.728C328.536 65.1973 328.696 65.5547 329.016 65.8C329.347 66.0347 329.773 66.152 330.296 66.152ZM345.527 61.592C345.57 61.8907 345.591 62.264 345.591 62.712V63.224C345.591 63.3307 345.538 63.384 345.431 63.384H340.263C340.22 63.384 340.199 63.4053 340.199 63.448C340.22 64.0347 340.252 64.4133 340.295 64.584C340.412 65.064 340.663 65.4427 341.047 65.72C341.431 65.9973 341.922 66.136 342.519 66.136C342.967 66.136 343.362 66.0347 343.703 65.832C344.044 65.6293 344.311 65.3413 344.503 64.968C344.567 64.872 344.642 64.8507 344.727 64.904L345.351 65.272C345.436 65.3253 345.458 65.4 345.415 65.496C345.148 66.008 344.748 66.4133 344.215 66.712C343.682 67 343.068 67.144 342.375 67.144C341.618 67.1333 340.983 66.952 340.471 66.6C339.959 66.248 339.591 65.7573 339.367 65.128C339.175 64.616 339.079 63.88 339.079 62.92C339.079 62.472 339.084 62.1093 339.095 61.832C339.116 61.544 339.159 61.288 339.223 61.064C339.404 60.3707 339.767 59.816 340.311 59.4C340.866 58.984 341.532 58.776 342.311 58.776C343.282 58.776 344.028 59.0213 344.551 59.512C345.074 60.0027 345.399 60.696 345.527 61.592ZM342.311 59.768C341.788 59.768 341.351 59.9067 340.999 60.184C340.658 60.4507 340.434 60.8133 340.327 61.272C340.263 61.496 340.22 61.8587 340.199 62.36C340.199 62.4027 340.22 62.424 340.263 62.424H344.407C344.45 62.424 344.471 62.4027 344.471 62.36C344.45 61.88 344.418 61.5387 344.375 61.336C344.258 60.856 344.018 60.4773 343.655 60.2C343.303 59.912 342.855 59.768 342.311 59.768ZM350.366 67.08C349.768 67.08 349.235 66.984 348.766 66.792C348.307 66.6 347.95 66.344 347.694 66.024C347.448 65.704 347.326 65.3467 347.326 64.952V64.76C347.326 64.6533 347.379 64.6 347.486 64.6H348.254C348.36 64.6 348.414 64.6533 348.414 64.76V64.888C348.414 65.24 348.595 65.5493 348.958 65.816C349.331 66.072 349.795 66.2 350.35 66.2C350.904 66.2 351.352 66.0773 351.694 65.832C352.035 65.576 352.206 65.256 352.206 64.872C352.206 64.6053 352.115 64.3867 351.934 64.216C351.763 64.0453 351.555 63.912 351.31 63.816C351.075 63.72 350.707 63.5973 350.206 63.448C349.608 63.2773 349.118 63.1067 348.734 62.936C348.35 62.7653 348.024 62.5307 347.758 62.232C347.502 61.9227 347.374 61.5333 347.374 61.064C347.374 60.3813 347.64 59.8373 348.174 59.432C348.707 59.0267 349.411 58.824 350.286 58.824C350.872 58.824 351.39 58.92 351.838 59.112C352.296 59.304 352.648 59.5707 352.894 59.912C353.139 60.2427 353.262 60.616 353.262 61.032V61.08C353.262 61.1867 353.208 61.24 353.102 61.24H352.35C352.243 61.24 352.19 61.1867 352.19 61.08V61.032C352.19 60.6693 352.014 60.3653 351.662 60.12C351.32 59.8747 350.856 59.752 350.27 59.752C349.726 59.752 349.288 59.864 348.958 60.088C348.627 60.3013 348.462 60.6 348.462 60.984C348.462 61.3467 348.622 61.624 348.942 61.816C349.262 62.008 349.758 62.2 350.43 62.392C351.048 62.5733 351.55 62.744 351.934 62.904C352.318 63.064 352.648 63.2987 352.926 63.608C353.203 63.9067 353.342 64.3013 353.342 64.792C353.342 65.4853 353.07 66.04 352.526 66.456C351.982 66.872 351.262 67.08 350.366 67.08ZM359.029 59.688C359.029 59.7947 358.976 59.848 358.869 59.848H357.061C357.019 59.848 356.997 59.8693 356.997 59.912V64.632C356.997 65.144 357.109 65.5067 357.333 65.72C357.568 65.9227 357.931 66.024 358.421 66.024H358.821C358.928 66.024 358.981 66.0773 358.981 66.184V66.84C358.981 66.9467 358.928 67 358.821 67C358.693 67.0107 358.496 67.016 358.229 67.016C357.461 67.016 356.88 66.872 356.485 66.584C356.091 66.296 355.893 65.7627 355.893 64.984V59.912C355.893 59.8693 355.872 59.848 355.829 59.848H354.853C354.747 59.848 354.693 59.7947 354.693 59.688V59.064C354.693 58.9573 354.747 58.904 354.853 58.904H355.829C355.872 58.904 355.893 58.8827 355.893 58.84V56.984C355.893 56.8773 355.947 56.824 356.053 56.824H356.837C356.944 56.824 356.997 56.8773 356.997 56.984V58.84C356.997 58.8827 357.019 58.904 357.061 58.904H358.869C358.976 58.904 359.029 58.9573 359.029 59.064V59.688ZM364.025 58.776C364.985 58.776 365.727 59.0213 366.249 59.512C366.772 60.0027 367.033 60.6533 367.033 61.464V66.84C367.033 66.9467 366.98 67 366.873 67H366.057C365.951 67 365.897 66.9467 365.897 66.84V66.184C365.897 66.1627 365.887 66.1467 365.865 66.136C365.855 66.1253 365.839 66.1307 365.817 66.152C365.551 66.472 365.204 66.7173 364.777 66.888C364.351 67.048 363.876 67.128 363.353 67.128C362.596 67.128 361.961 66.936 361.449 66.552C360.937 66.168 360.681 65.5813 360.681 64.792C360.681 63.992 360.969 63.3627 361.545 62.904C362.132 62.4347 362.943 62.2 363.977 62.2H365.833C365.876 62.2 365.897 62.1787 365.897 62.136V61.528C365.897 60.984 365.743 60.5573 365.433 60.248C365.135 59.928 364.665 59.768 364.025 59.768C363.513 59.768 363.097 59.8693 362.777 60.072C362.457 60.264 362.26 60.536 362.185 60.888C362.153 60.9947 362.089 61.0427 361.993 61.032L361.129 60.92C361.012 60.8987 360.964 60.856 360.985 60.792C361.071 60.1947 361.391 59.7093 361.945 59.336C362.5 58.9627 363.193 58.776 364.025 58.776ZM363.577 66.152C364.207 66.152 364.751 65.9973 365.209 65.688C365.668 65.368 365.897 64.9413 365.897 64.408V63.16C365.897 63.1173 365.876 63.096 365.833 63.096H364.153C363.449 63.096 362.884 63.24 362.457 63.528C362.031 63.816 361.817 64.216 361.817 64.728C361.817 65.1973 361.977 65.5547 362.297 65.8C362.628 66.0347 363.055 66.152 363.577 66.152ZM378.824 60.968C378.952 61.448 379.016 62.1093 379.016 62.952C379.016 63.8267 378.942 64.504 378.792 64.984C378.59 65.6453 378.238 66.168 377.736 66.552C377.235 66.936 376.611 67.128 375.864 67.128C375.438 67.128 375.048 67.0427 374.696 66.872C374.344 66.7013 374.051 66.456 373.816 66.136C373.806 66.1147 373.79 66.1093 373.768 66.12C373.747 66.12 373.736 66.1307 373.736 66.152V66.84C373.736 66.9467 373.683 67 373.576 67H372.76C372.654 67 372.6 66.9467 372.6 66.84V55.96C372.6 55.8533 372.654 55.8 372.76 55.8H373.576C373.683 55.8 373.736 55.8533 373.736 55.96V59.736C373.736 59.7573 373.742 59.7733 373.752 59.784C373.774 59.784 373.795 59.7733 373.816 59.752C374.051 59.4427 374.344 59.2027 374.696 59.032C375.048 58.8613 375.438 58.776 375.864 58.776C376.622 58.776 377.256 58.9733 377.768 59.368C378.28 59.752 378.632 60.2853 378.824 60.968ZM377.592 64.888C377.699 64.664 377.774 64.4133 377.816 64.136C377.859 63.848 377.88 63.4533 377.88 62.952C377.88 62.4293 377.848 62.024 377.784 61.736C377.731 61.4373 377.64 61.1707 377.512 60.936C377.374 60.584 377.15 60.3013 376.84 60.088C376.531 59.8747 376.163 59.768 375.736 59.768C375.331 59.768 374.979 59.88 374.68 60.104C374.392 60.3173 374.184 60.6053 374.056 60.968C373.95 61.192 373.87 61.448 373.816 61.736C373.774 62.024 373.752 62.4293 373.752 62.952C373.752 63.464 373.774 63.864 373.816 64.152C373.87 64.4293 373.944 64.68 374.04 64.904C374.179 65.2773 374.392 65.576 374.68 65.8C374.968 66.024 375.326 66.136 375.752 66.136C376.2 66.136 376.584 66.024 376.904 65.8C377.235 65.576 377.464 65.272 377.592 64.888ZM386.231 59.064C386.231 58.9573 386.284 58.904 386.391 58.904H387.207C387.313 58.904 387.367 58.9573 387.367 59.064V66.84C387.367 66.9467 387.313 67 387.207 67H386.391C386.284 67 386.231 66.9467 386.231 66.84V66.152C386.231 66.1307 386.22 66.1147 386.199 66.104C386.177 66.0933 386.161 66.0987 386.151 66.12C385.703 66.7813 384.993 67.112 384.023 67.112C383.511 67.112 383.036 67.0107 382.599 66.808C382.172 66.5947 381.831 66.2907 381.575 65.896C381.329 65.5013 381.207 65.0267 381.207 64.472V59.064C381.207 58.9573 381.26 58.904 381.367 58.904H382.183C382.289 58.904 382.343 58.9573 382.343 59.064V64.136C382.343 64.744 382.513 65.2293 382.855 65.592C383.196 65.944 383.66 66.12 384.247 66.12C384.855 66.12 385.335 65.9387 385.687 65.576C386.049 65.2133 386.231 64.7333 386.231 64.136V59.064ZM383.831 57.848C383.767 57.848 383.724 57.832 383.703 57.8C383.681 57.7573 383.687 57.7093 383.719 57.656L384.679 55.912C384.711 55.8373 384.775 55.8 384.871 55.8H385.591C385.655 55.8 385.692 55.8213 385.703 55.864C385.724 55.896 385.719 55.9387 385.687 55.992L384.599 57.736C384.545 57.8107 384.481 57.848 384.407 57.848H383.831ZM392.616 67.08C392.018 67.08 391.485 66.984 391.016 66.792C390.557 66.6 390.2 66.344 389.944 66.024C389.698 65.704 389.576 65.3467 389.576 64.952V64.76C389.576 64.6533 389.629 64.6 389.736 64.6H390.504C390.61 64.6 390.664 64.6533 390.664 64.76V64.888C390.664 65.24 390.845 65.5493 391.208 65.816C391.581 66.072 392.045 66.2 392.6 66.2C393.154 66.2 393.602 66.0773 393.944 65.832C394.285 65.576 394.456 65.256 394.456 64.872C394.456 64.6053 394.365 64.3867 394.184 64.216C394.013 64.0453 393.805 63.912 393.56 63.816C393.325 63.72 392.957 63.5973 392.456 63.448C391.858 63.2773 391.368 63.1067 390.984 62.936C390.6 62.7653 390.274 62.5307 390.008 62.232C389.752 61.9227 389.624 61.5333 389.624 61.064C389.624 60.3813 389.89 59.8373 390.424 59.432C390.957 59.0267 391.661 58.824 392.536 58.824C393.122 58.824 393.64 58.92 394.088 59.112C394.546 59.304 394.898 59.5707 395.144 59.912C395.389 60.2427 395.512 60.616 395.512 61.032V61.08C395.512 61.1867 395.458 61.24 395.352 61.24H394.6C394.493 61.24 394.44 61.1867 394.44 61.08V61.032C394.44 60.6693 394.264 60.3653 393.912 60.12C393.57 59.8747 393.106 59.752 392.52 59.752C391.976 59.752 391.538 59.864 391.208 60.088C390.877 60.3013 390.712 60.6 390.712 60.984C390.712 61.3467 390.872 61.624 391.192 61.816C391.512 62.008 392.008 62.2 392.68 62.392C393.298 62.5733 393.8 62.744 394.184 62.904C394.568 63.064 394.898 63.2987 395.176 63.608C395.453 63.9067 395.592 64.3013 395.592 64.792C395.592 65.4853 395.32 66.04 394.776 66.456C394.232 66.872 393.512 67.08 392.616 67.08ZM402.687 59.064C402.687 58.9573 402.74 58.904 402.847 58.904H403.663C403.769 58.904 403.823 58.9573 403.823 59.064V69.944C403.823 70.0507 403.769 70.104 403.663 70.104H402.847C402.74 70.104 402.687 70.0507 402.687 69.944V66.184C402.687 66.1627 402.676 66.152 402.655 66.152C402.644 66.1413 402.628 66.1467 402.607 66.168C402.372 66.4773 402.079 66.7173 401.727 66.888C401.375 67.048 400.991 67.128 400.575 67.128C399.817 67.128 399.183 66.936 398.671 66.552C398.159 66.1573 397.807 65.6187 397.615 64.936C397.487 64.4987 397.423 63.8373 397.423 62.952C397.423 62.0773 397.497 61.4 397.647 60.92C397.839 60.2587 398.185 59.736 398.687 59.352C399.199 58.968 399.828 58.776 400.575 58.776C401.001 58.776 401.385 58.8613 401.727 59.032C402.079 59.2027 402.372 59.4427 402.607 59.752C402.628 59.7733 402.644 59.784 402.655 59.784C402.676 59.7733 402.687 59.7573 402.687 59.736V59.064ZM402.383 64.936C402.489 64.712 402.564 64.456 402.607 64.168C402.649 63.8693 402.671 63.464 402.671 62.952C402.671 62.44 402.649 62.04 402.607 61.752C402.564 61.464 402.495 61.2133 402.399 61C402.26 60.6267 402.047 60.328 401.759 60.104C401.471 59.88 401.113 59.768 400.687 59.768C400.239 59.768 399.849 59.88 399.519 60.104C399.199 60.328 398.975 60.632 398.847 61.016C398.74 61.24 398.665 61.496 398.623 61.784C398.58 62.0613 398.559 62.4507 398.559 62.952C398.559 63.4747 398.585 63.8853 398.639 64.184C398.703 64.472 398.799 64.7333 398.927 64.968C399.065 65.32 399.289 65.6027 399.599 65.816C399.908 66.0293 400.276 66.136 400.703 66.136C401.108 66.136 401.455 66.0293 401.743 65.816C402.041 65.592 402.255 65.2987 402.383 64.936ZM411.387 59.064C411.387 58.9573 411.44 58.904 411.547 58.904H412.363C412.47 58.904 412.523 58.9573 412.523 59.064V66.84C412.523 66.9467 412.47 67 412.363 67H411.547C411.44 67 411.387 66.9467 411.387 66.84V66.152C411.387 66.1307 411.376 66.1147 411.355 66.104C411.334 66.0933 411.318 66.0987 411.307 66.12C410.859 66.7813 410.15 67.112 409.179 67.112C408.667 67.112 408.192 67.0107 407.755 66.808C407.328 66.5947 406.987 66.2907 406.731 65.896C406.486 65.5013 406.363 65.0267 406.363 64.472V59.064C406.363 58.9573 406.416 58.904 406.523 58.904H407.339C407.446 58.904 407.499 58.9573 407.499 59.064V64.136C407.499 64.744 407.67 65.2293 408.011 65.592C408.352 65.944 408.816 66.12 409.403 66.12C410.011 66.12 410.491 65.9387 410.843 65.576C411.206 65.2133 411.387 64.7333 411.387 64.136V59.064ZM421.277 61.592C421.32 61.8907 421.341 62.264 421.341 62.712V63.224C421.341 63.3307 421.288 63.384 421.181 63.384H416.013C415.97 63.384 415.949 63.4053 415.949 63.448C415.97 64.0347 416.002 64.4133 416.045 64.584C416.162 65.064 416.413 65.4427 416.797 65.72C417.181 65.9973 417.672 66.136 418.269 66.136C418.717 66.136 419.112 66.0347 419.453 65.832C419.794 65.6293 420.061 65.3413 420.253 64.968C420.317 64.872 420.392 64.8507 420.477 64.904L421.101 65.272C421.186 65.3253 421.208 65.4 421.165 65.496C420.898 66.008 420.498 66.4133 419.965 66.712C419.432 67 418.818 67.144 418.125 67.144C417.368 67.1333 416.733 66.952 416.221 66.6C415.709 66.248 415.341 65.7573 415.117 65.128C414.925 64.616 414.829 63.88 414.829 62.92C414.829 62.472 414.834 62.1093 414.845 61.832C414.866 61.544 414.909 61.288 414.973 61.064C415.154 60.3707 415.517 59.816 416.061 59.4C416.616 58.984 417.282 58.776 418.061 58.776C419.032 58.776 419.778 59.0213 420.301 59.512C420.824 60.0027 421.149 60.696 421.277 61.592ZM418.061 59.768C417.538 59.768 417.101 59.9067 416.749 60.184C416.408 60.4507 416.184 60.8133 416.077 61.272C416.013 61.496 415.97 61.8587 415.949 62.36C415.949 62.4027 415.97 62.424 416.013 62.424H420.157C420.2 62.424 420.221 62.4027 420.221 62.36C420.2 61.88 420.168 61.5387 420.125 61.336C420.008 60.856 419.768 60.4773 419.405 60.2C419.053 59.912 418.605 59.768 418.061 59.768ZM428.624 55.96C428.624 55.8533 428.678 55.8 428.784 55.8H429.6C429.707 55.8 429.76 55.8533 429.76 55.96V66.84C429.76 66.9467 429.707 67 429.6 67H428.784C428.678 67 428.624 66.9467 428.624 66.84V66.168C428.624 66.1467 428.614 66.136 428.592 66.136C428.582 66.1253 428.566 66.1307 428.544 66.152C428.31 66.4613 428.016 66.7013 427.664 66.872C427.323 67.0427 426.939 67.128 426.512 67.128C425.766 67.128 425.136 66.936 424.624 66.552C424.123 66.168 423.776 65.6453 423.584 64.984C423.435 64.504 423.36 63.8267 423.36 62.952C423.36 62.0667 423.424 61.4053 423.552 60.968C423.744 60.2853 424.096 59.752 424.608 59.368C425.12 58.9733 425.755 58.776 426.512 58.776C426.928 58.776 427.312 58.8613 427.664 59.032C428.016 59.192 428.31 59.4267 428.544 59.736C428.566 59.7573 428.582 59.768 428.592 59.768C428.614 59.7573 428.624 59.7413 428.624 59.72V55.96ZM428.336 64.904C428.432 64.6907 428.502 64.44 428.544 64.152C428.587 63.864 428.608 63.464 428.608 62.952C428.608 62.44 428.587 62.04 428.544 61.752C428.502 61.4533 428.427 61.192 428.32 60.968C428.192 60.6053 427.979 60.3173 427.68 60.104C427.392 59.88 427.046 59.768 426.64 59.768C426.214 59.768 425.846 59.8747 425.536 60.088C425.227 60.3013 425.003 60.584 424.864 60.936C424.736 61.1707 424.64 61.4373 424.576 61.736C424.523 62.024 424.496 62.4293 424.496 62.952C424.496 63.4533 424.518 63.848 424.56 64.136C424.603 64.4133 424.678 64.664 424.784 64.888C424.912 65.272 425.136 65.576 425.456 65.8C425.787 66.024 426.176 66.136 426.624 66.136C427.051 66.136 427.408 66.024 427.696 65.8C427.984 65.576 428.198 65.2773 428.336 64.904ZM435.135 58.776C436.095 58.776 436.836 59.0213 437.359 59.512C437.881 60.0027 438.143 60.6533 438.143 61.464V66.84C438.143 66.9467 438.089 67 437.983 67H437.167C437.06 67 437.007 66.9467 437.007 66.84V66.184C437.007 66.1627 436.996 66.1467 436.975 66.136C436.964 66.1253 436.948 66.1307 436.927 66.152C436.66 66.472 436.313 66.7173 435.887 66.888C435.46 67.048 434.985 67.128 434.463 67.128C433.705 67.128 433.071 66.936 432.559 66.552C432.047 66.168 431.791 65.5813 431.791 64.792C431.791 63.992 432.079 63.3627 432.655 62.904C433.241 62.4347 434.052 62.2 435.087 62.2H436.943C436.985 62.2 437.007 62.1787 437.007 62.136V61.528C437.007 60.984 436.852 60.5573 436.543 60.248C436.244 59.928 435.775 59.768 435.135 59.768C434.623 59.768 434.207 59.8693 433.887 60.072C433.567 60.264 433.369 60.536 433.295 60.888C433.263 60.9947 433.199 61.0427 433.103 61.032L432.239 60.92C432.121 60.8987 432.073 60.856 432.095 60.792C432.18 60.1947 432.5 59.7093 433.055 59.336C433.609 58.9627 434.303 58.776 435.135 58.776ZM434.687 66.152C435.316 66.152 435.86 65.9973 436.319 65.688C436.777 65.368 437.007 64.9413 437.007 64.408V63.16C437.007 63.1173 436.985 63.096 436.943 63.096H435.263C434.559 63.096 433.993 63.24 433.567 63.528C433.14 63.816 432.927 64.216 432.927 64.728C432.927 65.1973 433.087 65.5547 433.407 65.8C433.737 66.0347 434.164 66.152 434.687 66.152Z" fill="#6F798F"/>
<path d="M372.89 222.688H67.1101C59.2001 222.688 52.7878 229.101 52.7878 237.011V277.829C52.7878 285.739 59.2001 292.151 67.1101 292.151H372.89C380.8 292.151 387.212 285.739 387.212 277.829V237.011C387.212 229.101 380.8 222.688 372.89 222.688Z" fill="#C7D9F9"/>
<path d="M311.304 247.752H354.271C356.559 247.752 358.594 248.262 360.292 249.197C361.989 250.132 363.348 251.491 364.283 253.189C365.218 254.886 365.728 256.922 365.728 259.21C365.728 261.498 365.218 263.533 364.283 265.231C363.348 266.928 361.989 268.287 360.292 269.222C358.594 270.157 356.559 270.668 354.271 270.668H311.304C309.016 270.668 306.98 270.157 305.283 269.222C303.586 268.287 302.226 266.928 301.292 265.231C300.357 263.533 299.846 261.498 299.846 259.21C299.846 256.922 300.357 254.886 301.292 253.189C302.226 251.491 303.586 250.132 305.283 249.197C306.98 248.262 309.016 247.752 311.304 247.752Z" fill="#2066E9"/>
<path d="M290.056 234.146H67.5912C65.7436 234.146 64.2458 236.75 64.2458 239.964V274.874C64.2458 278.088 65.7436 280.693 67.5912 280.693H290.056C291.904 280.693 293.402 278.088 293.402 274.874V239.964C293.402 236.75 291.904 234.146 290.056 234.146Z" fill="white"/>
<path d="M214.604 309.146C201.562 319.375 185.125 325.474 167.262 325.474C124.867 325.474 90.4998 291.117 90.4998 248.737C90.4998 206.356 124.867 172 167.262 172C209.657 172 244.025 206.356 244.025 248.737C244.025 265.214 238.83 280.477 229.989 292.981L297.641 363.087C298.787 364.275 298.791 366.192 297.623 367.398L286.287 379.1C285.131 380.293 283.27 380.303 282.119 379.11L214.604 309.146ZM167.262 304.814C198.193 304.814 223.358 279.658 223.358 248.737C223.358 217.816 198.193 192.66 167.262 192.66C136.331 192.66 111.167 217.816 111.167 248.737C111.167 279.658 136.331 304.814 167.262 304.814Z" fill="#2066E9"/>
<path d="M292.265 205.577C292.336 205.385 292.472 205.095 292.472 205.095C294.727 200.002 297.015 196.161 299.335 193.572C301.656 190.983 304.157 189.155 306.839 188.087C309.52 187.019 312.514 186.259 315.819 185.809C317.814 185.524 319.724 184.997 321.547 184.226C323.382 183.429 325.036 182.315 326.509 180.885C328.008 179.467 329.213 177.7 330.123 175.584C331.253 172.959 331.617 170.417 331.214 167.958C330.812 165.499 329.804 163.304 328.192 161.372C326.579 159.44 324.513 157.932 321.995 156.848C319.799 155.903 317.487 155.448 315.06 155.483C312.632 155.517 310.314 156.219 308.107 157.586C305.9 158.953 304.009 161.171 302.434 164.24C300.86 167.308 290.136 164.344 292.309 159.883C294.483 155.422 297.339 152.032 300.876 149.713C304.441 147.405 308.359 146.155 312.633 145.962C316.933 145.781 321.252 146.624 325.592 148.491C330.306 150.52 334.001 153.221 336.676 156.594C339.378 159.979 340.977 163.715 341.472 167.801C341.994 171.899 341.357 176.037 339.558 180.215C338.291 183.162 336.688 185.631 334.752 187.623C332.842 189.626 330.64 191.202 328.146 192.351C325.678 193.512 322.955 194.308 319.975 194.74C316.984 195.199 314.427 195.94 312.305 196.963C310.193 197.959 308.338 199.43 306.739 201.377C305.139 203.323 303.598 205.946 302.115 209.244C302.115 209.244 301.998 209.542 301.908 209.726C300.101 213.406 290.835 209.419 292.265 205.577ZM287.172 231.575C285.19 230.722 283.795 229.28 282.986 227.25C282.177 225.219 282.2 223.213 283.053 221.231C283.905 219.249 285.347 217.853 287.378 217.045C289.408 216.236 291.414 216.258 293.397 217.111C295.379 217.964 296.774 219.406 297.583 221.436C298.392 223.467 298.369 225.473 297.516 227.455C296.952 228.768 296.098 229.829 294.956 230.639C293.841 231.46 292.59 231.97 291.203 232.167C289.855 232.349 288.512 232.151 287.172 231.575Z" fill="#1145A7"/>
<path d="M160.079 134.142L172.868 152.465L168.763 132.174L160.079 134.142Z" fill="#C7D9F9"/>
<path d="M177.025 122.899L180.006 149.12L187.255 122.308L177.025 122.899Z" fill="#C7D9F9"/>
<path d="M200.576 124.471L189.07 153.728L210.498 131.229L200.576 124.471Z" fill="#C7D9F9"/>
</svg>
