<svg width="351" height="93" viewBox="0 0 351 93" fill="none" xmlns="http://www.w3.org/2000/svg">
<path d="M8.22192 6.66C8.32459 7.07067 8.37592 7.49533 8.37592 7.934C8.37592 8.37267 8.31992 8.77867 8.20792 9.152C8.03059 9.74933 7.68992 10.2253 7.18592 10.58C6.69126 10.9253 6.09859 11.098 5.40792 11.098C4.72659 11.098 4.14326 10.93 3.65792 10.594C3.17259 10.258 2.83192 9.80067 2.63592 9.222C2.54259 8.96067 2.49126 8.732 2.48192 8.536V8.508C2.48192 8.43333 2.52392 8.396 2.60792 8.396H3.71392C3.79792 8.396 3.84459 8.438 3.85392 8.522C3.86326 8.58733 3.88659 8.68533 3.92392 8.816C4.02659 9.16133 4.20392 9.43667 4.45592 9.642C4.71726 9.838 5.02992 9.936 5.39392 9.936C5.77659 9.936 6.09859 9.83333 6.35992 9.628C6.63059 9.41333 6.81259 9.11933 6.90592 8.746C6.97126 8.55 7.00392 8.27933 7.00392 7.934C7.00392 7.626 6.97592 7.34133 6.91992 7.08C6.85459 6.72533 6.68659 6.45467 6.41592 6.268C6.15459 6.072 5.82792 5.974 5.43592 5.974C5.07192 5.974 4.74526 6.058 4.45592 6.226C4.16659 6.38467 3.97992 6.59933 3.89592 6.87C3.86792 6.954 3.81659 6.996 3.74192 6.996H2.62192C2.52859 6.996 2.48192 6.94933 2.48192 6.856V1.34C2.48192 1.24667 2.52859 1.2 2.62192 1.2H7.85792C7.95126 1.2 7.99792 1.24667 7.99792 1.34V2.222C7.99792 2.31533 7.95126 2.362 7.85792 2.362H3.88192C3.84459 2.362 3.82592 2.38067 3.82592 2.418L3.81192 5.344C3.81192 5.4 3.83526 5.414 3.88192 5.386C4.10592 5.19 4.36259 5.04533 4.65192 4.952C4.95059 4.84933 5.26326 4.798 5.58992 4.798C6.24326 4.798 6.80326 4.96133 7.26992 5.288C7.74592 5.61467 8.06326 6.072 8.22192 6.66Z" fill="#2C3447"/>
<path d="M20.9213 3.11583L20.7574 2.83332C20.1241 1.74131 19.8074 1.19531 19.334 1.19531C18.8606 1.19531 18.5439 1.74131 17.9106 2.83332L17.7467 3.11583C17.5667 3.42615 17.4768 3.5813 17.3365 3.68368C17.1962 3.78605 17.0214 3.82405 16.6719 3.90005L16.3538 3.96925C15.1239 4.23671 14.509 4.37043 14.3627 4.82262C14.2164 5.27481 14.6356 5.74598 15.474 6.68834L15.6909 6.93213C15.9292 7.19992 16.0483 7.33381 16.1019 7.49946C16.1555 7.6651 16.1375 7.84374 16.1015 8.20103L16.0687 8.52631C15.9419 9.78361 15.8785 10.4123 16.2616 10.6917C16.6446 10.9712 17.2203 10.7164 18.3718 10.2068L18.6697 10.075C18.9969 9.93015 19.1606 9.85774 19.334 9.85774C19.5074 9.85774 19.671 9.93015 19.9982 10.075L20.2961 10.2068C21.4476 10.7164 22.0234 10.9712 22.4064 10.6917C22.7894 10.4123 22.726 9.78361 22.5993 8.52631L22.5665 8.20103C22.5305 7.84375 22.5125 7.6651 22.5661 7.49946C22.6196 7.33381 22.7388 7.19992 22.977 6.93213L23.1939 6.68833C24.0324 5.74598 24.4516 5.27481 24.3053 4.82262C24.159 4.37043 23.5441 4.23671 22.3142 3.96925L21.996 3.90005L21.996 3.90005C21.6466 3.82405 21.4718 3.78605 21.3315 3.68368C21.1912 3.5813 21.1012 3.42615 20.9213 3.11584L20.9213 3.11583Z" fill="#2C3447"/>
<rect x="36.334" y="4" width="270.667" height="4" fill="#D8DCE5"/>
<rect x="36.0059" y="4" width="66" height="4" fill="#2066E9"/>
<path d="M320.624 12.456C320.559 12.456 320.503 12.428 320.456 12.372C319.999 11.672 319.63 10.7993 319.35 9.754C319.07 8.70867 318.93 7.60733 318.93 6.45C318.93 5.274 319.07 4.14933 319.35 3.076C319.639 2.00267 320.017 1.11133 320.484 0.402C320.521 0.346 320.577 0.318 320.652 0.318H321.324C321.38 0.318 321.417 0.336666 321.436 0.373999C321.455 0.401999 321.45 0.439333 321.422 0.485999C321.021 1.20467 320.694 2.09133 320.442 3.146C320.19 4.19133 320.064 5.288 320.064 6.436C320.064 7.56533 320.19 8.648 320.442 9.684C320.694 10.7107 321.021 11.5787 321.422 12.288C321.441 12.3253 321.45 12.3533 321.45 12.372C321.45 12.428 321.408 12.456 321.324 12.456H320.624ZM328.67 6.366C328.857 6.82333 328.95 7.36933 328.95 8.004C328.95 8.51733 328.88 8.97 328.74 9.362C328.554 9.922 328.236 10.356 327.788 10.664C327.35 10.9627 326.804 11.112 326.15 11.112C325.497 11.112 324.937 10.944 324.47 10.608C324.004 10.2627 323.682 9.80067 323.504 9.222C323.42 8.96067 323.369 8.606 323.35 8.158C323.35 8.06467 323.397 8.018 323.49 8.018H324.204C324.298 8.018 324.344 8.06467 324.344 8.158C324.363 8.42867 324.396 8.68067 324.442 8.914C324.545 9.32467 324.741 9.65133 325.03 9.894C325.329 10.1273 325.698 10.244 326.136 10.244C326.976 10.244 327.522 9.87067 327.774 9.124C327.886 8.816 327.942 8.43333 327.942 7.976C327.942 7.416 327.868 6.95867 327.718 6.604C327.42 5.932 326.892 5.596 326.136 5.596C325.996 5.596 325.824 5.64733 325.618 5.75C325.581 5.76867 325.553 5.778 325.534 5.778C325.497 5.778 325.464 5.75467 325.436 5.708L325.072 5.218C325.026 5.14333 325.03 5.078 325.086 5.022L327.55 2.138C327.578 2.09133 327.569 2.068 327.522 2.068H323.574C323.481 2.068 323.434 2.02133 323.434 1.928V1.34C323.434 1.24667 323.481 1.2 323.574 1.2H328.754C328.848 1.2 328.894 1.24667 328.894 1.34V2.026C328.894 2.07267 328.871 2.12867 328.824 2.194L326.584 4.882C326.566 4.90067 326.561 4.91933 326.57 4.938C326.58 4.94733 326.598 4.952 326.626 4.952C327.625 5.01733 328.306 5.48867 328.67 6.366ZM333.789 11.14C332.893 11.14 332.179 10.8833 331.647 10.37C331.115 9.85667 330.849 9.17067 330.849 8.312V3.888C330.849 3.02933 331.115 2.348 331.647 1.844C332.179 1.33067 332.893 1.074 333.789 1.074C334.695 1.074 335.418 1.33067 335.959 1.844C336.501 2.35733 336.771 3.03867 336.771 3.888V8.312C336.771 9.17067 336.501 9.85667 335.959 10.37C335.418 10.8833 334.695 11.14 333.789 11.14ZM333.789 10.272C334.387 10.272 334.867 10.0993 335.231 9.754C335.595 9.40867 335.777 8.94667 335.777 8.368V3.846C335.777 3.27667 335.595 2.81933 335.231 2.474C334.877 2.12867 334.396 1.956 333.789 1.956C333.201 1.956 332.73 2.12867 332.375 2.474C332.021 2.81933 331.843 3.27667 331.843 3.846V8.368C331.843 8.94667 332.021 9.40867 332.375 9.754C332.73 10.0993 333.201 10.272 333.789 10.272ZM339.801 0.318C339.867 0.318 339.923 0.346 339.969 0.402C340.417 1.102 340.781 1.97467 341.061 3.02C341.341 4.06533 341.481 5.16667 341.481 6.324C341.481 7.50933 341.337 8.63867 341.047 9.712C340.767 10.7853 340.394 11.672 339.927 12.372C339.89 12.428 339.834 12.456 339.759 12.456H339.101C339.045 12.456 339.008 12.4373 338.989 12.4C338.971 12.372 338.975 12.3347 339.003 12.288C339.405 11.5693 339.731 10.6873 339.983 9.642C340.235 8.58733 340.361 7.49067 340.361 6.352C340.361 5.22267 340.235 4.14 339.983 3.104C339.731 2.068 339.405 1.19533 339.003 0.485999C338.985 0.448666 338.975 0.420666 338.975 0.402C338.975 0.346 339.017 0.318 339.101 0.318H339.801Z" fill="#6F798F"/>
<path d="M8.3978 27.164C8.49113 27.164 8.5378 27.2107 8.5378 27.304V28.228C8.5378 28.3213 8.49113 28.368 8.3978 28.368H7.7958C7.75846 28.368 7.7398 28.3867 7.7398 28.424V30.86C7.7398 30.9533 7.69313 31 7.5998 31H6.5358C6.44246 31 6.3958 30.9533 6.3958 30.86V28.424C6.3958 28.3867 6.37713 28.368 6.3398 28.368H2.0838C1.99046 28.368 1.9438 28.3213 1.9438 28.228V27.472C1.9438 27.4253 1.9578 27.3693 1.9858 27.304L4.7438 21.298C4.7718 21.2327 4.82313 21.2 4.8978 21.2H6.0178C6.06446 21.2 6.09713 21.2187 6.1158 21.256C6.1438 21.284 6.14846 21.3213 6.1298 21.368L3.4978 27.094C3.48846 27.1127 3.48846 27.1313 3.4978 27.15C3.50713 27.1593 3.52113 27.164 3.5398 27.164H6.3398C6.37713 27.164 6.3958 27.1453 6.3958 27.108V25.022C6.3958 24.9287 6.44246 24.882 6.5358 24.882H7.5998C7.69313 24.882 7.7398 24.9287 7.7398 25.022V27.108C7.7398 27.1453 7.75846 27.164 7.7958 27.164H8.3978Z" fill="#2C3447"/>
<path d="M20.9213 23.1158L20.7574 22.8333C20.1241 21.7413 19.8074 21.1953 19.334 21.1953C18.8606 21.1953 18.5439 21.7413 17.9106 22.8333L17.7467 23.1158C17.5667 23.4261 17.4768 23.5813 17.3365 23.6837C17.1962 23.7861 17.0214 23.8241 16.6719 23.9001L16.3538 23.9692C15.1239 24.2367 14.509 24.3704 14.3627 24.8226C14.2164 25.2748 14.6356 25.746 15.474 26.6883L15.6909 26.9321C15.9292 27.1999 16.0483 27.3338 16.1019 27.4995C16.1555 27.6651 16.1375 27.8437 16.1015 28.201L16.0687 28.5263C15.9419 29.7836 15.8785 30.4123 16.2616 30.6917C16.6446 30.9712 17.2203 30.7164 18.3718 30.2068L18.6697 30.075C18.9969 29.9301 19.1606 29.8577 19.334 29.8577C19.5074 29.8577 19.671 29.9301 19.9982 30.075L20.2961 30.2068C21.4476 30.7164 22.0234 30.9712 22.4064 30.6917C22.7894 30.4123 22.726 29.7836 22.5993 28.5263L22.5665 28.201C22.5305 27.8437 22.5125 27.6651 22.5661 27.4995C22.6196 27.3338 22.7388 27.1999 22.977 26.9321L23.1939 26.6883C24.0324 25.746 24.4516 25.2748 24.3053 24.8226C24.159 24.3704 23.5441 24.2367 22.3142 23.9692L21.996 23.9001L21.996 23.9001C21.6466 23.8241 21.4718 23.786 21.3315 23.6837C21.1912 23.5813 21.1012 23.4261 20.9213 23.1158L20.9213 23.1158Z" fill="#2C3447"/>
<rect x="36.334" y="24" width="270.667" height="4" fill="#D8DCE5"/>
<rect x="36.0059" y="24" width="252.601" height="4" fill="#2066E9"/>
<path d="M320.624 32.456C320.559 32.456 320.503 32.428 320.456 32.372C319.999 31.672 319.63 30.7993 319.35 29.754C319.07 28.7087 318.93 27.6073 318.93 26.45C318.93 25.274 319.07 24.1493 319.35 23.076C319.639 22.0027 320.017 21.1113 320.484 20.402C320.521 20.346 320.577 20.318 320.652 20.318H321.324C321.38 20.318 321.417 20.3367 321.436 20.374C321.455 20.402 321.45 20.4393 321.422 20.486C321.021 21.2047 320.694 22.0913 320.442 23.146C320.19 24.1913 320.064 25.288 320.064 26.436C320.064 27.5653 320.19 28.648 320.442 29.684C320.694 30.7107 321.021 31.5787 321.422 32.288C321.441 32.3253 321.45 32.3533 321.45 32.372C321.45 32.428 321.408 32.456 321.324 32.456H320.624ZM325.17 21.242C325.226 21.214 325.287 21.2 325.352 21.2H326.108C326.202 21.2 326.248 21.2467 326.248 21.34V30.86C326.248 30.9533 326.202 31 326.108 31H325.394C325.301 31 325.254 30.9533 325.254 30.86V22.334C325.254 22.3153 325.245 22.3013 325.226 22.292C325.217 22.2827 325.203 22.2827 325.184 22.292L323.7 22.894L323.644 22.908C323.588 22.908 323.551 22.8707 323.532 22.796L323.462 22.264V22.236C323.462 22.1893 323.495 22.1427 323.56 22.096L325.17 21.242ZM333.761 26.394C333.957 26.814 334.055 27.346 334.055 27.99C334.055 28.5687 333.98 29.0353 333.831 29.39C333.635 29.9313 333.322 30.3513 332.893 30.65C332.464 30.9487 331.927 31.098 331.283 31.098C330.611 31.098 330.046 30.9393 329.589 30.622C329.132 30.3047 328.81 29.8567 328.623 29.278C328.511 28.9047 328.455 28.466 328.455 27.962V23.594C328.455 22.8287 328.707 22.222 329.211 21.774C329.715 21.3167 330.373 21.088 331.185 21.088C331.978 21.088 332.618 21.3073 333.103 21.746C333.588 22.1847 333.831 22.7633 333.831 23.482V23.678C333.831 23.7713 333.784 23.818 333.691 23.818H332.977C332.884 23.818 332.837 23.7713 332.837 23.678V23.566C332.837 23.09 332.683 22.7027 332.375 22.404C332.067 22.1053 331.67 21.956 331.185 21.956C330.681 21.956 330.266 22.1147 329.939 22.432C329.612 22.74 329.449 23.1507 329.449 23.664V25.722C329.449 25.7407 329.458 25.7547 329.477 25.764C329.496 25.764 329.51 25.7547 329.519 25.736C329.93 25.176 330.55 24.896 331.381 24.896C331.969 24.896 332.459 25.0267 332.851 25.288C333.252 25.5493 333.556 25.918 333.761 26.394ZM332.893 29.054C333.005 28.7647 333.061 28.41 333.061 27.99C333.061 27.5047 332.996 27.1313 332.865 26.87C332.753 26.5247 332.557 26.254 332.277 26.058C331.997 25.862 331.652 25.764 331.241 25.764C330.83 25.764 330.485 25.8667 330.205 26.072C329.925 26.268 329.729 26.5433 329.617 26.898C329.505 27.1873 329.449 27.5653 329.449 28.032C329.449 28.4427 329.496 28.7833 329.589 29.054C329.701 29.4087 329.897 29.6933 330.177 29.908C330.466 30.1227 330.826 30.23 331.255 30.23C331.656 30.23 332.002 30.132 332.291 29.936C332.58 29.7307 332.781 29.4367 332.893 29.054ZM338.684 31.14C337.788 31.14 337.074 30.8833 336.542 30.37C336.01 29.8567 335.744 29.1707 335.744 28.312V23.888C335.744 23.0293 336.01 22.348 336.542 21.844C337.074 21.3307 337.788 21.074 338.684 21.074C339.589 21.074 340.313 21.3307 340.854 21.844C341.395 22.3573 341.666 23.0387 341.666 23.888V28.312C341.666 29.1707 341.395 29.8567 340.854 30.37C340.313 30.8833 339.589 31.14 338.684 31.14ZM338.684 30.272C339.281 30.272 339.762 30.0993 340.126 29.754C340.49 29.4087 340.672 28.9467 340.672 28.368V23.846C340.672 23.2767 340.49 22.8193 340.126 22.474C339.771 22.1287 339.291 21.956 338.684 21.956C338.096 21.956 337.625 22.1287 337.27 22.474C336.915 22.8193 336.738 23.2767 336.738 23.846V28.368C336.738 28.9467 336.915 29.4087 337.27 29.754C337.625 30.0993 338.096 30.272 338.684 30.272ZM344.696 20.318C344.761 20.318 344.817 20.346 344.864 20.402C345.312 21.102 345.676 21.9747 345.956 23.02C346.236 24.0653 346.376 25.1667 346.376 26.324C346.376 27.5093 346.231 28.6387 345.942 29.712C345.662 30.7853 345.289 31.672 344.822 32.372C344.785 32.428 344.729 32.456 344.654 32.456H343.996C343.94 32.456 343.903 32.4373 343.884 32.4C343.865 32.372 343.87 32.3347 343.898 32.288C344.299 31.5693 344.626 30.6873 344.878 29.642C345.13 28.5873 345.256 27.4907 345.256 26.352C345.256 25.2227 345.13 24.14 344.878 23.104C344.626 22.068 344.299 21.1953 343.898 20.486C343.879 20.4487 343.87 20.4207 343.87 20.402C343.87 20.346 343.912 20.318 343.996 20.318H344.696Z" fill="#6F798F"/>
<path d="M7.92109 46.352C8.10775 46.8093 8.20109 47.3367 8.20109 47.934C8.20109 48.4287 8.12642 48.886 7.97709 49.306C7.77175 49.8847 7.43109 50.3327 6.95509 50.65C6.47909 50.958 5.90509 51.112 5.23309 51.112C4.56109 51.112 3.97775 50.9393 3.48309 50.594C2.99775 50.2487 2.65709 49.782 2.46109 49.194C2.35842 48.9327 2.29775 48.5593 2.27909 48.074C2.27909 47.9807 2.32575 47.934 2.41909 47.934H3.49709C3.59042 47.934 3.63709 47.9807 3.63709 48.074C3.65575 48.41 3.69309 48.6573 3.74909 48.816C3.84242 49.1613 4.01509 49.4367 4.26709 49.642C4.52842 49.8473 4.85042 49.95 5.23309 49.95C5.94242 49.95 6.41842 49.628 6.66109 48.984C6.78242 48.704 6.84309 48.34 6.84309 47.892C6.84309 47.416 6.76842 46.9913 6.61909 46.618C6.35775 46.0393 5.89109 45.75 5.21909 45.75C5.06042 45.75 4.85975 45.82 4.61709 45.96C4.57975 45.9787 4.55175 45.988 4.53309 45.988C4.48642 45.988 4.44909 45.9647 4.42109 45.918L3.88909 45.19C3.87042 45.1527 3.86109 45.12 3.86109 45.092C3.86109 45.064 3.87509 45.0313 3.90309 44.994L6.29709 42.432C6.32509 42.3853 6.31575 42.362 6.26909 42.362H2.54509C2.45175 42.362 2.40509 42.3153 2.40509 42.222V41.34C2.40509 41.2467 2.45175 41.2 2.54509 41.2H7.97709C8.07042 41.2 8.11709 41.2467 8.11709 41.34V42.348C8.11709 42.3947 8.09375 42.4507 8.04709 42.516L5.91909 44.84C5.90042 44.8587 5.89575 44.8773 5.90509 44.896C5.91442 44.9053 5.93309 44.9147 5.96109 44.924C6.43709 44.9707 6.83842 45.12 7.16509 45.372C7.49175 45.6147 7.74375 45.9413 7.92109 46.352Z" fill="#2C3447"/>
<path d="M20.9213 43.1158L20.7574 42.8333C20.1241 41.7413 19.8074 41.1953 19.334 41.1953C18.8606 41.1953 18.5439 41.7413 17.9106 42.8333L17.7467 43.1158C17.5667 43.4261 17.4768 43.5813 17.3365 43.6837C17.1962 43.7861 17.0214 43.8241 16.6719 43.9001L16.3538 43.9692C15.1239 44.2367 14.509 44.3704 14.3627 44.8226C14.2164 45.2748 14.6356 45.746 15.474 46.6883L15.6909 46.9321C15.9292 47.1999 16.0483 47.3338 16.1019 47.4995C16.1555 47.6651 16.1375 47.8437 16.1015 48.201L16.0687 48.5263C15.9419 49.7836 15.8785 50.4123 16.2616 50.6917C16.6446 50.9712 17.2203 50.7164 18.3718 50.2068L18.6697 50.075C18.9969 49.9301 19.1606 49.8577 19.334 49.8577C19.5074 49.8577 19.671 49.9301 19.9982 50.075L20.2961 50.2068C21.4476 50.7164 22.0234 50.9712 22.4064 50.6917C22.7894 50.4123 22.726 49.7836 22.5993 48.5263L22.5665 48.201C22.5305 47.8437 22.5125 47.6651 22.5661 47.4995C22.6196 47.3338 22.7388 47.1999 22.977 46.9321L23.1939 46.6883C24.0324 45.746 24.4516 45.2748 24.3053 44.8226C24.159 44.3704 23.5441 44.2367 22.3142 43.9692L21.996 43.9001L21.996 43.9001C21.6466 43.8241 21.4718 43.786 21.3315 43.6837C21.1912 43.5813 21.1012 43.4261 20.9213 43.1158L20.9213 43.1158Z" fill="#2C3447"/>
<rect x="36.334" y="44" width="270.667" height="4" fill="#D8DCE5"/>
<rect x="36.0059" y="44" width="22" height="4" fill="#2066E9"/>
<path d="M320.624 52.456C320.559 52.456 320.503 52.428 320.456 52.372C319.999 51.672 319.63 50.7993 319.35 49.754C319.07 48.7087 318.93 47.6073 318.93 46.45C318.93 45.274 319.07 44.1493 319.35 43.076C319.639 42.0027 320.017 41.1113 320.484 40.402C320.521 40.346 320.577 40.318 320.652 40.318H321.324C321.38 40.318 321.417 40.3367 321.436 40.374C321.455 40.402 321.45 40.4393 321.422 40.486C321.021 41.2047 320.694 42.0913 320.442 43.146C320.19 44.1913 320.064 45.288 320.064 46.436C320.064 47.5653 320.19 48.648 320.442 49.684C320.694 50.7107 321.021 51.5787 321.422 52.288C321.441 52.3253 321.45 52.3533 321.45 52.372C321.45 52.428 321.408 52.456 321.324 52.456H320.624ZM325.17 41.242C325.226 41.214 325.287 41.2 325.352 41.2H326.108C326.202 41.2 326.248 41.2467 326.248 41.34V50.86C326.248 50.9533 326.202 51 326.108 51H325.394C325.301 51 325.254 50.9533 325.254 50.86V42.334C325.254 42.3153 325.245 42.3013 325.226 42.292C325.217 42.2827 325.203 42.2827 325.184 42.292L323.7 42.894L323.644 42.908C323.588 42.908 323.551 42.8707 323.532 42.796L323.462 42.264V42.236C323.462 42.1893 323.495 42.1427 323.56 42.096L325.17 41.242ZM331.479 51.14C330.583 51.14 329.869 50.8833 329.337 50.37C328.805 49.8567 328.539 49.1707 328.539 48.312V43.888C328.539 43.0293 328.805 42.348 329.337 41.844C329.869 41.3307 330.583 41.074 331.479 41.074C332.384 41.074 333.108 41.3307 333.649 41.844C334.19 42.3573 334.461 43.0387 334.461 43.888V48.312C334.461 49.1707 334.19 49.8567 333.649 50.37C333.108 50.8833 332.384 51.14 331.479 51.14ZM331.479 50.272C332.076 50.272 332.557 50.0993 332.921 49.754C333.285 49.4087 333.467 48.9467 333.467 48.368V43.846C333.467 43.2767 333.285 42.8193 332.921 42.474C332.566 42.1287 332.086 41.956 331.479 41.956C330.891 41.956 330.42 42.1287 330.065 42.474C329.71 42.8193 329.533 43.2767 329.533 43.846V48.368C329.533 48.9467 329.71 49.4087 330.065 49.754C330.42 50.0993 330.891 50.272 331.479 50.272ZM337.491 40.318C337.556 40.318 337.612 40.346 337.659 40.402C338.107 41.102 338.471 41.9747 338.751 43.02C339.031 44.0653 339.171 45.1667 339.171 46.324C339.171 47.5093 339.026 48.6387 338.737 49.712C338.457 50.7853 338.084 51.672 337.617 52.372C337.58 52.428 337.524 52.456 337.449 52.456H336.791C336.735 52.456 336.698 52.4373 336.679 52.4C336.66 52.372 336.665 52.3347 336.693 52.288C337.094 51.5693 337.421 50.6873 337.673 49.642C337.925 48.5873 338.051 47.4907 338.051 46.352C338.051 45.2227 337.925 44.14 337.673 43.104C337.421 42.068 337.094 41.1953 336.693 40.486C336.674 40.4487 336.665 40.4207 336.665 40.402C336.665 40.346 336.707 40.318 336.791 40.318H337.491Z" fill="#6F798F"/>
<path d="M4.03237 69.768C4.02303 69.7867 4.02303 69.8053 4.03237 69.824C4.0417 69.8333 4.0557 69.838 4.07437 69.838H8.28837C8.3817 69.838 8.42837 69.8847 8.42837 69.978V70.86C8.42837 70.9533 8.3817 71 8.28837 71H2.42237C2.32903 71 2.28237 70.9533 2.28237 70.86V70.006C2.28237 69.9407 2.3057 69.8847 2.35237 69.838C2.6697 69.474 3.3977 68.62 4.53637 67.276L5.50237 66.114C6.37037 65.078 6.80437 64.2753 6.80437 63.706C6.80437 63.2673 6.65503 62.9173 6.35637 62.656C6.06703 62.3853 5.6797 62.25 5.19437 62.25C4.70903 62.25 4.3217 62.3853 4.03237 62.656C3.74303 62.9267 3.60303 63.2813 3.61237 63.72V64.14C3.61237 64.2333 3.5657 64.28 3.47237 64.28H2.39437C2.30103 64.28 2.25437 64.2333 2.25437 64.14V63.538C2.27303 63.0527 2.40837 62.6233 2.66037 62.25C2.9217 61.8767 3.2717 61.592 3.71037 61.396C4.14903 61.1907 4.6437 61.088 5.19437 61.088C5.7917 61.088 6.31437 61.2 6.76237 61.424C7.21037 61.648 7.5557 61.956 7.79837 62.348C8.04103 62.74 8.16237 63.1833 8.16237 63.678C8.16237 64.4527 7.74237 65.3673 6.90237 66.422C6.52903 66.898 6.0857 67.4347 5.57237 68.032C5.05903 68.62 4.5457 69.1987 4.03237 69.768Z" fill="#2C3447"/>
<path d="M20.9213 63.1158L20.7574 62.8333C20.1241 61.7413 19.8074 61.1953 19.334 61.1953C18.8606 61.1953 18.5439 61.7413 17.9106 62.8333L17.7467 63.1158C17.5667 63.4261 17.4768 63.5813 17.3365 63.6837C17.1962 63.7861 17.0214 63.8241 16.6719 63.9001L16.3538 63.9692C15.1239 64.2367 14.509 64.3704 14.3627 64.8226C14.2164 65.2748 14.6356 65.746 15.474 66.6883L15.6909 66.9321C15.9292 67.1999 16.0483 67.3338 16.1019 67.4995C16.1555 67.6651 16.1375 67.8437 16.1015 68.201L16.0687 68.5263C15.9419 69.7836 15.8785 70.4123 16.2616 70.6917C16.6446 70.9712 17.2203 70.7164 18.3718 70.2068L18.6697 70.075C18.9969 69.9301 19.1606 69.8577 19.334 69.8577C19.5074 69.8577 19.671 69.9301 19.9982 70.075L20.2961 70.2068C21.4476 70.7164 22.0234 70.9712 22.4064 70.6917C22.7894 70.4123 22.726 69.7836 22.5993 68.5263L22.5665 68.201C22.5305 67.8437 22.5125 67.6651 22.5661 67.4995C22.6196 67.3338 22.7388 67.1999 22.977 66.9321L23.1939 66.6883C24.0324 65.746 24.4516 65.2748 24.3053 64.8226C24.159 64.3704 23.5441 64.2367 22.3142 63.9692L21.996 63.9001L21.996 63.9001C21.6466 63.8241 21.4718 63.786 21.3315 63.6837C21.1912 63.5813 21.1012 63.4261 20.9213 63.1158L20.9213 63.1158Z" fill="#2C3447"/>
<rect x="36.334" y="64" width="270.667" height="4" fill="#D8DCE5"/>
<rect x="36.334" y="64" width="1" height="4" fill="#2066E9"/>
<path d="M320.624 72.456C320.559 72.456 320.503 72.428 320.456 72.372C319.999 71.672 319.63 70.7993 319.35 69.754C319.07 68.7087 318.93 67.6073 318.93 66.45C318.93 65.274 319.07 64.1493 319.35 63.076C319.639 62.0027 320.017 61.1113 320.484 60.402C320.521 60.346 320.577 60.318 320.652 60.318H321.324C321.38 60.318 321.417 60.3367 321.436 60.374C321.455 60.402 321.45 60.4393 321.422 60.486C321.021 61.2047 320.694 62.0913 320.442 63.146C320.19 64.1913 320.064 65.288 320.064 66.436C320.064 67.5653 320.19 68.648 320.442 69.684C320.694 70.7107 321.021 71.5787 321.422 72.288C321.441 72.3253 321.45 72.3533 321.45 72.372C321.45 72.428 321.408 72.456 321.324 72.456H320.624ZM326.584 71.14C325.688 71.14 324.974 70.8833 324.442 70.37C323.91 69.8567 323.644 69.1707 323.644 68.312V63.888C323.644 63.0293 323.91 62.348 324.442 61.844C324.974 61.3307 325.688 61.074 326.584 61.074C327.49 61.074 328.213 61.3307 328.754 61.844C329.296 62.3573 329.566 63.0387 329.566 63.888V68.312C329.566 69.1707 329.296 69.8567 328.754 70.37C328.213 70.8833 327.49 71.14 326.584 71.14ZM326.584 70.272C327.182 70.272 327.662 70.0993 328.026 69.754C328.39 69.4087 328.572 68.9467 328.572 68.368V63.846C328.572 63.2767 328.39 62.8193 328.026 62.474C327.672 62.1287 327.191 61.956 326.584 61.956C325.996 61.956 325.525 62.1287 325.17 62.474C324.816 62.8193 324.638 63.2767 324.638 63.846V68.368C324.638 68.9467 324.816 69.4087 325.17 69.754C325.525 70.0993 325.996 70.272 326.584 70.272ZM332.596 60.318C332.662 60.318 332.718 60.346 332.764 60.402C333.212 61.102 333.576 61.9747 333.856 63.02C334.136 64.0653 334.276 65.1667 334.276 66.324C334.276 67.5093 334.132 68.6387 333.842 69.712C333.562 70.7853 333.189 71.672 332.722 72.372C332.685 72.428 332.629 72.456 332.554 72.456H331.896C331.84 72.456 331.803 72.4373 331.784 72.4C331.766 72.372 331.77 72.3347 331.798 72.288C332.2 71.5693 332.526 70.6873 332.778 69.642C333.03 68.5873 333.156 67.4907 333.156 66.352C333.156 65.2227 333.03 64.14 332.778 63.104C332.526 62.068 332.2 61.1953 331.798 60.486C331.78 60.4487 331.77 60.4207 331.77 60.402C331.77 60.346 331.812 60.318 331.896 60.318H332.596Z" fill="#6F798F"/>
<path d="M5.25305 81.242C5.30905 81.214 5.36971 81.2 5.43505 81.2H6.54105C6.63438 81.2 6.68105 81.2467 6.68105 81.34V90.86C6.68105 90.9533 6.63438 91 6.54105 91H5.47705C5.38371 91 5.33705 90.9533 5.33705 90.86V82.642C5.33705 82.6233 5.32771 82.6093 5.30905 82.6C5.29971 82.5907 5.28571 82.5907 5.26705 82.6L3.79705 83.104C3.77838 83.1133 3.75505 83.118 3.72705 83.118C3.67105 83.118 3.63838 83.0807 3.62905 83.006L3.57305 82.208C3.57305 82.1147 3.60105 82.0587 3.65705 82.04L5.25305 81.242Z" fill="#2C3447"/>
<path d="M20.9213 83.1158L20.7574 82.8333C20.1241 81.7413 19.8074 81.1953 19.334 81.1953C18.8606 81.1953 18.5439 81.7413 17.9106 82.8333L17.7467 83.1158C17.5667 83.4261 17.4768 83.5813 17.3365 83.6837C17.1962 83.7861 17.0214 83.8241 16.6719 83.9001L16.3538 83.9692C15.1239 84.2367 14.509 84.3704 14.3627 84.8226C14.2164 85.2748 14.6356 85.746 15.474 86.6883L15.6909 86.9321C15.9292 87.1999 16.0483 87.3338 16.1019 87.4995C16.1555 87.6651 16.1375 87.8437 16.1015 88.201L16.0687 88.5263C15.9419 89.7836 15.8785 90.4123 16.2616 90.6917C16.6446 90.9712 17.2203 90.7164 18.3718 90.2068L18.6697 90.075C18.9969 89.9301 19.1606 89.8577 19.334 89.8577C19.5074 89.8577 19.671 89.9301 19.9982 90.075L20.2961 90.2068C21.4476 90.7164 22.0234 90.9712 22.4064 90.6917C22.7894 90.4123 22.726 89.7836 22.5993 88.5263L22.5665 88.201C22.5305 87.8437 22.5125 87.6651 22.5661 87.4995C22.6196 87.3338 22.7388 87.1999 22.977 86.9321L23.1939 86.6883C24.0324 85.746 24.4516 85.2748 24.3053 84.8226C24.159 84.3704 23.5441 84.2367 22.3142 83.9692L21.996 83.9001L21.996 83.9001C21.6466 83.8241 21.4718 83.786 21.3315 83.6837C21.1912 83.5813 21.1012 83.4261 20.9213 83.1158L20.9213 83.1158Z" fill="#2C3447"/>
<rect x="36.334" y="84" width="270.667" height="4" fill="#D8DCE5"/>
<rect x="36.334" y="84" width="1" height="4" fill="#2066E9"/>
<path d="M320.624 92.456C320.559 92.456 320.503 92.428 320.456 92.372C319.999 91.672 319.63 90.7993 319.35 89.754C319.07 88.7087 318.93 87.6073 318.93 86.45C318.93 85.274 319.07 84.1493 319.35 83.076C319.639 82.0027 320.017 81.1113 320.484 80.402C320.521 80.346 320.577 80.318 320.652 80.318H321.324C321.38 80.318 321.417 80.3367 321.436 80.374C321.455 80.402 321.45 80.4393 321.422 80.486C321.021 81.2047 320.694 82.0913 320.442 83.146C320.19 84.1913 320.064 85.288 320.064 86.436C320.064 87.5653 320.19 88.648 320.442 89.684C320.694 90.7107 321.021 91.5787 321.422 92.288C321.441 92.3253 321.45 92.3533 321.45 92.372C321.45 92.428 321.408 92.456 321.324 92.456H320.624ZM326.584 91.14C325.688 91.14 324.974 90.8833 324.442 90.37C323.91 89.8567 323.644 89.1707 323.644 88.312V83.888C323.644 83.0293 323.91 82.348 324.442 81.844C324.974 81.3307 325.688 81.074 326.584 81.074C327.49 81.074 328.213 81.3307 328.754 81.844C329.296 82.3573 329.566 83.0387 329.566 83.888V88.312C329.566 89.1707 329.296 89.8567 328.754 90.37C328.213 90.8833 327.49 91.14 326.584 91.14ZM326.584 90.272C327.182 90.272 327.662 90.0993 328.026 89.754C328.39 89.4087 328.572 88.9467 328.572 88.368V83.846C328.572 83.2767 328.39 82.8193 328.026 82.474C327.672 82.1287 327.191 81.956 326.584 81.956C325.996 81.956 325.525 82.1287 325.17 82.474C324.816 82.8193 324.638 83.2767 324.638 83.846V88.368C324.638 88.9467 324.816 89.4087 325.17 89.754C325.525 90.0993 325.996 90.272 326.584 90.272ZM332.596 80.318C332.662 80.318 332.718 80.346 332.764 80.402C333.212 81.102 333.576 81.9747 333.856 83.02C334.136 84.0653 334.276 85.1667 334.276 86.324C334.276 87.5093 334.132 88.6387 333.842 89.712C333.562 90.7853 333.189 91.672 332.722 92.372C332.685 92.428 332.629 92.456 332.554 92.456H331.896C331.84 92.456 331.803 92.4373 331.784 92.4C331.766 92.372 331.77 92.3347 331.798 92.288C332.2 91.5693 332.526 90.6873 332.778 89.642C333.03 88.5873 333.156 87.4907 333.156 86.352C333.156 85.2227 333.03 84.14 332.778 83.104C332.526 82.068 332.2 81.1953 331.798 80.486C331.78 80.4487 331.77 80.4207 331.77 80.402C331.77 80.346 331.812 80.318 331.896 80.318H332.596Z" fill="#6F798F"/>
</svg>
