<svg width="638" height="298" viewBox="0 0 638 298" fill="none" xmlns="http://www.w3.org/2000/svg">
<rect x="1" y="1" width="318" height="74" fill="#F5F6FA"/>
<rect x="1" y="1" width="318" height="74" stroke="#D8DCE5"/>
<path d="M139.676 32.96C139.676 32.8533 139.729 32.8 139.836 32.8H140.652C140.759 32.8 140.812 32.8533 140.812 32.96V43.84C140.812 43.9467 140.759 44 140.652 44H139.852C139.777 44 139.713 43.9627 139.66 43.888L134.204 35.008C134.193 34.976 134.177 34.9653 134.156 34.976C134.135 34.976 134.124 34.992 134.124 35.024L134.14 43.84C134.14 43.9467 134.087 44 133.98 44H133.164C133.057 44 133.004 43.9467 133.004 43.84V32.96C133.004 32.8533 133.057 32.8 133.164 32.8H133.964C134.039 32.8 134.103 32.8373 134.156 32.912L139.612 41.792C139.623 41.824 139.639 41.84 139.66 41.84C139.681 41.8293 139.692 41.808 139.692 41.776L139.676 32.96ZM146.393 35.776C147.353 35.776 148.094 36.0213 148.617 36.512C149.139 37.0027 149.401 37.6533 149.401 38.464V43.84C149.401 43.9467 149.347 44 149.241 44H148.425C148.318 44 148.265 43.9467 148.265 43.84V43.184C148.265 43.1627 148.254 43.1467 148.233 43.136C148.222 43.1253 148.206 43.1307 148.185 43.152C147.918 43.472 147.571 43.7173 147.145 43.888C146.718 44.048 146.243 44.128 145.721 44.128C144.963 44.128 144.329 43.936 143.817 43.552C143.305 43.168 143.049 42.5813 143.049 41.792C143.049 40.992 143.337 40.3627 143.913 39.904C144.499 39.4347 145.31 39.2 146.345 39.2H148.201C148.243 39.2 148.265 39.1787 148.265 39.136V38.528C148.265 37.984 148.11 37.5573 147.801 37.248C147.502 36.928 147.033 36.768 146.393 36.768C145.881 36.768 145.465 36.8693 145.145 37.072C144.825 37.264 144.627 37.536 144.553 37.888C144.521 37.9947 144.457 38.0427 144.361 38.032L143.497 37.92C143.379 37.8987 143.331 37.856 143.353 37.792C143.438 37.1947 143.758 36.7093 144.312 36.336C144.867 35.9627 145.561 35.776 146.393 35.776ZM145.945 43.152C146.574 43.152 147.118 42.9973 147.577 42.688C148.035 42.368 148.265 41.9413 148.265 41.408V40.16C148.265 40.1173 148.243 40.096 148.201 40.096H146.521C145.817 40.096 145.251 40.24 144.825 40.528C144.398 40.816 144.185 41.216 144.185 41.728C144.185 42.1973 144.345 42.5547 144.664 42.8C144.995 43.0347 145.422 43.152 145.945 43.152ZM153.735 44C153.639 44 153.575 43.9573 153.543 43.872L150.919 36.08L150.903 36.016C150.903 35.9413 150.951 35.904 151.047 35.904H151.959C152.055 35.904 152.119 35.9467 152.151 36.032L154.151 42.304C154.161 42.3253 154.177 42.336 154.199 42.336C154.22 42.336 154.236 42.3253 154.247 42.304L156.247 36.032C156.279 35.9467 156.343 35.904 156.439 35.904L157.351 35.92C157.468 35.92 157.511 35.9787 157.479 36.096L154.855 43.872C154.823 43.9573 154.759 44 154.663 44H153.735ZM160.032 34.432C159.776 34.432 159.563 34.3467 159.392 34.176C159.222 34.0053 159.136 33.792 159.136 33.536C159.136 33.2693 159.222 33.056 159.392 32.896C159.563 32.7253 159.776 32.64 160.032 32.64C160.288 32.64 160.502 32.7253 160.672 32.896C160.843 33.056 160.928 33.2693 160.928 33.536C160.928 33.792 160.843 34.0053 160.672 34.176C160.502 34.3467 160.288 34.432 160.032 34.432ZM159.584 43.984C159.478 43.984 159.424 43.9307 159.424 43.824V36.048C159.424 35.9413 159.478 35.888 159.584 35.888H160.4C160.507 35.888 160.56 35.9413 160.56 36.048V43.824C160.56 43.9307 160.507 43.984 160.4 43.984H159.584ZM168.367 32.96C168.367 32.8533 168.42 32.8 168.527 32.8H169.343C169.449 32.8 169.503 32.8533 169.503 32.96V43.84C169.503 43.9467 169.449 44 169.343 44H168.527C168.42 44 168.367 43.9467 168.367 43.84V43.168C168.367 43.1467 168.356 43.136 168.335 43.136C168.324 43.1253 168.308 43.1307 168.287 43.152C168.052 43.4613 167.759 43.7013 167.407 43.872C167.065 44.0427 166.681 44.128 166.255 44.128C165.508 44.128 164.879 43.936 164.367 43.552C163.865 43.168 163.519 42.6453 163.327 41.984C163.177 41.504 163.103 40.8267 163.103 39.952C163.103 39.0667 163.167 38.4053 163.295 37.968C163.487 37.2853 163.839 36.752 164.351 36.368C164.863 35.9733 165.497 35.776 166.255 35.776C166.671 35.776 167.055 35.8613 167.407 36.032C167.759 36.192 168.052 36.4267 168.287 36.736C168.308 36.7573 168.324 36.768 168.335 36.768C168.356 36.7573 168.367 36.7413 168.367 36.72V32.96ZM168.079 41.904C168.175 41.6907 168.244 41.44 168.287 41.152C168.329 40.864 168.351 40.464 168.351 39.952C168.351 39.44 168.329 39.04 168.287 38.752C168.244 38.4533 168.169 38.192 168.063 37.968C167.935 37.6053 167.721 37.3173 167.423 37.104C167.135 36.88 166.788 36.768 166.383 36.768C165.956 36.768 165.588 36.8747 165.279 37.088C164.969 37.3013 164.745 37.584 164.607 37.936C164.479 38.1707 164.383 38.4373 164.319 38.736C164.265 39.024 164.239 39.4293 164.239 39.952C164.239 40.4533 164.26 40.848 164.303 41.136C164.345 41.4133 164.42 41.664 164.527 41.888C164.655 42.272 164.879 42.576 165.199 42.8C165.529 43.024 165.919 43.136 166.367 43.136C166.793 43.136 167.151 43.024 167.439 42.8C167.727 42.576 167.94 42.2773 168.079 41.904ZM174.877 35.776C175.837 35.776 176.578 36.0213 177.101 36.512C177.624 37.0027 177.885 37.6533 177.885 38.464V43.84C177.885 43.9467 177.832 44 177.725 44H176.909C176.802 44 176.749 43.9467 176.749 43.84V43.184C176.749 43.1627 176.738 43.1467 176.717 43.136C176.706 43.1253 176.69 43.1307 176.669 43.152C176.402 43.472 176.056 43.7173 175.629 43.888C175.202 44.048 174.728 44.128 174.205 44.128C173.448 44.128 172.813 43.936 172.301 43.552C171.789 43.168 171.533 42.5813 171.533 41.792C171.533 40.992 171.821 40.3627 172.397 39.904C172.984 39.4347 173.794 39.2 174.829 39.2H176.685C176.728 39.2 176.749 39.1787 176.749 39.136V38.528C176.749 37.984 176.594 37.5573 176.285 37.248C175.986 36.928 175.517 36.768 174.877 36.768C174.365 36.768 173.949 36.8693 173.629 37.072C173.309 37.264 173.112 37.536 173.037 37.888C173.005 37.9947 172.941 38.0427 172.845 38.032L171.981 37.92C171.864 37.8987 171.816 37.856 171.837 37.792C171.922 37.1947 172.242 36.7093 172.797 36.336C173.352 35.9627 174.045 35.776 174.877 35.776ZM174.429 43.152C175.058 43.152 175.602 42.9973 176.061 42.688C176.52 42.368 176.749 41.9413 176.749 41.408V40.16C176.749 40.1173 176.728 40.096 176.685 40.096H175.005C174.301 40.096 173.736 40.24 173.309 40.528C172.882 40.816 172.669 41.216 172.669 41.728C172.669 42.1973 172.829 42.5547 173.149 42.8C173.48 43.0347 173.906 43.152 174.429 43.152ZM185.273 32.96C185.273 32.8533 185.326 32.8 185.433 32.8H186.249C186.355 32.8 186.409 32.8533 186.409 32.96V43.84C186.409 43.9467 186.355 44 186.249 44H185.433C185.326 44 185.273 43.9467 185.273 43.84V43.168C185.273 43.1467 185.262 43.136 185.241 43.136C185.23 43.1253 185.214 43.1307 185.193 43.152C184.958 43.4613 184.665 43.7013 184.313 43.872C183.971 44.0427 183.587 44.128 183.161 44.128C182.414 44.128 181.785 43.936 181.273 43.552C180.771 43.168 180.425 42.6453 180.233 41.984C180.083 41.504 180.009 40.8267 180.009 39.952C180.009 39.0667 180.073 38.4053 180.201 37.968C180.393 37.2853 180.745 36.752 181.257 36.368C181.769 35.9733 182.403 35.776 183.161 35.776C183.577 35.776 183.961 35.8613 184.313 36.032C184.665 36.192 184.958 36.4267 185.193 36.736C185.214 36.7573 185.23 36.768 185.241 36.768C185.262 36.7573 185.273 36.7413 185.273 36.72V32.96ZM184.985 41.904C185.081 41.6907 185.15 41.44 185.193 41.152C185.235 40.864 185.257 40.464 185.257 39.952C185.257 39.44 185.235 39.04 185.193 38.752C185.15 38.4533 185.075 38.192 184.969 37.968C184.841 37.6053 184.627 37.3173 184.329 37.104C184.041 36.88 183.694 36.768 183.289 36.768C182.862 36.768 182.494 36.8747 182.185 37.088C181.875 37.3013 181.651 37.584 181.513 37.936C181.385 38.1707 181.289 38.4373 181.225 38.736C181.171 39.024 181.145 39.4293 181.145 39.952C181.145 40.4533 181.166 40.848 181.209 41.136C181.251 41.4133 181.326 41.664 181.433 41.888C181.561 42.272 181.785 42.576 182.105 42.8C182.435 43.024 182.825 43.136 183.273 43.136C183.699 43.136 184.057 43.024 184.345 42.8C184.633 42.576 184.846 42.2773 184.985 41.904Z" fill="#2C3447"/>
<rect x="319" y="1" width="318" height="74" fill="#F5F6FA"/>
<rect x="319" y="1" width="318" height="74" stroke="#D8DCE5"/>
<path d="M455.564 41.184C455.564 41.9947 455.297 42.6613 454.764 43.184C454.241 43.7067 453.505 44.016 452.556 44.112C452.513 44.112 452.492 44.1333 452.492 44.176L452.508 45.328C452.508 45.4347 452.455 45.488 452.348 45.488H451.644C451.537 45.488 451.484 45.4347 451.484 45.328L451.5 44.176C451.5 44.1333 451.479 44.112 451.436 44.112C450.465 44.0053 449.708 43.6907 449.164 43.168C448.62 42.6347 448.348 41.9573 448.348 41.136V40.64C448.348 40.5333 448.401 40.48 448.508 40.48H449.228C449.335 40.48 449.388 40.5333 449.388 40.64V41.072C449.388 41.6907 449.628 42.192 450.108 42.576C450.599 42.9493 451.271 43.136 452.124 43.136C452.892 43.136 453.479 42.9653 453.884 42.624C454.289 42.272 454.492 41.808 454.492 41.232C454.492 40.8587 454.396 40.5387 454.204 40.272C454.023 40.0053 453.74 39.7547 453.356 39.52C452.972 39.2853 452.423 39.0133 451.708 38.704C450.94 38.384 450.348 38.1067 449.932 37.872C449.527 37.6267 449.191 37.3173 448.924 36.944C448.668 36.56 448.54 36.08 448.54 35.504C448.54 34.6827 448.791 34.032 449.292 33.552C449.793 33.0613 450.487 32.7733 451.372 32.688C451.415 32.688 451.436 32.6667 451.436 32.624L451.42 31.376C451.42 31.2693 451.473 31.216 451.58 31.216H452.268C452.375 31.216 452.428 31.2693 452.428 31.376L452.412 32.64C452.412 32.6827 452.433 32.704 452.476 32.704C453.415 32.8107 454.151 33.1307 454.684 33.664C455.217 34.1973 455.484 34.88 455.484 35.712V36.064C455.484 36.1707 455.431 36.224 455.324 36.224H454.572C454.465 36.224 454.412 36.1707 454.412 36.064V35.776C454.412 35.1573 454.183 34.6507 453.724 34.256C453.265 33.8613 452.631 33.664 451.82 33.664C451.105 33.664 450.556 33.8187 450.172 34.128C449.788 34.4373 449.596 34.8853 449.596 35.472C449.596 35.856 449.687 36.176 449.868 36.432C450.06 36.6773 450.327 36.896 450.668 37.088C451.02 37.2693 451.559 37.5093 452.284 37.808C453.02 38.128 453.612 38.4267 454.06 38.704C454.519 38.9813 454.881 39.3227 455.148 39.728C455.425 40.1227 455.564 40.608 455.564 41.184ZM467.321 39.888C467.427 39.888 467.481 39.9413 467.481 40.048V40.752C467.481 40.8587 467.427 40.912 467.321 40.912H466.633C466.59 40.912 466.569 40.9333 466.569 40.976V43.84C466.569 43.9467 466.515 44 466.409 44H465.593C465.486 44 465.433 43.9467 465.433 43.84V40.976C465.433 40.9333 465.411 40.912 465.369 40.912H460.585C460.478 40.912 460.425 40.8587 460.425 40.752V40.16C460.425 40.1067 460.441 40.0427 460.473 39.968L463.753 32.912C463.785 32.8373 463.843 32.8 463.929 32.8H464.777C464.83 32.8 464.867 32.8213 464.889 32.864C464.921 32.896 464.926 32.9387 464.905 32.992L461.721 39.808C461.71 39.8293 461.71 39.8507 461.721 39.872C461.731 39.8827 461.747 39.888 461.769 39.888H465.369C465.411 39.888 465.433 39.8667 465.433 39.824V37.248C465.433 37.1413 465.486 37.088 465.593 37.088H466.409C466.515 37.088 466.569 37.1413 466.569 37.248V39.824C466.569 39.8667 466.59 39.888 466.633 39.888H467.321ZM475.333 38.704C475.546 39.2267 475.653 39.8507 475.653 40.576C475.653 41.1627 475.573 41.68 475.413 42.128C475.2 42.768 474.837 43.264 474.325 43.616C473.824 43.9573 473.2 44.128 472.453 44.128C471.706 44.128 471.066 43.936 470.533 43.552C470 43.1573 469.632 42.6293 469.429 41.968C469.333 41.6693 469.274 41.264 469.253 40.752C469.253 40.6453 469.306 40.592 469.413 40.592H470.229C470.336 40.592 470.389 40.6453 470.389 40.752C470.41 41.0613 470.448 41.3493 470.501 41.616C470.618 42.0853 470.842 42.4587 471.173 42.736C471.514 43.0027 471.936 43.136 472.437 43.136C473.397 43.136 474.021 42.7093 474.309 41.856C474.437 41.504 474.501 41.0667 474.501 40.544C474.501 39.904 474.416 39.3813 474.245 38.976C473.904 38.208 473.301 37.824 472.437 37.824C472.277 37.824 472.08 37.8827 471.845 38C471.802 38.0213 471.77 38.032 471.749 38.032C471.706 38.032 471.669 38.0053 471.637 37.952L471.221 37.392C471.168 37.3067 471.173 37.232 471.237 37.168L474.053 33.872C474.085 33.8187 474.074 33.792 474.021 33.792H469.509C469.402 33.792 469.349 33.7387 469.349 33.632V32.96C469.349 32.8533 469.402 32.8 469.509 32.8H475.429C475.536 32.8 475.589 32.8533 475.589 32.96V33.744C475.589 33.7973 475.562 33.8613 475.509 33.936L472.949 37.008C472.928 37.0293 472.922 37.0507 472.933 37.072C472.944 37.0827 472.965 37.088 472.997 37.088C474.138 37.1627 474.917 37.7013 475.333 38.704ZM478.896 43.968C478.629 43.968 478.41 43.8827 478.24 43.712C478.08 43.5413 478 43.328 478 43.072C478 42.8053 478.08 42.592 478.24 42.432C478.41 42.2613 478.629 42.176 478.896 42.176C479.152 42.176 479.365 42.2613 479.536 42.432C479.706 42.592 479.792 42.8053 479.792 43.072C479.792 43.328 479.706 43.5413 479.536 43.712C479.365 43.8827 479.152 43.968 478.896 43.968ZM485.09 44.16C484.066 44.16 483.25 43.8667 482.642 43.28C482.034 42.6933 481.73 41.9093 481.73 40.928V35.872C481.73 34.8907 482.034 34.112 482.642 33.536C483.25 32.9493 484.066 32.656 485.09 32.656C486.124 32.656 486.951 32.9493 487.57 33.536C488.188 34.1227 488.498 34.9013 488.498 35.872V40.928C488.498 41.9093 488.188 42.6933 487.57 43.28C486.951 43.8667 486.124 44.16 485.09 44.16ZM485.09 43.168C485.772 43.168 486.322 42.9707 486.738 42.576C487.154 42.1813 487.362 41.6533 487.362 40.992V35.824C487.362 35.1733 487.154 34.6507 486.738 34.256C486.332 33.8613 485.783 33.664 485.09 33.664C484.418 33.664 483.879 33.8613 483.474 34.256C483.068 34.6507 482.866 35.1733 482.866 35.824V40.992C482.866 41.6533 483.068 42.1813 483.474 42.576C483.879 42.9707 484.418 43.168 485.09 43.168ZM494.137 44.16C493.113 44.16 492.297 43.8667 491.689 43.28C491.081 42.6933 490.777 41.9093 490.777 40.928V35.872C490.777 34.8907 491.081 34.112 491.689 33.536C492.297 32.9493 493.113 32.656 494.137 32.656C495.171 32.656 495.998 32.9493 496.617 33.536C497.235 34.1227 497.545 34.9013 497.545 35.872V40.928C497.545 41.9093 497.235 42.6933 496.617 43.28C495.998 43.8667 495.171 44.16 494.137 44.16ZM494.137 43.168C494.819 43.168 495.369 42.9707 495.785 42.576C496.201 42.1813 496.409 41.6533 496.409 40.992V35.824C496.409 35.1733 496.201 34.6507 495.785 34.256C495.379 33.8613 494.83 33.664 494.137 33.664C493.465 33.664 492.926 33.8613 492.521 34.256C492.115 34.6507 491.913 35.1733 491.913 35.824V40.992C491.913 41.6533 492.115 42.1813 492.521 42.576C492.926 42.9707 493.465 43.168 494.137 43.168ZM503.184 44.16C502.16 44.16 501.344 43.8667 500.736 43.28C500.128 42.6933 499.824 41.9093 499.824 40.928V35.872C499.824 34.8907 500.128 34.112 500.736 33.536C501.344 32.9493 502.16 32.656 503.184 32.656C504.218 32.656 505.045 32.9493 505.664 33.536C506.282 34.1227 506.592 34.9013 506.592 35.872V40.928C506.592 41.9093 506.282 42.6933 505.664 43.28C505.045 43.8667 504.218 44.16 503.184 44.16ZM503.184 43.168C503.866 43.168 504.416 42.9707 504.832 42.576C505.248 42.1813 505.456 41.6533 505.456 40.992V35.824C505.456 35.1733 505.248 34.6507 504.832 34.256C504.426 33.8613 503.877 33.664 503.184 33.664C502.512 33.664 501.973 33.8613 501.568 34.256C501.162 34.6507 500.96 35.1733 500.96 35.824V40.992C500.96 41.6533 501.162 42.1813 501.568 42.576C501.973 42.9707 502.512 43.168 503.184 43.168Z" fill="#2C3447"/>
<rect x="1" y="75" width="318" height="74" fill="white"/>
<rect x="1" y="75" width="318" height="74" stroke="#D8DCE5"/>
<path d="M132.144 118C132.048 118 131.984 117.957 131.952 117.872L131.312 115.856C131.301 115.824 131.28 115.808 131.248 115.808H126.464C126.432 115.808 126.411 115.824 126.4 115.856L125.76 117.872C125.728 117.957 125.664 118 125.568 118H124.704C124.587 118 124.544 117.941 124.576 117.824L128.112 106.928C128.144 106.843 128.208 106.8 128.304 106.8H129.392C129.488 106.8 129.552 106.843 129.584 106.928L133.136 117.824L133.152 117.888C133.152 117.963 133.104 118 133.008 118H132.144ZM126.72 114.8C126.709 114.821 126.709 114.843 126.72 114.864C126.741 114.875 126.763 114.88 126.784 114.88H130.912C130.933 114.88 130.949 114.875 130.96 114.864C130.981 114.843 130.987 114.821 130.976 114.8L128.896 108.272C128.885 108.251 128.869 108.24 128.848 108.24C128.827 108.24 128.811 108.251 128.8 108.272L126.72 114.8ZM138.359 109.792C139.212 109.792 139.889 110.043 140.391 110.544C140.903 111.045 141.159 111.717 141.159 112.56V117.84C141.159 117.947 141.105 118 140.999 118H140.183C140.076 118 140.023 117.947 140.023 117.84V112.784C140.023 112.197 139.841 111.717 139.479 111.344C139.127 110.971 138.668 110.784 138.103 110.784C137.516 110.784 137.041 110.965 136.679 111.328C136.316 111.691 136.135 112.165 136.135 112.752V117.84C136.135 117.947 136.081 118 135.975 118H135.159C135.052 118 134.999 117.947 134.999 117.84V110.064C134.999 109.957 135.052 109.904 135.159 109.904H135.975C136.081 109.904 136.135 109.957 136.135 110.064V110.752C136.135 110.773 136.14 110.789 136.151 110.8C136.172 110.811 136.188 110.805 136.199 110.784C136.668 110.123 137.388 109.792 138.359 109.792ZM139.063 108.352C138.86 108.352 138.684 108.32 138.535 108.256C138.385 108.192 138.231 108.107 138.071 108C137.879 107.883 137.729 107.803 137.623 107.76C137.516 107.717 137.399 107.696 137.271 107.696C137.079 107.696 136.913 107.728 136.775 107.792C136.647 107.845 136.519 107.947 136.391 108.096C136.327 108.192 136.252 108.203 136.167 108.128L135.879 107.84C135.804 107.765 135.793 107.691 135.847 107.616C136.199 107.093 136.657 106.832 137.223 106.832C137.393 106.832 137.543 106.859 137.671 106.912C137.809 106.965 137.932 107.024 138.039 107.088C138.156 107.141 138.231 107.179 138.263 107.2C138.305 107.221 138.38 107.264 138.487 107.328C138.604 107.392 138.705 107.44 138.791 107.472C138.887 107.504 138.977 107.52 139.063 107.52C139.415 107.52 139.697 107.371 139.911 107.072C139.975 106.965 140.049 106.955 140.135 107.04L140.423 107.312C140.497 107.387 140.503 107.467 140.439 107.552C140.289 107.808 140.087 108.005 139.831 108.144C139.585 108.283 139.329 108.352 139.063 108.352ZM146.712 118.128C145.944 118.128 145.282 117.931 144.728 117.536C144.173 117.141 143.789 116.597 143.576 115.904C143.426 115.413 143.352 114.757 143.352 113.936C143.352 113.115 143.426 112.464 143.576 111.984C143.778 111.301 144.157 110.763 144.712 110.368C145.266 109.973 145.938 109.776 146.728 109.776C147.485 109.776 148.136 109.973 148.68 110.368C149.234 110.763 149.613 111.296 149.816 111.968C149.965 112.427 150.04 113.083 150.04 113.936C150.04 114.8 149.965 115.456 149.816 115.904C149.613 116.597 149.234 117.141 148.68 117.536C148.136 117.931 147.48 118.128 146.712 118.128ZM146.712 117.136C147.224 117.136 147.661 116.997 148.024 116.72C148.386 116.432 148.632 116.048 148.76 115.568C148.856 115.184 148.904 114.645 148.904 113.952C148.904 113.248 148.861 112.709 148.776 112.336C148.648 111.856 148.397 111.477 148.024 111.2C147.661 110.912 147.218 110.768 146.696 110.768C146.173 110.768 145.73 110.912 145.368 111.2C145.005 111.477 144.76 111.856 144.632 112.336C144.546 112.709 144.504 113.248 144.504 113.952C144.504 114.656 144.546 115.195 144.632 115.568C144.749 116.048 144.989 116.432 145.352 116.72C145.725 116.997 146.178 117.136 146.712 117.136ZM158.906 109.792C159.759 109.792 160.436 110.043 160.938 110.544C161.45 111.045 161.706 111.717 161.706 112.56V117.84C161.706 117.947 161.652 118 161.546 118H160.73C160.623 118 160.57 117.947 160.57 117.84V112.784C160.57 112.197 160.388 111.717 160.026 111.344C159.674 110.971 159.215 110.784 158.65 110.784C158.063 110.784 157.588 110.965 157.226 111.328C156.863 111.691 156.682 112.165 156.682 112.752V117.84C156.682 117.947 156.628 118 156.522 118H155.706C155.599 118 155.546 117.947 155.546 117.84V110.064C155.546 109.957 155.599 109.904 155.706 109.904H156.522C156.628 109.904 156.682 109.957 156.682 110.064V110.752C156.682 110.773 156.687 110.789 156.698 110.8C156.719 110.811 156.735 110.805 156.746 110.784C157.215 110.123 157.935 109.792 158.906 109.792ZM169.067 110.064C169.067 109.957 169.12 109.904 169.227 109.904H170.043C170.149 109.904 170.203 109.957 170.203 110.064V117.84C170.203 117.947 170.149 118 170.043 118H169.227C169.12 118 169.067 117.947 169.067 117.84V117.152C169.067 117.131 169.056 117.115 169.035 117.104C169.013 117.093 168.997 117.099 168.987 117.12C168.539 117.781 167.829 118.112 166.859 118.112C166.347 118.112 165.872 118.011 165.435 117.808C165.008 117.595 164.667 117.291 164.411 116.896C164.165 116.501 164.043 116.027 164.043 115.472V110.064C164.043 109.957 164.096 109.904 164.203 109.904H165.019C165.125 109.904 165.179 109.957 165.179 110.064V115.136C165.179 115.744 165.349 116.229 165.691 116.592C166.032 116.944 166.496 117.12 167.083 117.12C167.691 117.12 168.171 116.939 168.523 116.576C168.885 116.213 169.067 115.733 169.067 115.136V110.064ZM178.957 112.592C178.999 112.891 179.021 113.264 179.021 113.712V114.224C179.021 114.331 178.967 114.384 178.861 114.384H173.693C173.65 114.384 173.629 114.405 173.629 114.448C173.65 115.035 173.682 115.413 173.725 115.584C173.842 116.064 174.093 116.443 174.477 116.72C174.861 116.997 175.351 117.136 175.949 117.136C176.397 117.136 176.791 117.035 177.133 116.832C177.474 116.629 177.741 116.341 177.933 115.968C177.997 115.872 178.071 115.851 178.157 115.904L178.781 116.272C178.866 116.325 178.887 116.4 178.845 116.496C178.578 117.008 178.178 117.413 177.645 117.712C177.111 118 176.498 118.144 175.805 118.144C175.047 118.133 174.413 117.952 173.901 117.6C173.389 117.248 173.021 116.757 172.797 116.128C172.605 115.616 172.509 114.88 172.509 113.92C172.509 113.472 172.514 113.109 172.525 112.832C172.546 112.544 172.589 112.288 172.653 112.064C172.834 111.371 173.197 110.816 173.741 110.4C174.295 109.984 174.962 109.776 175.741 109.776C176.711 109.776 177.458 110.021 177.981 110.512C178.503 111.003 178.829 111.696 178.957 112.592ZM175.741 110.768C175.218 110.768 174.781 110.907 174.429 111.184C174.087 111.451 173.863 111.813 173.757 112.272C173.693 112.496 173.65 112.859 173.629 113.36C173.629 113.403 173.65 113.424 173.693 113.424H177.837C177.879 113.424 177.901 113.403 177.901 113.36C177.879 112.88 177.847 112.539 177.805 112.336C177.687 111.856 177.447 111.477 177.085 111.2C176.733 110.912 176.285 110.768 175.741 110.768ZM183.141 118C183.045 118 182.981 117.957 182.949 117.872L180.325 110.08L180.309 110.016C180.309 109.941 180.357 109.904 180.453 109.904H181.365C181.461 109.904 181.525 109.947 181.557 110.032L183.557 116.304C183.568 116.325 183.584 116.336 183.605 116.336C183.626 116.336 183.642 116.325 183.653 116.304L185.653 110.032C185.685 109.947 185.749 109.904 185.845 109.904L186.757 109.92C186.874 109.92 186.917 109.979 186.885 110.096L184.261 117.872C184.229 117.957 184.165 118 184.069 118H183.141ZM191.493 118.128C190.725 118.128 190.064 117.931 189.509 117.536C188.954 117.141 188.57 116.597 188.357 115.904C188.208 115.413 188.133 114.757 188.133 113.936C188.133 113.115 188.208 112.464 188.357 111.984C188.56 111.301 188.938 110.763 189.493 110.368C190.048 109.973 190.72 109.776 191.509 109.776C192.266 109.776 192.917 109.973 193.461 110.368C194.016 110.763 194.394 111.296 194.597 111.968C194.746 112.427 194.821 113.083 194.821 113.936C194.821 114.8 194.746 115.456 194.597 115.904C194.394 116.597 194.016 117.141 193.461 117.536C192.917 117.931 192.261 118.128 191.493 118.128ZM191.493 117.136C192.005 117.136 192.442 116.997 192.805 116.72C193.168 116.432 193.413 116.048 193.541 115.568C193.637 115.184 193.685 114.645 193.685 113.952C193.685 113.248 193.642 112.709 193.557 112.336C193.429 111.856 193.178 111.477 192.805 111.2C192.442 110.912 192 110.768 191.477 110.768C190.954 110.768 190.512 110.912 190.149 111.2C189.786 111.477 189.541 111.856 189.413 112.336C189.328 112.709 189.285 113.248 189.285 113.952C189.285 114.656 189.328 115.195 189.413 115.568C189.53 116.048 189.77 116.432 190.133 116.72C190.506 116.997 190.96 117.136 191.493 117.136Z" fill="#2C3447"/>
<rect x="319" y="75" width="318" height="74" fill="white"/>
<rect x="319" y="75" width="318" height="74" stroke="#D8DCE5"/>
<path d="M456.064 115.184C456.064 115.995 455.797 116.661 455.264 117.184C454.741 117.707 454.005 118.016 453.056 118.112C453.013 118.112 452.992 118.133 452.992 118.176L453.008 119.328C453.008 119.435 452.955 119.488 452.848 119.488H452.144C452.037 119.488 451.984 119.435 451.984 119.328L452 118.176C452 118.133 451.979 118.112 451.936 118.112C450.965 118.005 450.208 117.691 449.664 117.168C449.12 116.635 448.848 115.957 448.848 115.136V114.64C448.848 114.533 448.901 114.48 449.008 114.48H449.728C449.835 114.48 449.888 114.533 449.888 114.64V115.072C449.888 115.691 450.128 116.192 450.608 116.576C451.099 116.949 451.771 117.136 452.624 117.136C453.392 117.136 453.979 116.965 454.384 116.624C454.789 116.272 454.992 115.808 454.992 115.232C454.992 114.859 454.896 114.539 454.704 114.272C454.523 114.005 454.24 113.755 453.856 113.52C453.472 113.285 452.923 113.013 452.208 112.704C451.44 112.384 450.848 112.107 450.432 111.872C450.027 111.627 449.691 111.317 449.424 110.944C449.168 110.56 449.04 110.08 449.04 109.504C449.04 108.683 449.291 108.032 449.792 107.552C450.293 107.061 450.987 106.773 451.872 106.688C451.915 106.688 451.936 106.667 451.936 106.624L451.92 105.376C451.92 105.269 451.973 105.216 452.08 105.216H452.768C452.875 105.216 452.928 105.269 452.928 105.376L452.912 106.64C452.912 106.683 452.933 106.704 452.976 106.704C453.915 106.811 454.651 107.131 455.184 107.664C455.717 108.197 455.984 108.88 455.984 109.712V110.064C455.984 110.171 455.931 110.224 455.824 110.224H455.072C454.965 110.224 454.912 110.171 454.912 110.064V109.776C454.912 109.157 454.683 108.651 454.224 108.256C453.765 107.861 453.131 107.664 452.32 107.664C451.605 107.664 451.056 107.819 450.672 108.128C450.288 108.437 450.096 108.885 450.096 109.472C450.096 109.856 450.187 110.176 450.368 110.432C450.56 110.677 450.827 110.896 451.168 111.088C451.52 111.269 452.059 111.509 452.784 111.808C453.52 112.128 454.112 112.427 454.56 112.704C455.019 112.981 455.381 113.323 455.648 113.728C455.925 114.123 456.064 114.608 456.064 115.184ZM467.021 112.704C467.234 113.227 467.341 113.851 467.341 114.576C467.341 115.163 467.261 115.68 467.101 116.128C466.887 116.768 466.525 117.264 466.013 117.616C465.511 117.957 464.887 118.128 464.141 118.128C463.394 118.128 462.754 117.936 462.221 117.552C461.687 117.157 461.319 116.629 461.117 115.968C461.021 115.669 460.962 115.264 460.941 114.752C460.941 114.645 460.994 114.592 461.101 114.592H461.917C462.023 114.592 462.077 114.645 462.077 114.752C462.098 115.061 462.135 115.349 462.189 115.616C462.306 116.085 462.53 116.459 462.861 116.736C463.202 117.003 463.623 117.136 464.125 117.136C465.085 117.136 465.709 116.709 465.997 115.856C466.125 115.504 466.189 115.067 466.189 114.544C466.189 113.904 466.103 113.381 465.933 112.976C465.591 112.208 464.989 111.824 464.125 111.824C463.965 111.824 463.767 111.883 463.533 112C463.49 112.021 463.458 112.032 463.437 112.032C463.394 112.032 463.357 112.005 463.325 111.952L462.909 111.392C462.855 111.307 462.861 111.232 462.925 111.168L465.741 107.872C465.773 107.819 465.762 107.792 465.709 107.792H461.197C461.09 107.792 461.037 107.739 461.037 107.632V106.96C461.037 106.853 461.09 106.8 461.197 106.8H467.117C467.223 106.8 467.277 106.853 467.277 106.96V107.744C467.277 107.797 467.25 107.861 467.197 107.936L464.637 111.008C464.615 111.029 464.61 111.051 464.621 111.072C464.631 111.083 464.653 111.088 464.685 111.088C465.826 111.163 466.605 111.701 467.021 112.704ZM475.255 112.704C475.468 113.227 475.575 113.851 475.575 114.576C475.575 115.163 475.495 115.68 475.335 116.128C475.122 116.768 474.759 117.264 474.247 117.616C473.746 117.957 473.122 118.128 472.375 118.128C471.628 118.128 470.988 117.936 470.455 117.552C469.922 117.157 469.554 116.629 469.351 115.968C469.255 115.669 469.196 115.264 469.175 114.752C469.175 114.645 469.228 114.592 469.335 114.592H470.151C470.258 114.592 470.311 114.645 470.311 114.752C470.332 115.061 470.37 115.349 470.423 115.616C470.54 116.085 470.764 116.459 471.095 116.736C471.436 117.003 471.858 117.136 472.359 117.136C473.319 117.136 473.943 116.709 474.231 115.856C474.359 115.504 474.423 115.067 474.423 114.544C474.423 113.904 474.338 113.381 474.167 112.976C473.826 112.208 473.223 111.824 472.359 111.824C472.199 111.824 472.002 111.883 471.767 112C471.724 112.021 471.692 112.032 471.671 112.032C471.628 112.032 471.591 112.005 471.559 111.952L471.143 111.392C471.09 111.307 471.095 111.232 471.159 111.168L473.975 107.872C474.007 107.819 473.996 107.792 473.943 107.792H469.431C469.324 107.792 469.271 107.739 469.271 107.632V106.96C469.271 106.853 469.324 106.8 469.431 106.8H475.351C475.458 106.8 475.511 106.853 475.511 106.96V107.744C475.511 107.797 475.484 107.861 475.431 107.936L472.871 111.008C472.85 111.029 472.844 111.051 472.855 111.072C472.866 111.083 472.887 111.088 472.919 111.088C474.06 111.163 474.839 111.701 475.255 112.704ZM478.817 117.968C478.551 117.968 478.332 117.883 478.161 117.712C478.001 117.541 477.921 117.328 477.921 117.072C477.921 116.805 478.001 116.592 478.161 116.432C478.332 116.261 478.551 116.176 478.817 116.176C479.073 116.176 479.287 116.261 479.457 116.432C479.628 116.592 479.713 116.805 479.713 117.072C479.713 117.328 479.628 117.541 479.457 117.712C479.287 117.883 479.073 117.968 478.817 117.968ZM485.012 118.16C483.988 118.16 483.172 117.867 482.564 117.28C481.956 116.693 481.652 115.909 481.652 114.928V109.872C481.652 108.891 481.956 108.112 482.564 107.536C483.172 106.949 483.988 106.656 485.012 106.656C486.046 106.656 486.873 106.949 487.492 107.536C488.11 108.123 488.42 108.901 488.42 109.872V114.928C488.42 115.909 488.11 116.693 487.492 117.28C486.873 117.867 486.046 118.16 485.012 118.16ZM485.012 117.168C485.694 117.168 486.244 116.971 486.66 116.576C487.076 116.181 487.284 115.653 487.284 114.992V109.824C487.284 109.173 487.076 108.651 486.66 108.256C486.254 107.861 485.705 107.664 485.012 107.664C484.34 107.664 483.801 107.861 483.396 108.256C482.99 108.651 482.788 109.173 482.788 109.824V114.992C482.788 115.653 482.99 116.181 483.396 116.576C483.801 116.971 484.34 117.168 485.012 117.168ZM494.059 118.16C493.035 118.16 492.219 117.867 491.611 117.28C491.003 116.693 490.699 115.909 490.699 114.928V109.872C490.699 108.891 491.003 108.112 491.611 107.536C492.219 106.949 493.035 106.656 494.059 106.656C495.093 106.656 495.92 106.949 496.539 107.536C497.157 108.123 497.467 108.901 497.467 109.872V114.928C497.467 115.909 497.157 116.693 496.539 117.28C495.92 117.867 495.093 118.16 494.059 118.16ZM494.059 117.168C494.741 117.168 495.291 116.971 495.707 116.576C496.123 116.181 496.331 115.653 496.331 114.992V109.824C496.331 109.173 496.123 108.651 495.707 108.256C495.301 107.861 494.752 107.664 494.059 107.664C493.387 107.664 492.848 107.861 492.443 108.256C492.037 108.651 491.835 109.173 491.835 109.824V114.992C491.835 115.653 492.037 116.181 492.443 116.576C492.848 116.971 493.387 117.168 494.059 117.168ZM503.105 118.16C502.081 118.16 501.265 117.867 500.657 117.28C500.049 116.693 499.745 115.909 499.745 114.928V109.872C499.745 108.891 500.049 108.112 500.657 107.536C501.265 106.949 502.081 106.656 503.105 106.656C504.14 106.656 504.967 106.949 505.585 107.536C506.204 108.123 506.513 108.901 506.513 109.872V114.928C506.513 115.909 506.204 116.693 505.585 117.28C504.967 117.867 504.14 118.16 503.105 118.16ZM503.105 117.168C503.788 117.168 504.337 116.971 504.753 116.576C505.169 116.181 505.377 115.653 505.377 114.992V109.824C505.377 109.173 505.169 108.651 504.753 108.256C504.348 107.861 503.799 107.664 503.105 107.664C502.433 107.664 501.895 107.861 501.489 108.256C501.084 108.651 500.881 109.173 500.881 109.824V114.992C500.881 115.653 501.084 116.181 501.489 116.576C501.895 116.971 502.433 117.168 503.105 117.168Z" fill="#2C3447"/>
<rect x="1" y="149" width="318" height="74" fill="#F5F6FA"/>
<rect x="1" y="149" width="318" height="74" stroke="#D8DCE5"/>
<path d="M83.38 180.848C83.444 180.816 83.5133 180.8 83.588 180.8H84.452C84.5587 180.8 84.612 180.853 84.612 180.96V191.84C84.612 191.947 84.5587 192 84.452 192H83.636C83.5293 192 83.476 191.947 83.476 191.84V182.096C83.476 182.075 83.4653 182.059 83.444 182.048C83.4333 182.037 83.4173 182.037 83.396 182.048L81.7 182.736L81.636 182.752C81.572 182.752 81.5293 182.709 81.508 182.624L81.428 182.016V181.984C81.428 181.931 81.4653 181.877 81.54 181.824L83.38 180.848ZM93.1498 187.296C93.3524 187.733 93.4538 188.256 93.4538 188.864C93.4538 189.6 93.2991 190.224 92.9898 190.736C92.7338 191.173 92.3711 191.515 91.9018 191.76C91.4324 192.005 90.8884 192.128 90.2698 192.128C89.6298 192.128 89.0698 192.005 88.5898 191.76C88.1098 191.504 87.7418 191.136 87.4858 190.656C87.1871 190.123 87.0378 189.52 87.0378 188.848C87.0378 188.283 87.1498 187.749 87.3738 187.248C87.6191 186.715 88.0084 186.315 88.5418 186.048C88.5951 186.027 88.5951 186 88.5418 185.968C88.1898 185.765 87.9018 185.493 87.6778 185.152C87.3578 184.693 87.1978 184.171 87.1978 183.584C87.1978 182.987 87.3578 182.443 87.6778 181.952C87.9338 181.536 88.2858 181.216 88.7338 180.992C89.1924 180.757 89.7044 180.64 90.2698 180.64C90.8564 180.64 91.3684 180.757 91.8058 180.992C92.2431 181.216 92.5898 181.536 92.8458 181.952C93.1551 182.453 93.3098 182.997 93.3098 183.584C93.3098 184.171 93.1498 184.704 92.8298 185.184C92.6378 185.472 92.3551 185.733 91.9818 185.968C91.9284 186 91.9284 186.027 91.9818 186.048C92.5258 186.315 92.9151 186.731 93.1498 187.296ZM88.5738 182.64C88.4031 182.96 88.3178 183.275 88.3178 183.584C88.3178 184.032 88.4298 184.421 88.6538 184.752C88.8244 185.019 89.0431 185.221 89.3098 185.36C89.5871 185.499 89.9018 185.568 90.2538 185.568C90.6058 185.568 90.9204 185.499 91.1978 185.36C91.4751 185.211 91.6991 185.003 91.8698 184.736C92.0724 184.448 92.1738 184.059 92.1738 183.568C92.1738 183.216 92.0938 182.896 91.9338 182.608C91.7738 182.309 91.5498 182.075 91.2618 181.904C90.9738 181.723 90.6324 181.632 90.2378 181.632C89.8644 181.632 89.5338 181.723 89.2458 181.904C88.9578 182.085 88.7338 182.331 88.5738 182.64ZM91.9178 190.304C92.1844 189.899 92.3178 189.392 92.3178 188.784C92.3178 188.283 92.2324 187.851 92.0618 187.488C91.7418 186.784 91.1391 186.432 90.2538 186.432C89.4111 186.432 88.8244 186.763 88.4938 187.424C88.3018 187.765 88.2057 188.224 88.2057 188.8C88.2057 189.397 88.3231 189.883 88.5578 190.256C88.9204 190.843 89.4911 191.136 90.2698 191.136C91.0271 191.136 91.5764 190.859 91.9178 190.304ZM98.5526 195.2C98.478 195.2 98.4406 195.147 98.4406 195.04V194.4C98.4406 194.293 98.494 194.24 98.6006 194.24H98.6646C99.0806 194.229 99.4006 194.165 99.6246 194.048C99.8593 193.941 100.057 193.733 100.217 193.424C100.387 193.125 100.569 192.667 100.761 192.048C100.782 192.005 100.782 191.973 100.761 191.952L98.0566 184.08L98.0406 184.016C98.0406 183.941 98.0886 183.904 98.1846 183.904H99.0326C99.1286 183.904 99.1926 183.947 99.2246 184.032L101.305 190.496C101.315 190.517 101.331 190.528 101.353 190.528C101.374 190.528 101.39 190.517 101.401 190.496L103.449 184.032C103.481 183.947 103.545 183.904 103.641 183.904H104.473C104.59 183.904 104.633 183.963 104.601 184.08L101.641 192.704C101.385 193.419 101.145 193.947 100.921 194.288C100.697 194.629 100.414 194.864 100.073 194.992C99.742 195.131 99.2726 195.2 98.6646 195.2H98.5526ZM105.187 192C105.07 192 105.027 191.941 105.059 191.824L108.595 180.928C108.627 180.843 108.691 180.8 108.787 180.8H109.587C109.705 180.8 109.747 180.859 109.715 180.976L106.179 191.872C106.147 191.957 106.083 192 105.987 192H105.187ZM114.243 192.128C113.475 192.128 112.814 191.931 112.259 191.536C111.704 191.141 111.32 190.597 111.107 189.904C110.958 189.413 110.883 188.757 110.883 187.936C110.883 187.115 110.958 186.464 111.107 185.984C111.31 185.301 111.688 184.763 112.243 184.368C112.798 183.973 113.47 183.776 114.259 183.776C115.016 183.776 115.667 183.973 116.211 184.368C116.766 184.763 117.144 185.296 117.347 185.968C117.496 186.427 117.571 187.083 117.571 187.936C117.571 188.8 117.496 189.456 117.347 189.904C117.144 190.597 116.766 191.141 116.211 191.536C115.667 191.931 115.011 192.128 114.243 192.128ZM114.243 191.136C114.755 191.136 115.192 190.997 115.555 190.72C115.918 190.432 116.163 190.048 116.291 189.568C116.387 189.184 116.435 188.645 116.435 187.952C116.435 187.248 116.392 186.709 116.307 186.336C116.179 185.856 115.928 185.477 115.555 185.2C115.192 184.912 114.75 184.768 114.227 184.768C113.704 184.768 113.262 184.912 112.899 185.2C112.536 185.477 112.291 185.856 112.163 186.336C112.078 186.709 112.035 187.248 112.035 187.952C112.035 188.656 112.078 189.195 112.163 189.568C112.28 190.048 112.52 190.432 112.883 190.72C113.256 190.997 113.71 191.136 114.243 191.136ZM124.677 180.848C124.741 180.816 124.81 180.8 124.885 180.8H125.749C125.856 180.8 125.909 180.853 125.909 180.96V191.84C125.909 191.947 125.856 192 125.749 192H124.933C124.826 192 124.773 191.947 124.773 191.84V182.096C124.773 182.075 124.762 182.059 124.741 182.048C124.73 182.037 124.714 182.037 124.693 182.048L122.997 182.736L122.933 182.752C122.869 182.752 122.826 182.709 122.805 182.624L122.725 182.016V181.984C122.725 181.931 122.762 181.877 122.837 181.824L124.677 180.848ZM134.495 182.768C134.623 183.195 134.687 183.696 134.687 184.272V189.264C134.687 190.139 134.399 190.837 133.823 191.36C133.247 191.872 132.495 192.128 131.567 192.128C130.671 192.128 129.94 191.877 129.375 191.376C128.82 190.864 128.543 190.203 128.543 189.392V189.168C128.543 189.061 128.596 189.008 128.703 189.008H129.519C129.625 189.008 129.679 189.061 129.679 189.168V189.296C129.679 189.84 129.855 190.283 130.207 190.624C130.559 190.965 131.012 191.136 131.567 191.136C132.143 191.136 132.617 190.96 132.991 190.608C133.364 190.245 133.551 189.771 133.551 189.184V186.848C133.551 186.827 133.54 186.816 133.519 186.816C133.497 186.805 133.481 186.811 133.471 186.832C133.001 187.461 132.297 187.776 131.359 187.776C130.687 187.776 130.121 187.627 129.663 187.328C129.215 187.029 128.873 186.608 128.639 186.064C128.415 185.616 128.303 185.008 128.303 184.24C128.303 183.589 128.383 183.056 128.543 182.64C128.767 182.021 129.124 181.541 129.615 181.2C130.116 180.859 130.729 180.688 131.455 180.688C132.223 180.688 132.868 180.875 133.391 181.248C133.924 181.611 134.292 182.117 134.495 182.768ZM131.503 186.784C131.972 186.784 132.367 186.672 132.687 186.448C133.017 186.213 133.247 185.893 133.375 185.488C133.492 185.179 133.551 184.747 133.551 184.192C133.551 183.733 133.503 183.344 133.407 183.024C133.279 182.619 133.049 182.293 132.719 182.048C132.388 181.803 131.983 181.68 131.503 181.68C131.044 181.68 130.649 181.797 130.319 182.032C129.988 182.256 129.753 182.587 129.615 183.024C129.497 183.323 129.439 183.728 129.439 184.24C129.439 184.784 129.508 185.211 129.647 185.52C129.775 185.904 129.999 186.213 130.319 186.448C130.639 186.672 131.033 186.784 131.503 186.784ZM145.242 180.96C145.242 180.853 145.295 180.8 145.402 180.8H146.218C146.324 180.8 146.378 180.853 146.378 180.96V191.84C146.378 191.947 146.324 192 146.218 192H145.402C145.295 192 145.242 191.947 145.242 191.84V191.168C145.242 191.147 145.231 191.136 145.21 191.136C145.199 191.125 145.183 191.131 145.162 191.152C144.927 191.461 144.634 191.701 144.282 191.872C143.94 192.043 143.556 192.128 143.13 192.128C142.383 192.128 141.754 191.936 141.242 191.552C140.74 191.168 140.394 190.645 140.202 189.984C140.052 189.504 139.978 188.827 139.978 187.952C139.978 187.067 140.042 186.405 140.17 185.968C140.362 185.285 140.714 184.752 141.226 184.368C141.738 183.973 142.372 183.776 143.13 183.776C143.546 183.776 143.93 183.861 144.282 184.032C144.634 184.192 144.927 184.427 145.162 184.736C145.183 184.757 145.199 184.768 145.21 184.768C145.231 184.757 145.242 184.741 145.242 184.72V180.96ZM144.954 189.904C145.05 189.691 145.119 189.44 145.162 189.152C145.204 188.864 145.226 188.464 145.226 187.952C145.226 187.44 145.204 187.04 145.162 186.752C145.119 186.453 145.044 186.192 144.938 185.968C144.81 185.605 144.596 185.317 144.298 185.104C144.01 184.88 143.663 184.768 143.258 184.768C142.831 184.768 142.463 184.875 142.154 185.088C141.844 185.301 141.62 185.584 141.482 185.936C141.354 186.171 141.258 186.437 141.194 186.736C141.14 187.024 141.114 187.429 141.114 187.952C141.114 188.453 141.135 188.848 141.178 189.136C141.22 189.413 141.295 189.664 141.402 189.888C141.53 190.272 141.754 190.576 142.074 190.8C142.404 191.024 142.794 191.136 143.242 191.136C143.668 191.136 144.026 191.024 144.314 190.8C144.602 190.576 144.815 190.277 144.954 189.904ZM155.16 186.592C155.203 186.891 155.224 187.264 155.224 187.712V188.224C155.224 188.331 155.171 188.384 155.064 188.384H149.896C149.853 188.384 149.832 188.405 149.832 188.448C149.853 189.035 149.885 189.413 149.928 189.584C150.045 190.064 150.296 190.443 150.68 190.72C151.064 190.997 151.555 191.136 152.152 191.136C152.6 191.136 152.995 191.035 153.336 190.832C153.677 190.629 153.944 190.341 154.136 189.968C154.2 189.872 154.275 189.851 154.36 189.904L154.984 190.272C155.069 190.325 155.091 190.4 155.048 190.496C154.781 191.008 154.381 191.413 153.848 191.712C153.315 192 152.701 192.144 152.008 192.144C151.251 192.133 150.616 191.952 150.104 191.6C149.592 191.248 149.224 190.757 149 190.128C148.808 189.616 148.712 188.88 148.712 187.92C148.712 187.472 148.717 187.109 148.728 186.832C148.749 186.544 148.792 186.288 148.856 186.064C149.037 185.371 149.4 184.816 149.944 184.4C150.499 183.984 151.165 183.776 151.944 183.776C152.915 183.776 153.661 184.021 154.184 184.512C154.707 185.003 155.032 185.696 155.16 186.592ZM151.944 184.768C151.421 184.768 150.984 184.907 150.632 185.184C150.291 185.451 150.067 185.813 149.96 186.272C149.896 186.496 149.853 186.859 149.832 187.36C149.832 187.403 149.853 187.424 149.896 187.424H154.04C154.083 187.424 154.104 187.403 154.104 187.36C154.083 186.88 154.051 186.539 154.008 186.336C153.891 185.856 153.651 185.477 153.288 185.2C152.936 184.912 152.488 184.768 151.944 184.768ZM163.342 192.08C162.745 192.08 162.212 191.984 161.742 191.792C161.284 191.6 160.926 191.344 160.67 191.024C160.425 190.704 160.302 190.347 160.302 189.952V189.76C160.302 189.653 160.356 189.6 160.462 189.6H161.23C161.337 189.6 161.39 189.653 161.39 189.76V189.888C161.39 190.24 161.572 190.549 161.934 190.816C162.308 191.072 162.772 191.2 163.326 191.2C163.881 191.2 164.329 191.077 164.67 190.832C165.012 190.576 165.182 190.256 165.182 189.872C165.182 189.605 165.092 189.387 164.91 189.216C164.74 189.045 164.532 188.912 164.286 188.816C164.052 188.72 163.684 188.597 163.182 188.448C162.585 188.277 162.094 188.107 161.71 187.936C161.326 187.765 161.001 187.531 160.734 187.232C160.478 186.923 160.35 186.533 160.35 186.064C160.35 185.381 160.617 184.837 161.15 184.432C161.684 184.027 162.388 183.824 163.262 183.824C163.849 183.824 164.366 183.92 164.814 184.112C165.273 184.304 165.625 184.571 165.87 184.912C166.116 185.243 166.238 185.616 166.238 186.032V186.08C166.238 186.187 166.185 186.24 166.078 186.24H165.326C165.22 186.24 165.166 186.187 165.166 186.08V186.032C165.166 185.669 164.99 185.365 164.638 185.12C164.297 184.875 163.833 184.752 163.246 184.752C162.702 184.752 162.265 184.864 161.934 185.088C161.604 185.301 161.438 185.6 161.438 185.984C161.438 186.347 161.598 186.624 161.918 186.816C162.238 187.008 162.734 187.2 163.406 187.392C164.025 187.573 164.526 187.744 164.91 187.904C165.294 188.064 165.625 188.299 165.902 188.608C166.18 188.907 166.318 189.301 166.318 189.792C166.318 190.485 166.046 191.04 165.502 191.456C164.958 191.872 164.238 192.08 163.342 192.08ZM174.597 186.592C174.64 186.891 174.661 187.264 174.661 187.712V188.224C174.661 188.331 174.608 188.384 174.501 188.384H169.333C169.291 188.384 169.269 188.405 169.269 188.448C169.291 189.035 169.323 189.413 169.365 189.584C169.483 190.064 169.733 190.443 170.117 190.72C170.501 190.997 170.992 191.136 171.589 191.136C172.037 191.136 172.432 191.035 172.773 190.832C173.115 190.629 173.381 190.341 173.573 189.968C173.637 189.872 173.712 189.851 173.797 189.904L174.421 190.272C174.507 190.325 174.528 190.4 174.485 190.496C174.219 191.008 173.819 191.413 173.285 191.712C172.752 192 172.139 192.144 171.445 192.144C170.688 192.133 170.053 191.952 169.541 191.6C169.029 191.248 168.661 190.757 168.437 190.128C168.245 189.616 168.149 188.88 168.149 187.92C168.149 187.472 168.155 187.109 168.165 186.832C168.187 186.544 168.229 186.288 168.293 186.064C168.475 185.371 168.837 184.816 169.381 184.4C169.936 183.984 170.603 183.776 171.381 183.776C172.352 183.776 173.099 184.021 173.621 184.512C174.144 185.003 174.469 185.696 174.597 186.592ZM171.381 184.768C170.859 184.768 170.421 184.907 170.069 185.184C169.728 185.451 169.504 185.813 169.397 186.272C169.333 186.496 169.291 186.859 169.269 187.36C169.269 187.403 169.291 187.424 169.333 187.424H173.477C173.52 187.424 173.541 187.403 173.541 187.36C173.52 186.88 173.488 186.539 173.445 186.336C173.328 185.856 173.088 185.477 172.725 185.2C172.373 184.912 171.925 184.768 171.381 184.768ZM183.209 185.92C183.369 186.432 183.449 187.109 183.449 187.952C183.449 188.805 183.379 189.467 183.241 189.936C183.049 190.619 182.697 191.157 182.185 191.552C181.683 191.936 181.049 192.128 180.281 192.128C179.865 192.128 179.481 192.048 179.129 191.888C178.777 191.717 178.483 191.477 178.249 191.168C178.227 191.147 178.206 191.141 178.185 191.152C178.174 191.152 178.169 191.163 178.169 191.184V194.944C178.169 195.051 178.115 195.104 178.009 195.104H177.193C177.086 195.104 177.033 195.051 177.033 194.944V184.064C177.033 183.957 177.086 183.904 177.193 183.904H178.009C178.115 183.904 178.169 183.957 178.169 184.064V184.736C178.169 184.757 178.174 184.773 178.185 184.784C178.206 184.784 178.227 184.773 178.249 184.752C178.483 184.443 178.771 184.203 179.113 184.032C179.465 183.861 179.854 183.776 180.281 183.776C181.027 183.776 181.651 183.968 182.153 184.352C182.665 184.736 183.017 185.259 183.209 185.92ZM181.945 189.968C182.062 189.733 182.147 189.472 182.201 189.184C182.265 188.885 182.297 188.475 182.297 187.952C182.297 187.451 182.275 187.061 182.233 186.784C182.19 186.496 182.115 186.24 182.009 186.016C181.881 185.632 181.651 185.328 181.321 185.104C181.001 184.88 180.617 184.768 180.169 184.768C179.742 184.768 179.385 184.88 179.097 185.104C178.809 185.328 178.595 185.627 178.457 186C178.361 186.213 178.291 186.464 178.249 186.752C178.206 187.04 178.185 187.44 178.185 187.952C178.185 188.464 178.206 188.869 178.249 189.168C178.291 189.456 178.366 189.712 178.473 189.936C178.601 190.299 178.809 190.592 179.097 190.816C179.395 191.029 179.747 191.136 180.153 191.136C180.579 191.136 180.947 191.029 181.257 190.816C181.577 190.603 181.806 190.32 181.945 189.968ZM189.381 184.688C189.381 184.795 189.327 184.848 189.221 184.848H187.413C187.37 184.848 187.349 184.869 187.349 184.912V189.632C187.349 190.144 187.461 190.507 187.685 190.72C187.919 190.923 188.282 191.024 188.773 191.024H189.173C189.279 191.024 189.333 191.077 189.333 191.184V191.84C189.333 191.947 189.279 192 189.173 192C189.045 192.011 188.847 192.016 188.581 192.016C187.813 192.016 187.231 191.872 186.837 191.584C186.442 191.296 186.245 190.763 186.245 189.984V184.912C186.245 184.869 186.223 184.848 186.181 184.848H185.205C185.098 184.848 185.045 184.795 185.045 184.688V184.064C185.045 183.957 185.098 183.904 185.205 183.904H186.181C186.223 183.904 186.245 183.883 186.245 183.84V181.984C186.245 181.877 186.298 181.824 186.405 181.824H187.189C187.295 181.824 187.349 181.877 187.349 181.984V183.84C187.349 183.883 187.37 183.904 187.413 183.904H189.221C189.327 183.904 189.381 183.957 189.381 184.064V184.688ZM192.345 182.432C192.089 182.432 191.876 182.347 191.705 182.176C191.534 182.005 191.449 181.792 191.449 181.536C191.449 181.269 191.534 181.056 191.705 180.896C191.876 180.725 192.089 180.64 192.345 180.64C192.601 180.64 192.814 180.725 192.985 180.896C193.156 181.056 193.241 181.269 193.241 181.536C193.241 181.792 193.156 182.005 192.985 182.176C192.814 182.347 192.601 182.432 192.345 182.432ZM191.897 191.984C191.79 191.984 191.737 191.931 191.737 191.824V184.048C191.737 183.941 191.79 183.888 191.897 183.888H192.713C192.82 183.888 192.873 183.941 192.873 184.048V191.824C192.873 191.931 192.82 191.984 192.713 191.984H191.897ZM201.863 186.592C201.906 186.891 201.927 187.264 201.927 187.712V188.224C201.927 188.331 201.874 188.384 201.767 188.384H196.599C196.556 188.384 196.535 188.405 196.535 188.448C196.556 189.035 196.588 189.413 196.631 189.584C196.748 190.064 196.999 190.443 197.383 190.72C197.767 190.997 198.258 191.136 198.855 191.136C199.303 191.136 199.698 191.035 200.039 190.832C200.38 190.629 200.647 190.341 200.839 189.968C200.903 189.872 200.978 189.851 201.063 189.904L201.687 190.272C201.772 190.325 201.794 190.4 201.751 190.496C201.484 191.008 201.084 191.413 200.551 191.712C200.018 192 199.404 192.144 198.711 192.144C197.954 192.133 197.319 191.952 196.807 191.6C196.295 191.248 195.927 190.757 195.703 190.128C195.511 189.616 195.415 188.88 195.415 187.92C195.415 187.472 195.42 187.109 195.431 186.832C195.452 186.544 195.495 186.288 195.559 186.064C195.74 185.371 196.103 184.816 196.647 184.4C197.202 183.984 197.868 183.776 198.647 183.776C199.618 183.776 200.364 184.021 200.887 184.512C201.41 185.003 201.735 185.696 201.863 186.592ZM198.647 184.768C198.124 184.768 197.687 184.907 197.335 185.184C196.994 185.451 196.77 185.813 196.663 186.272C196.599 186.496 196.556 186.859 196.535 187.36C196.535 187.403 196.556 187.424 196.599 187.424H200.743C200.786 187.424 200.807 187.403 200.807 187.36C200.786 186.88 200.754 186.539 200.711 186.336C200.594 185.856 200.354 185.477 199.991 185.2C199.639 184.912 199.191 184.768 198.647 184.768ZM212.378 183.792C213.178 183.792 213.808 184.032 214.266 184.512C214.736 184.992 214.97 185.648 214.97 186.48V191.84C214.97 191.947 214.917 192 214.81 192H214.01C213.904 192 213.85 191.947 213.85 191.84V186.704C213.85 186.117 213.68 185.653 213.338 185.312C213.008 184.96 212.57 184.784 212.026 184.784C211.461 184.784 211.002 184.955 210.65 185.296C210.309 185.637 210.138 186.096 210.138 186.672V191.84C210.138 191.947 210.085 192 209.978 192H209.162C209.056 192 209.002 191.947 209.002 191.84V186.704C209.002 186.117 208.837 185.653 208.506 185.312C208.176 184.96 207.733 184.784 207.178 184.784C206.613 184.784 206.16 184.955 205.818 185.296C205.488 185.637 205.322 186.096 205.322 186.672V191.84C205.322 191.947 205.269 192 205.162 192H204.346C204.24 192 204.186 191.947 204.186 191.84V184.064C204.186 183.957 204.24 183.904 204.346 183.904H205.162C205.269 183.904 205.322 183.957 205.322 184.064V184.704C205.322 184.725 205.328 184.741 205.338 184.752C205.36 184.752 205.381 184.741 205.402 184.72C205.637 184.411 205.936 184.181 206.298 184.032C206.672 183.872 207.082 183.792 207.53 183.792C208.085 183.792 208.56 183.904 208.954 184.128C209.349 184.352 209.648 184.677 209.85 185.104C209.872 185.157 209.898 185.157 209.93 185.104C210.165 184.667 210.496 184.341 210.922 184.128C211.349 183.904 211.834 183.792 212.378 183.792ZM223.629 185.968C223.757 186.448 223.821 187.109 223.821 187.952C223.821 188.827 223.746 189.504 223.597 189.984C223.394 190.645 223.042 191.168 222.541 191.552C222.04 191.936 221.416 192.128 220.669 192.128C220.242 192.128 219.853 192.043 219.501 191.872C219.149 191.701 218.856 191.456 218.621 191.136C218.61 191.115 218.594 191.109 218.573 191.12C218.552 191.12 218.541 191.131 218.541 191.152V191.84C218.541 191.947 218.488 192 218.381 192H217.565C217.458 192 217.405 191.947 217.405 191.84V180.96C217.405 180.853 217.458 180.8 217.565 180.8H218.381C218.488 180.8 218.541 180.853 218.541 180.96V184.736C218.541 184.757 218.546 184.773 218.557 184.784C218.578 184.784 218.6 184.773 218.621 184.752C218.856 184.443 219.149 184.203 219.501 184.032C219.853 183.861 220.242 183.776 220.669 183.776C221.426 183.776 222.061 183.973 222.573 184.368C223.085 184.752 223.437 185.285 223.629 185.968ZM222.397 189.888C222.504 189.664 222.578 189.413 222.621 189.136C222.664 188.848 222.685 188.453 222.685 187.952C222.685 187.429 222.653 187.024 222.589 186.736C222.536 186.437 222.445 186.171 222.317 185.936C222.178 185.584 221.954 185.301 221.645 185.088C221.336 184.875 220.968 184.768 220.541 184.768C220.136 184.768 219.784 184.88 219.485 185.104C219.197 185.317 218.989 185.605 218.861 185.968C218.754 186.192 218.674 186.448 218.621 186.736C218.578 187.024 218.557 187.429 218.557 187.952C218.557 188.464 218.578 188.864 218.621 189.152C218.674 189.429 218.749 189.68 218.845 189.904C218.984 190.277 219.197 190.576 219.485 190.8C219.773 191.024 220.13 191.136 220.557 191.136C221.005 191.136 221.389 191.024 221.709 190.8C222.04 190.576 222.269 190.272 222.397 189.888ZM229.403 183.824C229.755 183.824 230.059 183.893 230.315 184.032C230.401 184.075 230.433 184.144 230.411 184.24L230.235 185.024C230.203 185.131 230.134 185.163 230.027 185.12C229.846 185.045 229.638 185.008 229.403 185.008L229.195 185.024C228.641 185.045 228.182 185.253 227.819 185.648C227.457 186.032 227.275 186.523 227.275 187.12V191.84C227.275 191.947 227.222 192 227.115 192H226.299C226.193 192 226.139 191.947 226.139 191.84V184.064C226.139 183.957 226.193 183.904 226.299 183.904H227.115C227.222 183.904 227.275 183.957 227.275 184.064V185.04C227.275 185.072 227.281 185.093 227.291 185.104C227.313 185.104 227.329 185.093 227.339 185.072C227.563 184.677 227.846 184.373 228.187 184.16C228.539 183.936 228.945 183.824 229.403 183.824ZM238.097 186.592C238.14 186.891 238.161 187.264 238.161 187.712V188.224C238.161 188.331 238.108 188.384 238.001 188.384H232.833C232.791 188.384 232.769 188.405 232.769 188.448C232.791 189.035 232.823 189.413 232.865 189.584C232.983 190.064 233.233 190.443 233.617 190.72C234.001 190.997 234.492 191.136 235.089 191.136C235.537 191.136 235.932 191.035 236.273 190.832C236.615 190.629 236.881 190.341 237.073 189.968C237.137 189.872 237.212 189.851 237.297 189.904L237.921 190.272C238.007 190.325 238.028 190.4 237.985 190.496C237.719 191.008 237.319 191.413 236.785 191.712C236.252 192 235.639 192.144 234.945 192.144C234.188 192.133 233.553 191.952 233.041 191.6C232.529 191.248 232.161 190.757 231.937 190.128C231.745 189.616 231.649 188.88 231.649 187.92C231.649 187.472 231.655 187.109 231.665 186.832C231.687 186.544 231.729 186.288 231.793 186.064C231.975 185.371 232.337 184.816 232.881 184.4C233.436 183.984 234.103 183.776 234.881 183.776C235.852 183.776 236.599 184.021 237.121 184.512C237.644 185.003 237.969 185.696 238.097 186.592ZM234.881 184.768C234.359 184.768 233.921 184.907 233.569 185.184C233.228 185.451 233.004 185.813 232.897 186.272C232.833 186.496 232.791 186.859 232.769 187.36C232.769 187.403 232.791 187.424 232.833 187.424H236.977C237.02 187.424 237.041 187.403 237.041 187.36C237.02 186.88 236.988 186.539 236.945 186.336C236.828 185.856 236.588 185.477 236.225 185.2C235.873 184.912 235.425 184.768 234.881 184.768Z" fill="#2C3447"/>
<rect x="319" y="149" width="318" height="74" fill="#F5F6FA"/>
<rect x="319" y="149" width="318" height="74" stroke="#D8DCE5"/>
<path d="M455.564 189.184C455.564 189.995 455.297 190.661 454.764 191.184C454.241 191.707 453.505 192.016 452.556 192.112C452.513 192.112 452.492 192.133 452.492 192.176L452.508 193.328C452.508 193.435 452.455 193.488 452.348 193.488H451.644C451.537 193.488 451.484 193.435 451.484 193.328L451.5 192.176C451.5 192.133 451.479 192.112 451.436 192.112C450.465 192.005 449.708 191.691 449.164 191.168C448.62 190.635 448.348 189.957 448.348 189.136V188.64C448.348 188.533 448.401 188.48 448.508 188.48H449.228C449.335 188.48 449.388 188.533 449.388 188.64V189.072C449.388 189.691 449.628 190.192 450.108 190.576C450.599 190.949 451.271 191.136 452.124 191.136C452.892 191.136 453.479 190.965 453.884 190.624C454.289 190.272 454.492 189.808 454.492 189.232C454.492 188.859 454.396 188.539 454.204 188.272C454.023 188.005 453.74 187.755 453.356 187.52C452.972 187.285 452.423 187.013 451.708 186.704C450.94 186.384 450.348 186.107 449.932 185.872C449.527 185.627 449.191 185.317 448.924 184.944C448.668 184.56 448.54 184.08 448.54 183.504C448.54 182.683 448.791 182.032 449.292 181.552C449.793 181.061 450.487 180.773 451.372 180.688C451.415 180.688 451.436 180.667 451.436 180.624L451.42 179.376C451.42 179.269 451.473 179.216 451.58 179.216H452.268C452.375 179.216 452.428 179.269 452.428 179.376L452.412 180.64C452.412 180.683 452.433 180.704 452.476 180.704C453.415 180.811 454.151 181.131 454.684 181.664C455.217 182.197 455.484 182.88 455.484 183.712V184.064C455.484 184.171 455.431 184.224 455.324 184.224H454.572C454.465 184.224 454.412 184.171 454.412 184.064V183.776C454.412 183.157 454.183 182.651 453.724 182.256C453.265 181.861 452.631 181.664 451.82 181.664C451.105 181.664 450.556 181.819 450.172 182.128C449.788 182.437 449.596 182.885 449.596 183.472C449.596 183.856 449.687 184.176 449.868 184.432C450.06 184.677 450.327 184.896 450.668 185.088C451.02 185.269 451.559 185.509 452.284 185.808C453.02 186.128 453.612 186.427 454.06 186.704C454.519 186.981 454.881 187.323 455.148 187.728C455.425 188.123 455.564 188.608 455.564 189.184ZM466.521 186.704C466.734 187.227 466.841 187.851 466.841 188.576C466.841 189.163 466.761 189.68 466.601 190.128C466.387 190.768 466.025 191.264 465.513 191.616C465.011 191.957 464.387 192.128 463.641 192.128C462.894 192.128 462.254 191.936 461.721 191.552C461.187 191.157 460.819 190.629 460.617 189.968C460.521 189.669 460.462 189.264 460.441 188.752C460.441 188.645 460.494 188.592 460.601 188.592H461.417C461.523 188.592 461.577 188.645 461.577 188.752C461.598 189.061 461.635 189.349 461.689 189.616C461.806 190.085 462.03 190.459 462.361 190.736C462.702 191.003 463.123 191.136 463.625 191.136C464.585 191.136 465.209 190.709 465.497 189.856C465.625 189.504 465.689 189.067 465.689 188.544C465.689 187.904 465.603 187.381 465.433 186.976C465.091 186.208 464.489 185.824 463.625 185.824C463.465 185.824 463.267 185.883 463.033 186C462.99 186.021 462.958 186.032 462.937 186.032C462.894 186.032 462.857 186.005 462.825 185.952L462.409 185.392C462.355 185.307 462.361 185.232 462.425 185.168L465.241 181.872C465.273 181.819 465.262 181.792 465.209 181.792H460.697C460.59 181.792 460.537 181.739 460.537 181.632V180.96C460.537 180.853 460.59 180.8 460.697 180.8H466.617C466.723 180.8 466.777 180.853 466.777 180.96V181.744C466.777 181.797 466.75 181.861 466.697 181.936L464.137 185.008C464.115 185.029 464.11 185.051 464.121 185.072C464.131 185.083 464.153 185.088 464.185 185.088C465.326 185.163 466.105 185.701 466.521 186.704ZM472.371 192.16C471.347 192.16 470.531 191.867 469.923 191.28C469.315 190.693 469.011 189.909 469.011 188.928V183.872C469.011 182.891 469.315 182.112 469.923 181.536C470.531 180.949 471.347 180.656 472.371 180.656C473.406 180.656 474.232 180.949 474.851 181.536C475.47 182.123 475.779 182.901 475.779 183.872V188.928C475.779 189.909 475.47 190.693 474.851 191.28C474.232 191.867 473.406 192.16 472.371 192.16ZM472.371 191.168C473.054 191.168 473.603 190.971 474.019 190.576C474.435 190.181 474.643 189.653 474.643 188.992V183.824C474.643 183.173 474.435 182.651 474.019 182.256C473.614 181.861 473.064 181.664 472.371 181.664C471.699 181.664 471.16 181.861 470.755 182.256C470.35 182.651 470.147 183.173 470.147 183.824V188.992C470.147 189.653 470.35 190.181 470.755 190.576C471.16 190.971 471.699 191.168 472.371 191.168ZM479.13 191.968C478.863 191.968 478.645 191.883 478.474 191.712C478.314 191.541 478.234 191.328 478.234 191.072C478.234 190.805 478.314 190.592 478.474 190.432C478.645 190.261 478.863 190.176 479.13 190.176C479.386 190.176 479.599 190.261 479.77 190.432C479.941 190.592 480.026 190.805 480.026 191.072C480.026 191.328 479.941 191.541 479.77 191.712C479.599 191.883 479.386 191.968 479.13 191.968ZM485.324 192.16C484.3 192.16 483.484 191.867 482.876 191.28C482.268 190.693 481.964 189.909 481.964 188.928V183.872C481.964 182.891 482.268 182.112 482.876 181.536C483.484 180.949 484.3 180.656 485.324 180.656C486.359 180.656 487.185 180.949 487.804 181.536C488.423 182.123 488.732 182.901 488.732 183.872V188.928C488.732 189.909 488.423 190.693 487.804 191.28C487.185 191.867 486.359 192.16 485.324 192.16ZM485.324 191.168C486.007 191.168 486.556 190.971 486.972 190.576C487.388 190.181 487.596 189.653 487.596 188.992V183.824C487.596 183.173 487.388 182.651 486.972 182.256C486.567 181.861 486.017 181.664 485.324 181.664C484.652 181.664 484.113 181.861 483.708 182.256C483.303 182.651 483.1 183.173 483.1 183.824V188.992C483.1 189.653 483.303 190.181 483.708 190.576C484.113 190.971 484.652 191.168 485.324 191.168ZM494.371 192.16C493.347 192.16 492.531 191.867 491.923 191.28C491.315 190.693 491.011 189.909 491.011 188.928V183.872C491.011 182.891 491.315 182.112 491.923 181.536C492.531 180.949 493.347 180.656 494.371 180.656C495.406 180.656 496.232 180.949 496.851 181.536C497.47 182.123 497.779 182.901 497.779 183.872V188.928C497.779 189.909 497.47 190.693 496.851 191.28C496.232 191.867 495.406 192.16 494.371 192.16ZM494.371 191.168C495.054 191.168 495.603 190.971 496.019 190.576C496.435 190.181 496.643 189.653 496.643 188.992V183.824C496.643 183.173 496.435 182.651 496.019 182.256C495.614 181.861 495.064 181.664 494.371 181.664C493.699 181.664 493.16 181.861 492.755 182.256C492.35 182.651 492.147 183.173 492.147 183.824V188.992C492.147 189.653 492.35 190.181 492.755 190.576C493.16 190.971 493.699 191.168 494.371 191.168ZM503.418 192.16C502.394 192.16 501.578 191.867 500.97 191.28C500.362 190.693 500.058 189.909 500.058 188.928V183.872C500.058 182.891 500.362 182.112 500.97 181.536C501.578 180.949 502.394 180.656 503.418 180.656C504.453 180.656 505.279 180.949 505.898 181.536C506.517 182.123 506.826 182.901 506.826 183.872V188.928C506.826 189.909 506.517 190.693 505.898 191.28C505.279 191.867 504.453 192.16 503.418 192.16ZM503.418 191.168C504.101 191.168 504.65 190.971 505.066 190.576C505.482 190.181 505.69 189.653 505.69 188.992V183.824C505.69 183.173 505.482 182.651 505.066 182.256C504.661 181.861 504.111 181.664 503.418 181.664C502.746 181.664 502.207 181.861 501.802 182.256C501.397 182.651 501.194 183.173 501.194 183.824V188.992C501.194 189.653 501.397 190.181 501.802 190.576C502.207 190.971 502.746 191.168 503.418 191.168Z" fill="#2C3447"/>
<rect x="1" y="223" width="318" height="74" fill="white"/>
<rect x="1" y="223" width="318" height="74" stroke="#D8DCE5"/>
<path d="M122.38 254.848C122.444 254.816 122.513 254.8 122.588 254.8H123.452C123.559 254.8 123.612 254.853 123.612 254.96V265.84C123.612 265.947 123.559 266 123.452 266H122.636C122.529 266 122.476 265.947 122.476 265.84V256.096C122.476 256.075 122.465 256.059 122.444 256.048C122.433 256.037 122.417 256.037 122.396 256.048L120.7 256.736L120.636 256.752C120.572 256.752 120.529 256.709 120.508 256.624L120.428 256.016V255.984C120.428 255.931 120.465 255.877 120.54 255.824L122.38 254.848ZM129.638 257.824C129.99 257.824 130.294 257.893 130.55 258.032C130.635 258.075 130.667 258.144 130.646 258.24L130.47 259.024C130.438 259.131 130.368 259.163 130.262 259.12C130.08 259.045 129.872 259.008 129.638 259.008L129.43 259.024C128.875 259.045 128.416 259.253 128.054 259.648C127.691 260.032 127.51 260.523 127.51 261.12V265.84C127.51 265.947 127.456 266 127.35 266H126.534C126.427 266 126.374 265.947 126.374 265.84V258.064C126.374 257.957 126.427 257.904 126.534 257.904H127.35C127.456 257.904 127.51 257.957 127.51 258.064V259.04C127.51 259.072 127.515 259.093 127.526 259.104C127.547 259.104 127.563 259.093 127.574 259.072C127.798 258.677 128.08 258.373 128.422 258.16C128.774 257.936 129.179 257.824 129.638 257.824ZM135.212 266.128C134.444 266.128 133.782 265.931 133.228 265.536C132.673 265.141 132.289 264.597 132.076 263.904C131.926 263.413 131.852 262.757 131.852 261.936C131.852 261.115 131.926 260.464 132.076 259.984C132.278 259.301 132.657 258.763 133.212 258.368C133.766 257.973 134.438 257.776 135.228 257.776C135.985 257.776 136.636 257.973 137.18 258.368C137.734 258.763 138.113 259.296 138.316 259.968C138.465 260.427 138.54 261.083 138.54 261.936C138.54 262.8 138.465 263.456 138.316 263.904C138.113 264.597 137.734 265.141 137.18 265.536C136.636 265.931 135.98 266.128 135.212 266.128ZM135.212 265.136C135.724 265.136 136.161 264.997 136.524 264.72C136.886 264.432 137.132 264.048 137.26 263.568C137.356 263.184 137.404 262.645 137.404 261.952C137.404 261.248 137.361 260.709 137.276 260.336C137.148 259.856 136.897 259.477 136.524 259.2C136.161 258.912 135.718 258.768 135.196 258.768C134.673 258.768 134.23 258.912 133.868 259.2C133.505 259.477 133.26 259.856 133.132 260.336C133.046 260.709 133.004 261.248 133.004 261.952C133.004 262.656 133.046 263.195 133.132 263.568C133.249 264.048 133.489 264.432 133.852 264.72C134.225 264.997 134.678 265.136 135.212 265.136ZM149.07 254.96C149.07 254.853 149.123 254.8 149.23 254.8H150.046C150.152 254.8 150.206 254.853 150.206 254.96V265.84C150.206 265.947 150.152 266 150.046 266H149.23C149.123 266 149.07 265.947 149.07 265.84V265.168C149.07 265.147 149.059 265.136 149.038 265.136C149.027 265.125 149.011 265.131 148.99 265.152C148.755 265.461 148.462 265.701 148.11 265.872C147.768 266.043 147.384 266.128 146.958 266.128C146.211 266.128 145.582 265.936 145.07 265.552C144.568 265.168 144.222 264.645 144.03 263.984C143.88 263.504 143.806 262.827 143.806 261.952C143.806 261.067 143.87 260.405 143.998 259.968C144.19 259.285 144.542 258.752 145.054 258.368C145.566 257.973 146.2 257.776 146.958 257.776C147.374 257.776 147.758 257.861 148.11 258.032C148.462 258.192 148.755 258.427 148.99 258.736C149.011 258.757 149.027 258.768 149.038 258.768C149.059 258.757 149.07 258.741 149.07 258.72V254.96ZM148.782 263.904C148.878 263.691 148.947 263.44 148.99 263.152C149.032 262.864 149.054 262.464 149.054 261.952C149.054 261.44 149.032 261.04 148.99 260.752C148.947 260.453 148.872 260.192 148.766 259.968C148.638 259.605 148.424 259.317 148.126 259.104C147.838 258.88 147.491 258.768 147.086 258.768C146.659 258.768 146.291 258.875 145.982 259.088C145.672 259.301 145.448 259.584 145.31 259.936C145.182 260.171 145.086 260.437 145.022 260.736C144.968 261.024 144.942 261.429 144.942 261.952C144.942 262.453 144.963 262.848 145.006 263.136C145.048 263.413 145.123 263.664 145.23 263.888C145.358 264.272 145.582 264.576 145.902 264.8C146.232 265.024 146.622 265.136 147.07 265.136C147.496 265.136 147.854 265.024 148.142 264.8C148.43 264.576 148.643 264.277 148.782 263.904ZM158.988 260.592C159.031 260.891 159.052 261.264 159.052 261.712V262.224C159.052 262.331 158.999 262.384 158.892 262.384H153.724C153.681 262.384 153.66 262.405 153.66 262.448C153.681 263.035 153.713 263.413 153.756 263.584C153.873 264.064 154.124 264.443 154.508 264.72C154.892 264.997 155.383 265.136 155.98 265.136C156.428 265.136 156.823 265.035 157.164 264.832C157.505 264.629 157.772 264.341 157.964 263.968C158.028 263.872 158.103 263.851 158.188 263.904L158.812 264.272C158.897 264.325 158.919 264.4 158.876 264.496C158.609 265.008 158.209 265.413 157.676 265.712C157.143 266 156.529 266.144 155.836 266.144C155.079 266.133 154.444 265.952 153.932 265.6C153.42 265.248 153.052 264.757 152.828 264.128C152.636 263.616 152.54 262.88 152.54 261.92C152.54 261.472 152.545 261.109 152.556 260.832C152.577 260.544 152.62 260.288 152.684 260.064C152.865 259.371 153.228 258.816 153.772 258.4C154.327 257.984 154.993 257.776 155.772 257.776C156.743 257.776 157.489 258.021 158.012 258.512C158.535 259.003 158.86 259.696 158.988 260.592ZM155.772 258.768C155.249 258.768 154.812 258.907 154.46 259.184C154.119 259.451 153.895 259.813 153.788 260.272C153.724 260.496 153.681 260.859 153.66 261.36C153.66 261.403 153.681 261.424 153.724 261.424H157.868C157.911 261.424 157.932 261.403 157.932 261.36C157.911 260.88 157.879 260.539 157.836 260.336C157.719 259.856 157.479 259.477 157.116 259.2C156.764 258.912 156.316 258.768 155.772 258.768ZM172.706 257.792C173.506 257.792 174.136 258.032 174.594 258.512C175.064 258.992 175.298 259.648 175.298 260.48V265.84C175.298 265.947 175.245 266 175.138 266H174.338C174.232 266 174.178 265.947 174.178 265.84V260.704C174.178 260.117 174.008 259.653 173.666 259.312C173.336 258.96 172.898 258.784 172.354 258.784C171.789 258.784 171.33 258.955 170.978 259.296C170.637 259.637 170.466 260.096 170.466 260.672V265.84C170.466 265.947 170.413 266 170.306 266H169.49C169.384 266 169.33 265.947 169.33 265.84V260.704C169.33 260.117 169.165 259.653 168.834 259.312C168.504 258.96 168.061 258.784 167.506 258.784C166.941 258.784 166.488 258.955 166.146 259.296C165.816 259.637 165.65 260.096 165.65 260.672V265.84C165.65 265.947 165.597 266 165.49 266H164.674C164.568 266 164.514 265.947 164.514 265.84V258.064C164.514 257.957 164.568 257.904 164.674 257.904H165.49C165.597 257.904 165.65 257.957 165.65 258.064V258.704C165.65 258.725 165.656 258.741 165.666 258.752C165.688 258.752 165.709 258.741 165.73 258.72C165.965 258.411 166.264 258.181 166.626 258.032C167 257.872 167.41 257.792 167.858 257.792C168.413 257.792 168.888 257.904 169.282 258.128C169.677 258.352 169.976 258.677 170.178 259.104C170.2 259.157 170.226 259.157 170.258 259.104C170.493 258.667 170.824 258.341 171.25 258.128C171.677 257.904 172.162 257.792 172.706 257.792ZM180.549 257.776C181.509 257.776 182.25 258.021 182.773 258.512C183.295 259.003 183.557 259.653 183.557 260.464V265.84C183.557 265.947 183.503 266 183.397 266H182.581C182.474 266 182.421 265.947 182.421 265.84V265.184C182.421 265.163 182.41 265.147 182.389 265.136C182.378 265.125 182.362 265.131 182.341 265.152C182.074 265.472 181.727 265.717 181.301 265.888C180.874 266.048 180.399 266.128 179.877 266.128C179.119 266.128 178.485 265.936 177.973 265.552C177.461 265.168 177.205 264.581 177.205 263.792C177.205 262.992 177.493 262.363 178.069 261.904C178.655 261.435 179.466 261.2 180.501 261.2H182.357C182.399 261.2 182.421 261.179 182.421 261.136V260.528C182.421 259.984 182.266 259.557 181.957 259.248C181.658 258.928 181.189 258.768 180.549 258.768C180.037 258.768 179.621 258.869 179.301 259.072C178.981 259.264 178.783 259.536 178.709 259.888C178.677 259.995 178.613 260.043 178.517 260.032L177.653 259.92C177.535 259.899 177.487 259.856 177.509 259.792C177.594 259.195 177.914 258.709 178.469 258.336C179.023 257.963 179.717 257.776 180.549 257.776ZM180.101 265.152C180.73 265.152 181.274 264.997 181.733 264.688C182.191 264.368 182.421 263.941 182.421 263.408V262.16C182.421 262.117 182.399 262.096 182.357 262.096H180.677C179.973 262.096 179.407 262.24 178.981 262.528C178.554 262.816 178.341 263.216 178.341 263.728C178.341 264.197 178.501 264.555 178.821 264.8C179.151 265.035 179.578 265.152 180.101 265.152ZM185.459 269.2C185.384 269.2 185.347 269.147 185.347 269.04V268.4C185.347 268.293 185.4 268.24 185.507 268.24H185.571C185.987 268.229 186.307 268.165 186.531 268.048C186.766 267.941 186.963 267.733 187.123 267.424C187.294 267.125 187.475 266.667 187.667 266.048C187.688 266.005 187.688 265.973 187.667 265.952L184.963 258.08L184.947 258.016C184.947 257.941 184.995 257.904 185.091 257.904H185.939C186.035 257.904 186.099 257.947 186.131 258.032L188.211 264.496C188.222 264.517 188.238 264.528 188.259 264.528C188.28 264.528 188.296 264.517 188.307 264.496L190.355 258.032C190.387 257.947 190.451 257.904 190.547 257.904H191.379C191.496 257.904 191.539 257.963 191.507 258.08L188.547 266.704C188.291 267.419 188.051 267.947 187.827 268.288C187.603 268.629 187.32 268.864 186.979 268.992C186.648 269.131 186.179 269.2 185.571 269.2H185.459ZM196.024 266.128C195.256 266.128 194.595 265.931 194.04 265.536C193.486 265.141 193.102 264.597 192.888 263.904C192.739 263.413 192.664 262.757 192.664 261.936C192.664 261.115 192.739 260.464 192.888 259.984C193.091 259.301 193.47 258.763 194.024 258.368C194.579 257.973 195.251 257.776 196.04 257.776C196.798 257.776 197.448 257.973 197.992 258.368C198.547 258.763 198.926 259.296 199.128 259.968C199.278 260.427 199.352 261.083 199.352 261.936C199.352 262.8 199.278 263.456 199.128 263.904C198.926 264.597 198.547 265.141 197.992 265.536C197.448 265.931 196.792 266.128 196.024 266.128ZM196.024 265.136C196.536 265.136 196.974 264.997 197.336 264.72C197.699 264.432 197.944 264.048 198.072 263.568C198.168 263.184 198.216 262.645 198.216 261.952C198.216 261.248 198.174 260.709 198.088 260.336C197.96 259.856 197.71 259.477 197.336 259.2C196.974 258.912 196.531 258.768 196.008 258.768C195.486 258.768 195.043 258.912 194.68 259.2C194.318 259.477 194.072 259.856 193.944 260.336C193.859 260.709 193.816 261.248 193.816 261.952C193.816 262.656 193.859 263.195 193.944 263.568C194.062 264.048 194.302 264.432 194.664 264.72C195.038 264.997 195.491 265.136 196.024 265.136Z" fill="#2C3447"/>
<rect x="319" y="223" width="318" height="74" fill="white"/>
<rect x="319" y="223" width="318" height="74" stroke="#D8DCE5"/>
<path d="M456.064 263.184C456.064 263.995 455.797 264.661 455.264 265.184C454.741 265.707 454.005 266.016 453.056 266.112C453.013 266.112 452.992 266.133 452.992 266.176L453.008 267.328C453.008 267.435 452.955 267.488 452.848 267.488H452.144C452.037 267.488 451.984 267.435 451.984 267.328L452 266.176C452 266.133 451.979 266.112 451.936 266.112C450.965 266.005 450.208 265.691 449.664 265.168C449.12 264.635 448.848 263.957 448.848 263.136V262.64C448.848 262.533 448.901 262.48 449.008 262.48H449.728C449.835 262.48 449.888 262.533 449.888 262.64V263.072C449.888 263.691 450.128 264.192 450.608 264.576C451.099 264.949 451.771 265.136 452.624 265.136C453.392 265.136 453.979 264.965 454.384 264.624C454.789 264.272 454.992 263.808 454.992 263.232C454.992 262.859 454.896 262.539 454.704 262.272C454.523 262.005 454.24 261.755 453.856 261.52C453.472 261.285 452.923 261.013 452.208 260.704C451.44 260.384 450.848 260.107 450.432 259.872C450.027 259.627 449.691 259.317 449.424 258.944C449.168 258.56 449.04 258.08 449.04 257.504C449.04 256.683 449.291 256.032 449.792 255.552C450.293 255.061 450.987 254.773 451.872 254.688C451.915 254.688 451.936 254.667 451.936 254.624L451.92 253.376C451.92 253.269 451.973 253.216 452.08 253.216H452.768C452.875 253.216 452.928 253.269 452.928 253.376L452.912 254.64C452.912 254.683 452.933 254.704 452.976 254.704C453.915 254.811 454.651 255.131 455.184 255.664C455.717 256.197 455.984 256.88 455.984 257.712V258.064C455.984 258.171 455.931 258.224 455.824 258.224H455.072C454.965 258.224 454.912 258.171 454.912 258.064V257.776C454.912 257.157 454.683 256.651 454.224 256.256C453.765 255.861 453.131 255.664 452.32 255.664C451.605 255.664 451.056 255.819 450.672 256.128C450.288 256.437 450.096 256.885 450.096 257.472C450.096 257.856 450.187 258.176 450.368 258.432C450.56 258.677 450.827 258.896 451.168 259.088C451.52 259.269 452.059 259.509 452.784 259.808C453.52 260.128 454.112 260.427 454.56 260.704C455.019 260.981 455.381 261.323 455.648 261.728C455.925 262.123 456.064 262.608 456.064 263.184ZM462.573 264.928C462.541 264.981 462.551 265.008 462.605 265.008H467.629C467.735 265.008 467.789 265.061 467.789 265.168V265.84C467.789 265.947 467.735 266 467.629 266H461.245C461.138 266 461.085 265.947 461.085 265.84V265.168C461.085 265.093 461.111 265.029 461.165 264.976C461.527 264.549 462.343 263.547 463.613 261.968L464.797 260.496C465.799 259.227 466.301 258.24 466.301 257.536C466.301 256.971 466.109 256.517 465.725 256.176C465.341 255.835 464.839 255.664 464.221 255.664C463.613 255.664 463.122 255.84 462.749 256.192C462.375 256.533 462.194 256.987 462.205 257.552V258.048C462.205 258.155 462.151 258.208 462.045 258.208H461.213C461.106 258.208 461.053 258.155 461.053 258.048V257.408C461.074 256.587 461.378 255.925 461.965 255.424C462.562 254.923 463.314 254.672 464.221 254.672C464.861 254.672 465.426 254.795 465.917 255.04C466.407 255.285 466.786 255.627 467.053 256.064C467.319 256.491 467.453 256.976 467.453 257.52C467.453 258.427 466.951 259.52 465.949 260.8C465.426 261.472 464.418 262.709 462.925 264.512L462.573 264.928ZM475.823 260.736C476.047 261.216 476.159 261.824 476.159 262.56C476.159 263.221 476.073 263.755 475.903 264.16C475.679 264.779 475.321 265.259 474.831 265.6C474.34 265.941 473.727 266.112 472.991 266.112C472.223 266.112 471.577 265.931 471.055 265.568C470.532 265.205 470.164 264.693 469.951 264.032C469.823 263.605 469.759 263.104 469.759 262.528V257.536C469.759 256.661 470.047 255.968 470.623 255.456C471.199 254.933 471.951 254.672 472.879 254.672C473.785 254.672 474.516 254.923 475.071 255.424C475.625 255.925 475.903 256.587 475.903 257.408V257.632C475.903 257.739 475.849 257.792 475.743 257.792H474.927C474.82 257.792 474.767 257.739 474.767 257.632V257.504C474.767 256.96 474.591 256.517 474.239 256.176C473.887 255.835 473.433 255.664 472.879 255.664C472.303 255.664 471.828 255.845 471.455 256.208C471.081 256.56 470.895 257.029 470.895 257.616V259.968C470.895 259.989 470.905 260.005 470.927 260.016C470.948 260.016 470.964 260.005 470.975 259.984C471.444 259.344 472.153 259.024 473.103 259.024C473.775 259.024 474.335 259.173 474.783 259.472C475.241 259.771 475.588 260.192 475.823 260.736ZM474.831 263.776C474.959 263.445 475.023 263.04 475.023 262.56C475.023 262.005 474.948 261.579 474.799 261.28C474.671 260.885 474.447 260.576 474.127 260.352C473.807 260.128 473.412 260.016 472.943 260.016C472.473 260.016 472.079 260.133 471.759 260.368C471.439 260.592 471.215 260.907 471.087 261.312C470.959 261.643 470.895 262.075 470.895 262.608C470.895 263.077 470.948 263.467 471.055 263.776C471.183 264.181 471.407 264.507 471.727 264.752C472.057 264.997 472.468 265.12 472.959 265.12C473.417 265.12 473.812 265.008 474.143 264.784C474.473 264.549 474.703 264.213 474.831 263.776ZM479.161 265.968C478.894 265.968 478.676 265.883 478.505 265.712C478.345 265.541 478.265 265.328 478.265 265.072C478.265 264.805 478.345 264.592 478.505 264.432C478.676 264.261 478.894 264.176 479.161 264.176C479.417 264.176 479.63 264.261 479.801 264.432C479.972 264.592 480.057 264.805 480.057 265.072C480.057 265.328 479.972 265.541 479.801 265.712C479.63 265.883 479.417 265.968 479.161 265.968ZM485.355 266.16C484.331 266.16 483.515 265.867 482.907 265.28C482.299 264.693 481.995 263.909 481.995 262.928V257.872C481.995 256.891 482.299 256.112 482.907 255.536C483.515 254.949 484.331 254.656 485.355 254.656C486.39 254.656 487.217 254.949 487.835 255.536C488.454 256.123 488.763 256.901 488.763 257.872V262.928C488.763 263.909 488.454 264.693 487.835 265.28C487.217 265.867 486.39 266.16 485.355 266.16ZM485.355 265.168C486.038 265.168 486.587 264.971 487.003 264.576C487.419 264.181 487.627 263.653 487.627 262.992V257.824C487.627 257.173 487.419 256.651 487.003 256.256C486.598 255.861 486.049 255.664 485.355 255.664C484.683 255.664 484.145 255.861 483.739 256.256C483.334 256.651 483.131 257.173 483.131 257.824V262.992C483.131 263.653 483.334 264.181 483.739 264.576C484.145 264.971 484.683 265.168 485.355 265.168ZM494.402 266.16C493.378 266.16 492.562 265.867 491.954 265.28C491.346 264.693 491.042 263.909 491.042 262.928V257.872C491.042 256.891 491.346 256.112 491.954 255.536C492.562 254.949 493.378 254.656 494.402 254.656C495.437 254.656 496.264 254.949 496.882 255.536C497.501 256.123 497.81 256.901 497.81 257.872V262.928C497.81 263.909 497.501 264.693 496.882 265.28C496.264 265.867 495.437 266.16 494.402 266.16ZM494.402 265.168C495.085 265.168 495.634 264.971 496.05 264.576C496.466 264.181 496.674 263.653 496.674 262.992V257.824C496.674 257.173 496.466 256.651 496.05 256.256C495.645 255.861 495.096 255.664 494.402 255.664C493.73 255.664 493.192 255.861 492.786 256.256C492.381 256.651 492.178 257.173 492.178 257.824V262.992C492.178 263.653 492.381 264.181 492.786 264.576C493.192 264.971 493.73 265.168 494.402 265.168ZM503.449 266.16C502.425 266.16 501.609 265.867 501.001 265.28C500.393 264.693 500.089 263.909 500.089 262.928V257.872C500.089 256.891 500.393 256.112 501.001 255.536C501.609 254.949 502.425 254.656 503.449 254.656C504.484 254.656 505.31 254.949 505.929 255.536C506.548 256.123 506.857 256.901 506.857 257.872V262.928C506.857 263.909 506.548 264.693 505.929 265.28C505.31 265.867 504.484 266.16 503.449 266.16ZM503.449 265.168C504.132 265.168 504.681 264.971 505.097 264.576C505.513 264.181 505.721 263.653 505.721 262.992V257.824C505.721 257.173 505.513 256.651 505.097 256.256C504.692 255.861 504.142 255.664 503.449 255.664C502.777 255.664 502.238 255.861 501.833 256.256C501.428 256.651 501.225 257.173 501.225 257.824V262.992C501.225 263.653 501.428 264.181 501.833 264.576C502.238 264.971 502.777 265.168 503.449 265.168Z" fill="#2C3447"/>
</svg>
