<svg width="24" height="24" viewBox="0 0 24 24" fill="none" xmlns="http://www.w3.org/2000/svg">
<path fill-rule="evenodd" clip-rule="evenodd" d="M11.9386 1H12.0614C14.5308 0.999986 16.4661 0.999976 17.976 1.20298C19.5216 1.41078 20.7411 1.8444 21.6984 2.80163C22.6556 3.75887 23.0892 4.97843 23.297 6.52396C23.5 8.03393 23.5 9.96918 23.5 12.4386V12.5H23.4883C23.5 13.1192 23.5 13.8157 23.5 14.6036V14.6755C23.5 16.1429 23.5 17.2933 23.4245 18.218C23.3475 19.1595 23.1883 19.9374 22.8296 20.6414C22.2398 21.7988 21.2988 22.7398 20.1414 23.3296C19.4374 23.6883 18.6595 23.8475 17.718 23.9245C16.7933 24 15.6429 24 14.1755 24H9.82454C8.35713 24 7.20667 24 6.28202 23.9245C5.34048 23.8475 4.56264 23.6883 3.85859 23.3296C2.70118 22.7398 1.76017 21.7988 1.17044 20.6414C0.811708 19.9374 0.652466 19.1595 0.575539 18.218C0.499991 17.2933 0.499995 16.1429 0.5 14.6754V14.6036C0.499998 13.8158 0.499995 13.1192 0.511687 12.5H0.5L0.5 12.4386C0.499986 9.96918 0.499976 8.03393 0.702985 6.52396C0.910776 4.97843 1.3444 3.75887 2.30163 2.80163C3.25887 1.8444 4.47843 1.41078 6.02396 1.20298C7.53393 0.999976 9.46917 0.999986 11.9386 1ZM2.24583 7.13723C2.71207 6.6588 3.256 6.25654 3.85859 5.94951C4.56264 5.59078 5.34048 5.43154 6.28202 5.35461C7.20668 5.27906 8.35715 5.27907 9.82457 5.27907H14.1754C15.6429 5.27907 16.7933 5.27906 17.718 5.35461C18.6595 5.43154 19.4374 5.59078 20.1414 5.94951C20.744 6.25654 21.2879 6.6588 21.7542 7.13724C21.7398 7.00016 21.7241 6.86708 21.7067 6.73778C21.5228 5.37019 21.1731 4.54569 20.5637 3.93629C19.9543 3.32689 19.1298 2.9772 17.7622 2.79333C16.3715 2.60636 14.5441 2.60465 12 2.60465C9.45585 2.60465 7.62846 2.60636 6.23778 2.79333C4.87019 2.9772 4.04569 3.32689 3.43629 3.93629C2.82689 4.54569 2.4772 5.37019 2.29333 6.73778C2.27594 6.86708 2.26016 7.00016 2.24583 7.13723ZM6.41269 6.95393C5.57038 7.02275 5.02722 7.155 4.58709 7.37926C3.73161 7.81515 3.03608 8.51068 2.60019 9.36616C2.37593 9.80629 2.24368 10.3495 2.17486 11.1918C2.10528 12.0434 2.10465 13.1285 2.10465 14.6395C2.10465 16.1506 2.10528 17.2356 2.17486 18.0873C2.24368 18.9296 2.37593 19.4728 2.60019 19.9129C3.03608 20.7684 3.73161 21.4639 4.58709 21.8998C5.02722 22.1241 5.57038 22.2563 6.41269 22.3251C7.26437 22.3947 8.34941 22.3953 9.86047 22.3953H14.1395C15.6506 22.3953 16.7356 22.3947 17.5873 22.3251C18.4296 22.2563 18.9728 22.1241 19.4129 21.8998C20.2684 21.4639 20.9639 20.7684 21.3998 19.9129C21.6241 19.4728 21.7563 18.9296 21.8251 18.0873C21.8947 17.2356 21.8953 16.1506 21.8953 14.6395C21.8953 13.1285 21.8947 12.0434 21.8251 11.1918C21.7563 10.3495 21.6241 9.80629 21.3998 9.36616C20.9639 8.51068 20.2684 7.81515 19.4129 7.37926C18.9728 7.155 18.4296 7.02275 17.5873 6.95393C16.7356 6.88435 15.6506 6.88372 14.1395 6.88372H9.86047C8.34941 6.88372 7.26437 6.88435 6.41269 6.95393ZM12 10.6279C12.2437 10.6279 12.4743 10.7387 12.6265 10.929L14.766 13.6034C15.0429 13.9495 14.9868 14.4544 14.6407 14.7312C14.2947 15.008 13.7898 14.9519 13.513 14.6059L12.8023 13.7175V17.8488C12.8023 18.292 12.4431 18.6512 12 18.6512C11.5569 18.6512 11.1977 18.292 11.1977 17.8488V13.7175L10.487 14.6059C10.2102 14.9519 9.70527 15.008 9.35926 14.7312C9.01324 14.4544 8.95714 13.9495 9.23395 13.6034L11.3735 10.929C11.5257 10.7387 11.7563 10.6279 12 10.6279Z" fill="#2C3447"/>
</svg>
