<svg width="24" height="24" viewBox="0 0 24 24" fill="none" xmlns="http://www.w3.org/2000/svg">
<path fill-rule="evenodd" clip-rule="evenodd" d="M8.80761 2.73901C8.6634 2.90583 8.48064 3.15999 8.20106 3.55294L8.03854 3.78136C8.02657 3.7982 8.01415 3.81587 8.00125 3.83423C7.86637 4.02613 7.67881 4.29299 7.39526 4.45975C7.112 4.62633 6.78773 4.66076 6.55416 4.68556C6.5318 4.68793 6.51028 4.69022 6.4897 4.69252L6.21066 4.72378C5.73325 4.77724 5.42236 4.81362 5.20611 4.85845C5.32211 5.05312 5.51098 5.31304 5.80375 5.71191L5.9718 5.94085L5.32521 6.41573L5.9718 5.94085C5.98422 5.95778 5.99724 5.97532 6.0107 5.99346C6.15294 6.1851 6.34549 6.44454 6.41773 6.76217C6.49029 7.0812 6.42779 7.39828 6.38194 7.63087C6.37761 7.65285 6.37343 7.67407 6.36952 7.69447L6.3165 7.97131C6.22195 8.46505 6.16317 8.78074 6.14383 9.00489C6.36079 8.95779 6.66256 8.86105 7.13341 8.7074L7.39979 8.62046C7.41939 8.61407 7.43982 8.60727 7.46102 8.60022C7.68413 8.52602 7.99218 8.42358 8.31902 8.45731C8.64383 8.49084 8.92514 8.65264 9.13093 8.77099C9.15053 8.78227 9.16945 8.79315 9.18766 8.80349L9.43393 8.94334C9.85526 9.18259 10.1317 9.33787 10.3361 9.43032C10.3537 9.2077 10.3514 8.89204 10.3456 8.41008L10.3422 8.12741C10.3419 8.10652 10.3416 8.08473 10.3412 8.06213C10.337 7.82541 10.3312 7.5003 10.4596 7.19938C10.5887 6.89676 10.8284 6.67691 11.0013 6.51826C11.0178 6.50315 11.0337 6.4886 11.0488 6.47459L11.254 6.28417C11.6143 5.94982 11.8445 5.73406 11.9908 5.56815C11.7845 5.47639 11.4789 5.37479 11.0007 5.21846L10.7322 5.13069C10.7124 5.12422 10.6918 5.11759 10.6704 5.11073C10.4441 5.03809 10.1368 4.93945 9.89288 4.7223C9.64959 4.50575 9.51534 4.21222 9.41605 3.99513C9.40666 3.97461 9.39759 3.95477 9.38876 3.93574L9.26933 3.67821C9.05969 3.2262 8.92271 2.93455 8.80761 2.73901ZM8.97131 2.57611C8.97131 2.57615 8.9706 2.57664 8.96921 2.57746C8.97063 2.57649 8.97132 2.57608 8.97131 2.57611ZM8.67863 2.55258C8.67708 2.55126 8.6763 2.55049 8.6763 2.55043C8.6763 2.55037 8.67708 2.55104 8.67863 2.55258ZM12.1827 5.67153C12.1826 5.67154 12.1818 5.67089 12.1804 5.66958C12.182 5.67087 12.1827 5.67152 12.1827 5.67153ZM12.1218 5.39596C12.1224 5.39449 12.1228 5.39373 12.1229 5.39372C12.1229 5.39371 12.1226 5.39444 12.1218 5.39596ZM10.2987 9.66991C10.2987 9.66986 10.2991 9.66888 10.2998 9.66711C10.2991 9.66907 10.2988 9.66995 10.2987 9.66991ZM10.5607 9.5127C10.5627 9.51288 10.5637 9.51306 10.5638 9.5131L10.5607 9.5127ZM5.93002 9.03476C5.93005 9.03474 5.93093 9.03477 5.93258 9.03496L5.93002 9.03476ZM6.14097 9.21748C6.14142 9.2193 6.14159 9.22029 6.14156 9.22033L6.14097 9.21748ZM5.10185 4.64863C5.1019 4.64866 5.1022 4.64972 5.10262 4.65173C5.10201 4.64961 5.1018 4.6486 5.10185 4.64863ZM4.98224 4.92216C4.98079 4.92301 4.97999 4.92341 4.97995 4.92339C4.97991 4.92338 4.98063 4.92296 4.98224 4.92216ZM7.72805 1.54234C7.99435 1.26643 8.40505 0.9479 8.97949 1.0072C9.54842 1.06593 9.88833 1.45589 10.0978 1.77589C10.2966 2.07969 10.4907 2.49833 10.7013 2.95251C10.7091 2.96924 10.7168 2.98603 10.7246 3.00286L10.8441 3.26039C10.8776 3.33273 10.9035 3.38848 10.9266 3.43635C10.9432 3.47068 10.956 3.49601 10.9662 3.5152C10.986 3.52289 11.0121 3.53238 11.0472 3.54446C11.0971 3.56165 11.1551 3.58065 11.2306 3.60531L11.4991 3.69308C11.5167 3.69885 11.5344 3.70461 11.5519 3.71036C12.0251 3.86495 12.4622 4.00778 12.7866 4.16954C13.1306 4.34102 13.5537 4.63284 13.6801 5.18856C13.8074 5.74808 13.5476 6.19367 13.3074 6.49472C13.0824 6.77671 12.7472 7.08767 12.3863 7.42243C12.3725 7.43516 12.3588 7.44793 12.345 7.46073L12.1398 7.65114C12.0821 7.70468 12.0379 7.74573 12.0002 7.78178C11.9774 7.80369 11.9598 7.82097 11.9462 7.83485C11.9455 7.85518 11.945 7.88106 11.9449 7.91466C11.9447 7.96747 11.9454 8.0286 11.9464 8.10802L11.9498 8.39069C11.95 8.40941 11.9503 8.42809 11.9505 8.44672C11.9566 8.9445 11.9622 9.40478 11.9136 9.76325C11.8623 10.141 11.7216 10.6442 11.2232 10.9373C10.7256 11.23 10.2178 11.1093 9.86261 10.9715C9.52503 10.8406 9.12436 10.613 8.69049 10.3665C8.67435 10.3573 8.65815 10.3481 8.64191 10.3389L8.39564 10.1991C8.32645 10.1598 8.27316 10.1295 8.2267 10.1041C8.19614 10.0874 8.17259 10.075 8.15404 10.0656C8.13496 10.0708 8.11079 10.0779 8.07955 10.0875C8.02969 10.1029 7.97225 10.1217 7.89737 10.1461L7.631 10.233C7.61315 10.2389 7.59535 10.2447 7.5776 10.2505C7.10907 10.4034 6.67418 10.5454 6.31818 10.6052C5.93819 10.6691 5.42377 10.6798 4.99628 10.2993C4.57061 9.92037 4.51904 9.40933 4.53522 9.02474C4.55046 8.66281 4.6369 8.21176 4.73036 7.72415C4.73385 7.70595 4.73735 7.68769 4.74085 7.66939L4.79387 7.39254L5.58169 7.54351L4.79387 7.39254C4.80877 7.31474 4.8202 7.25493 4.82929 7.2031C4.83552 7.16752 4.83975 7.14068 4.8426 7.11994C4.83075 7.10184 4.81484 7.07858 4.79301 7.04786C4.76221 7.0045 4.72583 6.95491 4.67863 6.8906L4.51058 6.66166L5.0735 6.24823L4.51058 6.66166C4.4996 6.64669 4.48864 6.63177 4.47771 6.61688C4.18132 6.2132 3.90814 5.84113 3.73797 5.52046C3.55897 5.18317 3.38041 4.69604 3.60542 4.16856C3.8324 3.63646 4.31175 3.43242 4.68151 3.3339C5.02998 3.24105 5.48538 3.19012 5.97614 3.13523C5.99476 3.13315 6.01344 3.13106 6.03216 3.12897L6.3112 3.09771C6.38963 3.08893 6.44983 3.08217 6.50172 3.07552C6.53238 3.0716 6.55636 3.06817 6.5754 3.06514C6.58719 3.05009 6.60168 3.03098 6.61979 3.00636C6.65072 2.96432 6.68578 2.91508 6.73147 2.85086L6.89399 2.62243C6.90492 2.60707 6.91582 2.59174 6.9267 2.57645C7.21238 2.17478 7.4777 1.80174 7.72805 1.54234ZM20.7973 9.42008C21.0205 9.80286 20.8913 10.2942 20.5086 10.5175C14.3997 14.082 12.8851 19.837 12.8851 23.1975C12.8851 23.6406 12.5259 23.9999 12.0829 23.9999C11.6399 23.9999 11.2808 23.6406 11.2808 23.1975C11.2808 19.4257 12.9747 13.0557 19.7002 9.1313C20.0829 8.90801 20.5741 9.0373 20.7973 9.42008ZM8.55974 11.7275C8.98571 11.8492 9.23237 12.2933 9.11066 12.7194C8.71871 14.0917 8.62468 16.0826 8.68659 18.0774C8.74787 20.0521 8.95837 21.9453 9.1322 23.0755C9.19956 23.5135 8.89921 23.9232 8.46135 23.9906C8.02349 24.0579 7.61392 23.7575 7.54655 23.3195C7.36387 22.1317 7.14656 20.1734 7.08306 18.1272C7.02019 16.1012 7.10441 13.9019 7.56809 12.2786C7.6898 11.8525 8.13377 11.6057 8.55974 11.7275Z" fill="#2C3447"/>
</svg>
