<svg width="24" height="24" viewBox="0 0 24 24" fill="none" xmlns="http://www.w3.org/2000/svg">
<path fill-rule="evenodd" clip-rule="evenodd" d="M12 1.60465C6.53495 1.60465 2.10465 6.03495 2.10465 11.5C2.10465 16.965 6.53495 21.3953 12 21.3953C17.465 21.3953 21.8953 16.965 21.8953 11.5C21.8953 6.03495 17.465 1.60465 12 1.60465ZM0.5 11.5C0.5 5.14873 5.64873 0 12 0C18.3513 0 23.5 5.14873 23.5 11.5C23.5 17.8513 18.3513 23 12 23C5.64873 23 0.5 17.8513 0.5 11.5ZM12 4.27907C12.4431 4.27907 12.8023 4.63828 12.8023 5.0814V5.42023C14.5465 5.73253 16.0116 7.04293 16.0116 8.82558C16.0116 9.26869 15.6524 9.62791 15.2093 9.62791C14.7662 9.62791 14.407 9.26869 14.407 8.82558C14.407 8.09979 13.8035 7.33154 12.8023 7.05777V10.7691C14.5465 11.0814 16.0116 12.3918 16.0116 14.1744C16.0116 15.9571 14.5465 17.2675 12.8023 17.5798V17.9186C12.8023 18.3617 12.4431 18.7209 12 18.7209C11.5569 18.7209 11.1977 18.3617 11.1977 17.9186V17.5798C9.45349 17.2675 7.98837 15.9571 7.98837 14.1744C7.98837 13.7313 8.34759 13.3721 8.7907 13.3721C9.23381 13.3721 9.59302 13.7313 9.59302 14.1744C9.59302 14.9002 10.1965 15.6685 11.1977 15.9422V12.2309C9.45349 11.9186 7.98837 10.6082 7.98837 8.82558C7.98837 7.04293 9.45349 5.73253 11.1977 5.42023V5.0814C11.1977 4.63828 11.5569 4.27907 12 4.27907ZM11.1977 7.05777C10.1965 7.33154 9.59302 8.09979 9.59302 8.82558C9.59302 9.55137 10.1965 10.3196 11.1977 10.5934V7.05777ZM12.8023 12.4066V15.9422C13.8035 15.6685 14.407 14.9002 14.407 14.1744C14.407 13.4486 13.8035 12.6804 12.8023 12.4066Z" fill="#2C3447"/>
</svg>
