<svg width="24" height="24" viewBox="0 0 24 24" fill="none" xmlns="http://www.w3.org/2000/svg">
<path fill-rule="evenodd" clip-rule="evenodd" d="M12 1.60465C6.53495 1.60465 2.10465 6.03495 2.10465 11.5C2.10465 13.0844 2.47642 14.5796 3.13676 15.9054C3.40179 16.4375 3.50385 17.0738 3.33663 17.6987L2.69947 20.0801C2.58245 20.5174 2.98257 20.9176 3.41992 20.8005L5.80126 20.1634C6.42622 19.9962 7.06249 20.0982 7.5946 20.3632C8.92036 21.0236 10.4156 21.3953 12 21.3953C17.4651 21.3953 21.8953 16.9651 21.8953 11.5C21.8953 6.03495 17.4651 1.60465 12 1.60465ZM0.5 11.5C0.5 5.14873 5.64873 0 12 0C18.3513 0 23.5 5.14873 23.5 11.5C23.5 17.8513 18.3513 23 12 23C10.1618 23 8.42219 22.5681 6.87918 21.7996C6.64893 21.6849 6.41382 21.6606 6.21603 21.7135L3.83468 22.3507C2.20453 22.7868 0.713176 21.2955 1.14935 19.6653L1.78651 17.284C1.83943 17.0862 1.8151 16.8511 1.70041 16.6208C0.931872 15.0778 0.5 13.3382 0.5 11.5ZM6.9186 9.89535C6.9186 9.45224 7.27782 9.09302 7.72093 9.09302H16.2791C16.7222 9.09302 17.0814 9.45224 17.0814 9.89535C17.0814 10.3385 16.7222 10.6977 16.2791 10.6977H7.72093C7.27782 10.6977 6.9186 10.3385 6.9186 9.89535ZM6.9186 13.6395C6.9186 13.1964 7.27782 12.8372 7.72093 12.8372H13.6047C14.0478 12.8372 14.407 13.1964 14.407 13.6395C14.407 14.0826 14.0478 14.4419 13.6047 14.4419H7.72093C7.27782 14.4419 6.9186 14.0826 6.9186 13.6395Z" fill="#2C3447"/>
</svg>
