<svg width="24" height="24" viewBox="0 0 24 24" fill="none" xmlns="http://www.w3.org/2000/svg">
<path fill-rule="evenodd" clip-rule="evenodd" d="M10.3826 1.36666C11.4055 0.877781 12.5945 0.877781 13.6174 1.36666C14.0617 1.57904 14.4689 1.92634 15.0327 2.40722C15.0619 2.43218 15.0916 2.4575 15.1217 2.48318C15.3955 2.71651 15.4818 2.78825 15.569 2.84673C15.7909 2.99547 16.0401 3.0987 16.3022 3.15044C16.4053 3.17078 16.517 3.18103 16.8756 3.20964C16.915 3.21279 16.9539 3.21588 16.9923 3.21892C17.731 3.27753 18.2644 3.31987 18.7288 3.48389C19.7978 3.86145 20.6385 4.70225 21.0161 5.77118C21.1801 6.23556 21.2225 6.76905 21.2811 7.50774C21.2841 7.54608 21.2872 7.58498 21.2904 7.62444C21.319 7.98303 21.3292 8.09473 21.3496 8.19778C21.4013 8.45987 21.5045 8.70908 21.6533 8.93099C21.7117 9.01824 21.7835 9.10447 22.0168 9.37826C22.0425 9.40841 22.0678 9.4381 22.0928 9.46737C22.5737 10.0311 22.921 10.4383 23.1333 10.8826C23.6222 11.9055 23.6222 13.0945 23.1333 14.1174C22.921 14.5617 22.5737 14.9689 22.0928 15.5326C22.0678 15.5619 22.0425 15.5916 22.0168 15.6217C21.7835 15.8955 21.7117 15.9818 21.6533 16.069C21.5045 16.2909 21.4013 16.5401 21.3496 16.8022C21.3292 16.9053 21.319 17.017 21.2904 17.3756C21.2872 17.415 21.2841 17.4539 21.2811 17.4923C21.2225 18.231 21.1801 18.7644 21.0161 19.2288C20.6385 20.2978 19.7978 21.1385 18.7288 21.5161C18.2644 21.6801 17.731 21.7225 16.9923 21.7811C16.9539 21.7841 16.915 21.7872 16.8756 21.7904C16.517 21.819 16.4053 21.8292 16.3022 21.8496C16.0401 21.9013 15.7909 22.0045 15.569 22.1533C15.4818 22.2117 15.3955 22.2835 15.1217 22.5168C15.0916 22.5425 15.0619 22.5678 15.0326 22.5928C14.4689 23.0737 14.0617 23.421 13.6174 23.6333C12.5945 24.1222 11.4055 24.1222 10.3826 23.6333C9.93829 23.421 9.53112 23.0737 8.96734 22.5928C8.93808 22.5678 8.9084 22.5425 8.87826 22.5168C8.60447 22.2835 8.51824 22.2117 8.43099 22.1533C8.20908 22.0045 7.95987 21.9013 7.69778 21.8496C7.59473 21.8292 7.48303 21.819 7.12444 21.7904C7.08498 21.7872 7.04608 21.7841 7.00774 21.7811C6.26905 21.7225 5.73557 21.6801 5.27118 21.5161C4.20225 21.1385 3.36145 20.2978 2.98389 19.2288C2.81987 18.7644 2.77753 18.2309 2.71892 17.4923C2.71588 17.4539 2.71279 17.415 2.70964 17.3756C2.68103 17.017 2.67078 16.9053 2.65044 16.8022C2.5987 16.5401 2.49547 16.2909 2.34673 16.069C2.28825 15.9818 2.21651 15.8955 1.98318 15.6217C1.95751 15.5916 1.93219 15.5619 1.90723 15.5327C1.42634 14.9689 1.07904 14.5617 0.866657 14.1174C0.377781 13.0945 0.377781 11.9055 0.866657 10.8826C1.07904 10.4383 1.42634 10.0311 1.90722 9.46735C1.93218 9.43809 1.9575 9.4084 1.98318 9.37826C2.21651 9.10447 2.28825 9.01824 2.34673 8.931C2.49547 8.70908 2.5987 8.45986 2.65044 8.19778C2.67078 8.09473 2.68103 7.98303 2.70964 7.62444C2.71279 7.58498 2.71588 7.54608 2.71892 7.50774C2.77753 6.76905 2.81987 6.23557 2.98389 5.77118C3.36145 4.70225 4.20225 3.86145 5.27118 3.48389C5.73557 3.31987 6.26905 3.27753 7.00774 3.21892C7.04608 3.21588 7.08498 3.21279 7.12444 3.20964C7.48303 3.18103 7.59473 3.17078 7.69778 3.15044C7.95986 3.0987 8.20908 2.99547 8.431 2.84673C8.51824 2.78825 8.60447 2.71651 8.87826 2.48318C8.9084 2.4575 8.93808 2.43218 8.96735 2.40722C9.53113 1.92634 9.93829 1.57904 10.3826 1.36666ZM12.8709 2.92843C12.3201 2.66519 11.6799 2.66519 11.1291 2.92843C10.9162 3.0302 10.6917 3.21204 10.001 3.80067C9.98967 3.81034 9.97848 3.81988 9.96744 3.8293C9.74076 4.02255 9.57529 4.16361 9.39474 4.28463C8.98262 4.56085 8.51979 4.75256 8.03305 4.84866C7.81981 4.89076 7.60306 4.90801 7.30612 4.93165C7.29165 4.9328 7.277 4.93397 7.26214 4.93515C6.3575 5.00735 6.07021 5.03747 5.84769 5.11607C5.27211 5.31937 4.81937 5.77211 4.61607 6.34769C4.53747 6.57021 4.50735 6.8575 4.43515 7.76214C4.43397 7.777 4.4328 7.79166 4.43165 7.80612C4.40801 8.10306 4.39076 8.31981 4.34866 8.53305C4.25256 9.01979 4.06085 9.48262 3.78463 9.89474C3.66361 10.0753 3.52255 10.2408 3.32929 10.4674C3.31988 10.4785 3.31034 10.4897 3.30067 10.501C2.71204 11.1917 2.5302 11.4162 2.42843 11.6291C2.16519 12.1799 2.16519 12.8201 2.42843 13.3709C2.5302 13.5838 2.71204 13.8083 3.30067 14.499C3.31034 14.5103 3.31988 14.5215 3.3293 14.5326C3.52255 14.7592 3.66361 14.9247 3.78463 15.1053C4.06085 15.5174 4.25256 15.9802 4.34866 16.467C4.39076 16.6802 4.40801 16.8969 4.43165 17.1939C4.4328 17.2083 4.43397 17.223 4.43515 17.2379C4.50735 18.1425 4.53747 18.4298 4.61607 18.6523C4.81937 19.2279 5.27211 19.6806 5.84769 19.8839C6.07021 19.9625 6.3575 19.9927 7.26214 20.0648L7.30612 20.0683C7.60306 20.092 7.81981 20.1092 8.03305 20.1513C8.51979 20.2474 8.98262 20.4391 9.39474 20.7154C9.57529 20.8364 9.74076 20.9775 9.96745 21.1707L10.001 21.1993C10.6917 21.788 10.9162 21.9698 11.1291 22.0716C11.6799 22.3348 12.3201 22.3348 12.8709 22.0716C13.0838 21.9698 13.3083 21.788 13.999 21.1993L14.0326 21.1707C14.2592 20.9774 14.4247 20.8364 14.6053 20.7154C15.0174 20.4391 15.4802 20.2474 15.967 20.1513C16.1802 20.1092 16.3969 20.092 16.6939 20.0683L16.7379 20.0648C17.6425 19.9927 17.9298 19.9625 18.1523 19.8839C18.7279 19.6806 19.1806 19.2279 19.3839 18.6523C19.4625 18.4298 19.4927 18.1425 19.5648 17.2379L19.5683 17.1939C19.592 16.8969 19.6092 16.6802 19.6513 16.467C19.7474 15.9802 19.9391 15.5174 20.2154 15.1053C20.3364 14.9247 20.4774 14.7592 20.6707 14.5326L20.6993 14.499C21.288 13.8083 21.4698 13.5838 21.5716 13.3709C21.8348 12.8201 21.8348 12.1799 21.5716 11.6291C21.4698 11.4162 21.288 11.1917 20.6993 10.501L20.6707 10.4674C20.4774 10.2407 20.3364 10.0753 20.2154 9.89474C19.9391 9.48262 19.7474 9.01979 19.6513 8.53305C19.6092 8.31981 19.592 8.10306 19.5683 7.80612L19.5648 7.76214C19.4927 6.8575 19.4625 6.57021 19.3839 6.34769C19.1806 5.77211 18.7279 5.31937 18.1523 5.11607C17.9298 5.03747 17.6425 5.00735 16.7379 4.93515C16.723 4.93397 16.7083 4.9328 16.6939 4.93165C16.3969 4.90801 16.1802 4.89076 15.967 4.84866C15.4802 4.75256 15.0174 4.56085 14.6053 4.28463C14.4247 4.16361 14.2592 4.02255 14.0326 3.82929C14.0215 3.81988 14.0103 3.81034 13.999 3.80067C13.3083 3.21204 13.0838 3.0302 12.8709 2.92843Z" fill="#2C3447"/>
<path fill-rule="evenodd" clip-rule="evenodd" d="M16.074 8.426C16.412 8.764 16.412 9.312 16.074 9.65L9.15 16.574C8.812 16.912 8.264 16.912 7.926 16.574C7.588 16.236 7.588 15.688 7.926 15.35L14.85 8.426C15.188 8.088 15.736 8.088 16.074 8.426Z" fill="#2C3447"/>
<path d="M16.039 15.385C16.039 16.0223 15.5223 16.539 14.885 16.539C14.2477 16.539 13.731 16.0223 13.731 15.385C13.731 14.7477 14.2477 14.231 14.885 14.231C15.5223 14.231 16.039 14.7477 16.039 15.385Z" fill="#2C3447"/>
<path d="M10.269 9.615C10.269 10.2523 9.75234 10.769 9.115 10.769C8.47767 10.769 7.961 10.2523 7.961 9.615C7.961 8.97767 8.47767 8.461 9.115 8.461C9.75234 8.461 10.269 8.97767 10.269 9.615Z" fill="#2C3447"/>
</svg>
