<svg width="33" height="32" viewBox="0 0 33 32" fill="none" xmlns="http://www.w3.org/2000/svg">
<path fill-rule="evenodd" clip-rule="evenodd" d="M16.1992 5.67442C10.4966 5.67442 5.87364 10.2973 5.87364 16C5.87364 21.7027 10.4966 26.3256 16.1992 26.3256C21.9019 26.3256 26.5248 21.7027 26.5248 16C26.5248 10.2973 21.9019 5.67442 16.1992 5.67442ZM4.19922 16C4.19922 9.37258 9.5718 4 16.1992 4C22.8266 4 28.1992 9.37258 28.1992 16C28.1992 22.6274 22.8266 28 16.1992 28C9.5718 28 4.19922 22.6274 4.19922 16ZM12.1778 19.9666C12.4531 19.5951 12.9775 19.5172 13.3489 19.7925C14.162 20.3952 15.1433 20.7442 16.1992 20.7442C17.2551 20.7442 18.2365 20.3952 19.0495 19.7925C19.421 19.5172 19.9453 19.5951 20.2206 19.9666C20.496 20.338 20.4181 20.8624 20.0466 21.1377C18.9611 21.9423 17.6336 22.4186 16.1992 22.4186C14.7648 22.4186 13.4373 21.9423 12.3518 21.1377C11.9804 20.8624 11.9025 20.338 12.1778 19.9666Z" fill="#2C3447"/>
<path d="M20.6643 14.3256C20.6643 15.2503 20.1646 16 19.5481 16C18.9316 16 18.4318 15.2503 18.4318 14.3256C18.4318 13.4008 18.9316 12.6512 19.5481 12.6512C20.1646 12.6512 20.6643 13.4008 20.6643 14.3256Z" fill="#2C3447"/>
<path d="M13.9667 14.3256C13.9667 15.2503 13.4669 16 12.8504 16C12.2339 16 11.7341 15.2503 11.7341 14.3256C11.7341 13.4008 12.2339 12.6512 12.8504 12.6512C13.4669 12.6512 13.9667 13.4008 13.9667 14.3256Z" fill="#2C3447"/>
</svg>
