<svg width="24" height="24" viewBox="0 0 24 24" fill="none" xmlns="http://www.w3.org/2000/svg">
<path fill-rule="evenodd" clip-rule="evenodd" d="M12 2.60465C6.53495 2.60465 2.10465 7.03495 2.10465 12.5C2.10465 17.9651 6.53495 22.3953 12 22.3953C17.4651 22.3953 21.8953 17.9651 21.8953 12.5C21.8953 7.03495 17.4651 2.60465 12 2.60465ZM0.5 12.5C0.5 6.14873 5.64873 1 12 1C18.3513 1 23.5 6.14873 23.5 12.5C23.5 18.8513 18.3513 24 12 24C5.64873 24 0.5 18.8513 0.5 12.5ZM8.14614 16.3013C8.41 15.9453 8.91249 15.8706 9.26847 16.1345C10.0476 16.712 10.9881 17.0465 12 17.0465C13.0119 17.0465 13.9524 16.712 14.7315 16.1345C15.0875 15.8706 15.59 15.9453 15.8539 16.3013C16.1177 16.6573 16.0431 17.1598 15.6871 17.4236C14.6468 18.1947 13.3746 18.6512 12 18.6512C10.6254 18.6512 9.35318 18.1947 8.31293 17.4236C7.95694 17.1598 7.88227 16.6573 8.14614 16.3013Z" fill="#2C3447"/>
<path d="M16.2791 10.8953C16.2791 11.7816 15.8001 12.5 15.2093 12.5C14.6185 12.5 14.1395 11.7816 14.1395 10.8953C14.1395 10.0091 14.6185 9.2907 15.2093 9.2907C15.8001 9.2907 16.2791 10.0091 16.2791 10.8953Z" fill="#2C3447"/>
<path d="M9.86047 10.8953C9.86047 11.7816 9.38151 12.5 8.7907 12.5C8.19988 12.5 7.72093 11.7816 7.72093 10.8953C7.72093 10.0091 8.19988 9.2907 8.7907 9.2907C9.38151 9.2907 9.86047 10.0091 9.86047 10.8953Z" fill="#2C3447"/>
</svg>
