<svg width="24" height="24" viewBox="0 0 24 24" fill="none" xmlns="http://www.w3.org/2000/svg">
<path d="M9.96013 11.0906C10.0559 10.9538 10.1355 10.8402 10.2063 10.743C10.2662 10.8473 10.3331 10.9688 10.4136 11.1151L12.2431 14.4416C12.4208 14.7648 12.595 15.0817 12.7699 15.3117C12.9571 15.5578 13.2862 15.8951 13.8136 15.905C14.3411 15.9149 14.6827 15.5902 14.8789 15.3513C15.0624 15.1281 15.2484 14.8179 15.438 14.5017L15.4973 14.4029C15.7335 14.0092 15.8822 13.7631 16.0138 13.5853C16.1351 13.4215 16.2051 13.368 16.2574 13.3384C16.3097 13.3088 16.3916 13.2763 16.5944 13.2565C16.8146 13.2351 17.1021 13.2343 17.5613 13.2343H18.4186C18.8617 13.2343 19.2209 12.875 19.2209 12.4319C19.2209 11.9888 18.8617 11.6296 18.4186 11.6296L17.5267 11.6296C17.1125 11.6296 16.7462 11.6296 16.4392 11.6594C16.1063 11.6918 15.7824 11.7634 15.4668 11.942C15.1512 12.1207 14.9232 12.3617 14.7242 12.6305C14.5406 12.8784 14.3522 13.1925 14.1391 13.5476L14.0883 13.6323C13.9955 13.787 13.9181 13.9158 13.8489 14.0264C13.784 13.9133 13.7115 13.7817 13.6246 13.6236L11.7959 10.2987C11.631 9.99874 11.4668 9.69991 11.3001 9.48084C11.1181 9.24151 10.806 8.92506 10.3059 8.89806C9.80577 8.87106 9.46142 9.15206 9.25468 9.37039C9.06544 9.57025 8.86997 9.84966 8.67376 10.1301L8.34279 10.6029C8.0998 10.9501 7.94745 11.1664 7.81558 11.3224C7.69419 11.466 7.62672 11.513 7.57691 11.5389C7.52711 11.5649 7.44988 11.5932 7.26263 11.6103C7.05922 11.6288 6.79465 11.6296 6.37092 11.6296H5.5814C5.13828 11.6296 4.77907 11.9888 4.77907 12.4319C4.77907 12.875 5.13828 13.2343 5.5814 13.2343L6.4031 13.2343C6.78498 13.2343 7.12349 13.2343 7.40857 13.2083C7.7178 13.18 8.01943 13.1176 8.31796 12.9622C8.61648 12.8068 8.84056 12.5955 9.04103 12.3583C9.22584 12.1397 9.41994 11.8624 9.63892 11.5495L9.96013 11.0906Z" fill="#2C3447"/>
<path fill-rule="evenodd" clip-rule="evenodd" d="M23.5 9.50109C23.5 6.09801 21.9037 3.45261 19.4622 2.4369C17.1842 1.48923 14.433 2.06527 12 4.34089C9.56701 2.06527 6.81576 1.48929 4.53781 2.43698C2.09628 3.45273 0.5 6.09812 0.5 9.50112C0.5 11.7752 1.70805 14.0144 3.21314 15.9433C4.73346 17.8918 6.64615 19.6366 8.24271 20.9386L8.38682 21.0562C9.67039 22.1044 10.5981 22.862 12 22.862C13.4019 22.862 14.3296 22.1044 15.6132 21.0562L15.7573 20.9386C17.3539 19.6367 19.2666 17.8918 20.7869 15.9434C22.292 14.0144 23.5 11.7752 23.5 9.50109ZM12.5874 6.02356C14.8318 3.61137 17.1638 3.21871 18.8458 3.91845C20.5497 4.62728 21.8953 6.58068 21.8953 9.50109C21.8953 11.2359 20.9535 13.1213 19.5217 14.9562C18.1052 16.7717 16.2942 18.4302 14.7432 19.695C13.253 20.9102 12.7719 21.2574 12 21.2574C11.2281 21.2574 10.747 20.9102 9.25681 19.695C7.70579 18.4302 5.89476 16.7716 4.47826 14.9562C3.04653 13.1213 2.10465 11.2359 2.10465 9.50112C2.10465 6.5808 3.45032 4.62738 5.15418 3.91853C6.8362 3.21876 9.16817 3.61138 11.4126 6.02356C11.5644 6.18669 11.7772 6.27935 12 6.27935C12.2228 6.27935 12.4356 6.18669 12.5874 6.02356Z" fill="#2C3447"/>
</svg>
