<svg width="24" height="24" viewBox="0 0 24 24" fill="none" xmlns="http://www.w3.org/2000/svg">
<path fill-rule="evenodd" clip-rule="evenodd" d="M9.28744 2.61039C11.0234 1.79654 12.9765 1.79654 14.7125 2.61039L21.8705 5.96623C22.9962 6.49399 23.5 7.64006 23.5 8.68608C23.5 9.7321 22.9962 10.8782 21.8705 11.4059L20.2907 12.1466V17.3784C20.2907 18.7188 19.6186 20.013 18.3951 20.6906C17.5909 21.136 16.5341 21.6721 15.422 22.0988C14.323 22.5204 13.106 22.8605 12 22.8605C10.894 22.8605 9.67701 22.5204 8.57799 22.0988C7.46588 21.6721 6.40908 21.136 5.60491 20.6906C4.38139 20.013 3.7093 18.7188 3.7093 17.3784V12.1465L2.12951 11.4059L2.10465 11.3941V14.5698C2.10465 15.0129 1.74544 15.3721 1.30233 15.3721C0.859213 15.3721 0.5 15.0129 0.5 14.5698V8.68605C0.5 7.64003 1.0038 6.49394 2.12951 5.96619L9.28744 2.61039ZM5.31395 12.8988V17.3784C5.31395 18.1946 5.71913 18.9196 6.38231 19.2869C7.14896 19.7114 8.1347 20.21 9.15275 20.6006C10.1839 20.9962 11.1847 21.2558 12 21.2558C12.8153 21.2558 13.8161 20.9962 14.8472 20.6006C15.8653 20.21 16.851 19.7114 17.6177 19.2869C18.2809 18.9196 18.686 18.1946 18.686 17.3784V12.8989L14.7126 14.7617C12.9766 15.5756 11.0235 15.5756 9.28754 14.7617L5.31395 12.8988ZM2.81066 9.95296C2.37935 9.75076 2.10465 9.26842 2.10465 8.68603C2.10465 8.10364 2.37936 7.6213 2.81066 7.41909L9.9686 4.06329C11.273 3.45178 12.7269 3.45178 14.0313 4.06329L21.1893 7.41914C21.6206 7.62135 21.8953 8.10369 21.8953 8.68607C21.8953 9.26846 21.6206 9.7508 21.1893 9.95301L14.0314 13.3088C12.727 13.9203 11.2731 13.9203 9.96869 13.3088L2.81066 9.95296Z" fill="#2C3447"/>
</svg>
