<svg width="24" height="24" viewBox="0 0 24 24" fill="none" xmlns="http://www.w3.org/2000/svg">
<g clip-path="url(#clip0_2902_4221)">
<path fill-rule="evenodd" clip-rule="evenodd" d="M5.5001 1.24926e-06C4.44824 -3.20368e-05 3.57108 -5.97936e-05 2.87476 0.0935583C2.13978 0.192374 1.47621 0.409744 0.942977 0.942977C0.409744 1.47621 0.192374 2.13978 0.0935583 2.87476C-5.97936e-05 3.57108 -3.20368e-05 4.4482 1.24926e-06 5.50007V5.62186C-3.20368e-05 6.67372 -5.97936e-05 7.55087 0.0935583 8.2472C0.192374 8.98217 0.409744 9.64575 0.942977 10.179C1.47621 10.7122 2.13978 10.9296 2.87476 11.0284C3.57108 11.122 4.4482 11.122 5.50007 11.122H5.62185C6.67371 11.122 7.55087 11.122 8.2472 11.0284C8.98217 10.9296 9.64575 10.7122 10.179 10.179C10.7122 9.64575 10.9296 8.98217 11.0284 8.2472C11.122 7.55087 11.122 6.67375 11.122 5.62189V5.50011C11.122 4.44824 11.122 3.57108 11.0284 2.87476C10.9296 2.13978 10.7122 1.47621 10.179 0.942977C9.64575 0.409744 8.98217 0.192374 8.2472 0.0935583C7.55087 -5.97936e-05 6.67375 -3.20368e-05 5.62189 1.24926e-06H5.5001ZM2.18473 2.18473C2.33729 2.03216 2.56851 1.90663 3.10875 1.834C3.67426 1.75797 4.43238 1.7561 5.56098 1.7561C6.68958 1.7561 7.44769 1.75797 8.0132 1.834C8.55345 1.90663 8.78467 2.03216 8.93723 2.18473C9.0898 2.33729 9.21533 2.56851 9.28796 3.10875C9.36399 3.67426 9.36586 4.43238 9.36586 5.56098C9.36586 6.68958 9.36399 7.44769 9.28796 8.0132C9.21533 8.55345 9.0898 8.78467 8.93723 8.93723C8.78467 9.0898 8.55345 9.21533 8.0132 9.28796C7.44769 9.36399 6.68958 9.36586 5.56098 9.36586C4.43238 9.36586 3.67426 9.36399 3.10875 9.28796C2.56851 9.21533 2.33729 9.0898 2.18473 8.93723C2.03216 8.78467 1.90663 8.55345 1.834 8.0132C1.75797 7.44769 1.7561 6.68958 1.7561 5.56098C1.7561 4.43238 1.75797 3.67426 1.834 3.10875C1.90663 2.56851 2.03216 2.33729 2.18473 2.18473Z" fill="#2C3447"/>
<path fill-rule="evenodd" clip-rule="evenodd" d="M18.3781 12.878C17.3263 12.878 16.4491 12.878 15.7528 12.9716C15.0178 13.0704 14.3543 13.2878 13.821 13.821C13.2878 14.3543 13.0704 15.0178 12.9716 15.7528C12.878 16.4491 12.878 17.3263 12.878 18.3781V18.4999C12.878 19.5518 12.878 20.4289 12.9716 21.1252C13.0704 21.8602 13.2878 22.5238 13.821 23.057C14.3543 23.5903 15.0178 23.8076 15.7528 23.9064C16.4491 24.0001 17.3262 24 18.378 24H18.4999C19.5517 24 20.4289 24.0001 21.1252 23.9064C21.8602 23.8076 22.5238 23.5903 23.057 23.057C23.5903 22.5238 23.8076 21.8602 23.9064 21.1252C24.0001 20.4289 24 19.5518 24 18.5V18.3782C24 17.3263 24.0001 16.4491 23.9064 15.7528C23.8076 15.0178 23.5903 14.3543 23.057 13.821C22.5238 13.2878 21.8602 13.0704 21.1252 12.9716C20.4289 12.878 19.5518 12.878 18.4999 12.878H18.3781ZM15.0628 15.0628C15.2153 14.9102 15.4466 14.7847 15.9868 14.712C16.5523 14.636 17.3104 14.6341 18.439 14.6341C19.5676 14.6341 20.3257 14.636 20.8912 14.712C21.4315 14.7847 21.6627 14.9102 21.8153 15.0628C21.9678 15.2153 22.0934 15.4466 22.166 15.9868C22.242 16.5523 22.2439 17.3104 22.2439 18.439C22.2439 19.5676 22.242 20.3257 22.166 20.8912C22.0934 21.4315 21.9678 21.6627 21.8153 21.8153C21.6627 21.9678 21.4315 22.0934 20.8912 22.166C20.3257 22.242 19.5676 22.2439 18.439 22.2439C17.3104 22.2439 16.5523 22.242 15.9868 22.166C15.4466 22.0934 15.2153 21.9678 15.0628 21.8153C14.9102 21.6627 14.7847 21.4315 14.712 20.8912C14.636 20.3257 14.6341 19.5676 14.6341 18.439C14.6341 17.3104 14.636 16.5523 14.712 15.9868C14.7847 15.4466 14.9102 15.2153 15.0628 15.0628Z" fill="#2C3447"/>
<path fill-rule="evenodd" clip-rule="evenodd" d="M5.5001 12.878H5.62186C6.67373 12.878 7.55087 12.878 8.2472 12.9716C8.98217 13.0704 9.64575 13.2878 10.179 13.821C10.7122 14.3543 10.9296 15.0178 11.0284 15.7528C11.122 16.4491 11.122 17.3263 11.122 18.3781V18.4999C11.122 19.5518 11.122 20.4289 11.0284 21.1252C10.9296 21.8602 10.7122 22.5238 10.179 23.057C9.64575 23.5903 8.98217 23.8076 8.2472 23.9064C7.55088 24.0001 6.67377 24 5.62192 24H5.50011C4.44826 24 3.57107 24.0001 2.87476 23.9064C2.13978 23.8076 1.47621 23.5903 0.942977 23.057C0.409744 22.5238 0.192374 21.8602 0.0935583 21.1252C-5.97936e-05 20.4289 -3.20368e-05 19.5518 1.24926e-06 18.4999V18.3781C-3.20368e-05 17.3263 -5.97936e-05 16.4491 0.0935583 15.7528C0.192374 15.0178 0.409744 14.3543 0.942977 13.821C1.47621 13.2878 2.13978 13.0704 2.87476 12.9716C3.57109 12.878 4.44822 12.878 5.5001 12.878ZM3.10875 14.712C2.56851 14.7847 2.33729 14.9102 2.18473 15.0628C2.03216 15.2153 1.90663 15.4466 1.834 15.9868C1.75797 16.5523 1.7561 17.3104 1.7561 18.439C1.7561 19.5676 1.75797 20.3257 1.834 20.8912C1.90663 21.4315 2.03216 21.6627 2.18473 21.8153C2.33729 21.9678 2.56851 22.0934 3.10875 22.166C3.67426 22.242 4.43238 22.2439 5.56098 22.2439C6.68958 22.2439 7.44769 22.242 8.0132 22.166C8.55345 22.0934 8.78467 21.9678 8.93723 21.8153C9.0898 21.6627 9.21533 21.4315 9.28796 20.8912C9.36399 20.3257 9.36586 19.5676 9.36586 18.439C9.36586 17.3104 9.36399 16.5523 9.28796 15.9868C9.21533 15.4466 9.0898 15.2153 8.93723 15.0628C8.78467 14.9102 8.55345 14.7847 8.0132 14.712C7.44769 14.636 6.68958 14.6341 5.56098 14.6341C4.43238 14.6341 3.67426 14.636 3.10875 14.712Z" fill="#2C3447"/>
<path fill-rule="evenodd" clip-rule="evenodd" d="M18.3781 1.24926e-06C17.3263 -3.20368e-05 16.4491 -5.97936e-05 15.7528 0.0935583C15.0178 0.192374 14.3543 0.409744 13.821 0.942977C13.2878 1.47621 13.0704 2.13978 12.9716 2.87476C12.878 3.57109 12.878 4.44822 12.878 5.5001V5.62186C12.878 6.67373 12.878 7.55087 12.9716 8.2472C13.0704 8.98217 13.2878 9.64575 13.821 10.179C14.3543 10.7122 15.0178 10.9296 15.7528 11.0284C16.4491 11.122 17.3263 11.122 18.3781 11.122H18.4999C19.5518 11.122 20.4289 11.122 21.1252 11.0284C21.8602 10.9296 22.5238 10.7122 23.057 10.179C23.5903 9.64575 23.8076 8.98217 23.9064 8.2472C24.0001 7.55087 24 6.67375 24 5.62189V5.50011C24 4.44824 24.0001 3.57108 23.9064 2.87476C23.8076 2.13978 23.5903 1.47621 23.057 0.942977C22.5238 0.409744 21.8602 0.192374 21.1252 0.0935583C20.4289 -5.97936e-05 19.5518 -3.20368e-05 18.4999 1.24926e-06H18.3781ZM15.0628 2.18473C15.2153 2.03216 15.4466 1.90663 15.9868 1.834C16.5523 1.75797 17.3104 1.7561 18.439 1.7561C19.5676 1.7561 20.3257 1.75797 20.8912 1.834C21.4315 1.90663 21.6627 2.03216 21.8153 2.18473C21.9678 2.33729 22.0934 2.56851 22.166 3.10875C22.242 3.67426 22.2439 4.43238 22.2439 5.56098C22.2439 6.68958 22.242 7.44769 22.166 8.0132C22.0934 8.55345 21.9678 8.78467 21.8153 8.93723C21.6627 9.0898 21.4315 9.21533 20.8912 9.28796C20.3257 9.36399 19.5676 9.36586 18.439 9.36586C17.3104 9.36586 16.5523 9.36399 15.9868 9.28796C15.4466 9.21533 15.2153 9.0898 15.0628 8.93723C14.9102 8.78467 14.7847 8.55345 14.712 8.0132C14.636 7.44769 14.6341 6.68958 14.6341 5.56098C14.6341 4.43238 14.636 3.67426 14.712 3.10875C14.7847 2.56851 14.9102 2.33729 15.0628 2.18473Z" fill="#2C3447"/>
</g>
<defs>
<clipPath id="clip0_2902_4221">
<rect width="24" height="24" fill="white"/>
</clipPath>
</defs>
</svg>
